<svg xmlns="http://www.w3.org/2000/svg" width="270.484" height="89.697" viewBox="0 0 270.484 89.697">
  <g id="Group_161" data-name="Group 161" transform="translate(-395.516 -12689.667)">
    <path id="Path_69" data-name="Path 69" d="M396.057,12747.811a13.322,13.322,0,0,0,3.181-.105l3.476-.215c1.077-.01,2.154-.007,3.232-.012.461,0,.923.012,1.379-.02,1.534-.105,3.066-.228,4.6-.343.926-.069,1.851-.135,2.774-.206.72-.055,1.44-.12,2.159-.172,1.157-.085,2.313-.188,3.473-.237.842-.032,1.688.014,2.535.019a2.822,2.822,0,0,0,.489-.038c.452-.073,2.688-.107,3.348-.156,1.564-.117,13.964-.073,14.743-.085,1.965-.025,3.926-.064,5.889-.067,1.443,0,2.885.049,4.324.065q1.432.016,2.863,0c.246,0,.49-.1.735-.111,1.553-.051,3.109-.109,4.662-.127a53.613,53.613,0,0,0,5.532.124,33.139,33.139,0,0,1,4.751.093c.9.144,4.861-.015,5.926-.015,1.232,0,2.454.2,3.712.121,1.655-.106,3.33-.026,4.994.029,1.308.046,2.612.172,3.913.26a4.508,4.508,0,0,0,.551-.008c.57-.034,1.138-.125,1.706-.1,1.232.039,2.464.168,3.7.187.687.013,1.374-.186,2.062-.186,1.566,0,3.13.067,4.7.117a13,13,0,0,0,1.549.1,12.947,12.947,0,0,1,2.553-.235,6.575,6.575,0,0,0,.931-.1c.55-.028,1.1-.049,1.655-.031.381.013.756.124,1.136.142,1.34.054,2.682.086,4.021.128.157.007.317.023.476.023.692,0,1.389.037,2.079-.009.755-.047,1.506-.21,2.261-.25.512-.026,1.035.1,1.551.107a35.7,35.7,0,0,1,3.787.038c1.108.136,2.117-.289,3.261-.126a37.708,37.708,0,0,0,4.792.007c1.875.024,3.746.121,5.617.179.611.018,1.222.045,1.829.016,1.082-.058,2.161-.146,3.241-.235,1.911-.158,3.825-.337,5.739-.486.883-.069,1.769-.135,2.654-.119.8.015,1.607.206,2.409.2,1.184-.015,2.371-.225,3.551-.189,1.679.054,3.349.271,5.027.391.906.061,1.814.059,2.72.09,1.24.038,2.479.088,3.722.114.517.014,1.034-.054,1.551-.032.723.027,1.44.13,2.165.153.9.026,1.8,0,2.7.011.358.007.712.11,1.068.11.9,0,1.8-.042,2.7-.044.96,0,1.918.049,2.88.037,1.289-.016,2.582-.095,3.875-.107,1.581-.018,3.163.016,4.747.011,1.3-.007,2.595-.045,3.9-.05.965,0,1.933.028,2.9.036.827.007,1.656,0,2.482.006.279,0,.557.022.834.016.93-.022,1.861-.089,2.789-.074.841.015,1.683.1,2.522.165a21.805,21.805,0,0,1,2.667.1,8.714,8.714,0,0,0,2.077.09s29.407.662,33.724.185c.486-.054.986-.1,1.483-.129.213-.011.434.063.648.065,2.075.03,4.152.065,6.227.065.973,0,1.952-.07,2.926-.117.717-.036,1.435-.1,2.149-.13,1.194-.049,2.387-.067,3.579-.118,1.646-.072,3.292-.165,4.936-.245,0,0,.8.032.287-.709-.771-.9-1.546-1.789-2.314-2.689-.257-.3-2.223-2.809-2.478-3.229-.537-.9-1.094-1.786-1.632-2.687-.477-.8-.871-1.638-1.409-2.4-.8-1.141-1.707-2.225-2.551-3.343q-2.016-2.657-4-5.336c-.854-1.154-1.607-2.377-2.53-3.484a37.738,37.738,0,0,0-3.478-3.45c-1.165-.6-1.269-1.229-.334-2.087.034-.029.066-.06.1-.089a15.661,15.661,0,0,0,1.7-1.6c.757-.954,1.4-1.983,2.081-2.985,1.059-1.546,2.083-3.107,3.173-4.629.995-1.386,2.045-2.738,3.1-4.088.569-.725,1.2-1.412,1.8-2.117l2.692-3.18c.756-.892,1.544-1.764,2.267-2.679,1.282-1.623,2.525-3.268,3.778-4.909.06-.081.034-.214.05-.324-1.111-.1-2.167-.252-3.23-.267-1.4-.021-2.806.059-4.208.109-.832.026-1.663.07-2.489.126-.9.062-1.8.218-2.7.207-1.595-.022-3.184-.191-4.778-.2-1.506-.007-3.012.108-4.518.178q-1.81.083-3.62.181l-23.321-.125q-1.548-.127-3.1-.255c-1.2-.1-4.244-.187-4.568-.2-.679-.028-4.564,0-5.823.081-.627.039-1.26.116-1.883.095-.786-.029-7.091-.243-7.743-.33-.527-.072-2.877-.29-3.526-.281-.619.007-2.593.164-2.958.131-.989-.087-6.643.276-8.564.059-1.156-.134-7.313.552-9.2.69-.449.035-3.846.073-5.089.125-.851.034-4.8-.1-5.972.036-1.207.14-2.51-.3-3.818-.169-1,.1-2.023.011-3.037.025-.375,0-1.945-.106-2.355-.122-1.785-.06-3.571-.084-5.357-.136-.38-.012-.76-.109-1.14-.113-1.287-.017-2.582-.007-3.874-.007-.459,0-.92-.01-1.379.011-.5.022-.988.1-1.485.107-1.123.018-2.244,0-3.367,0-.41,0-.821.01-1.229-.02-1.506-.108-3.01-.237-4.515-.339-.187-.015-2.1-.065-2.9-.03-1.361.061-2.733,0-4.1-.021-.309-.007-.618-.079-.923-.067-.547.017-4.348.23-5.718.143-1.354-.089-2.723.066-4.087.083-.54.01-1.08-.06-1.623-.092-.448-.029-.9-.075-1.348-.073-.3,0-6.977.108-7.753-.011a16.629,16.629,0,0,0-3.016.064c-.431.018-7,.368-7.091.365-.927-.028-1.858-.069-2.786-.086-.8-.016-3.714.234-4.289.192-1.235-.086-7.033-.317-7.585-.334-.422-.014-6.6.116-7.111.2-.307.052-2.653.021-3.379-.007-.973-.042-3.321.016-3.524.015-.5-.006-.994-.018-1.491-.015-.687,0-1.371.011-2.059.019a2.428,2.428,0,0,0-.554.02c-.757.181-1.552-.034-2.32.225a5.8,5.8,0,0,1-1.477.133c-.718.038-1.438.107-2.154.087-.973-.027-4.109.011-4.611.038-.843.044-1.694.035-2.542.044-.123,0-.249-.026-.373-.029-1.005-.015-2.015-.038-3.024-.032-.819,0-1.635.049-2.455.059-.594.013-1.192-.029-1.786.006-.53.031-2.431.106-2.851.11-1.03.011-10.574.762-12.425.721-.413-.009-3.364.057-4.424.043-.745-.008-9.724.113-11.545.119-.913.006-1.83-.02-2.742.026-.949.046-1.892.142-2.833.251-.656.076-1.3.188-1.951.317-.322.063-.537.273-.335.577.23.35.537.658.8,1,.5.64.986,1.287,1.486,1.929.59.758,1.2,1.506,1.781,2.269.606.79,1.192,1.593,1.783,2.394.3.4.56.829.886,1.215.31.364,2.049,2.715,2.637,3.507.378.51,2.677,2.988,3.313,3.8.947,1.213,1.867,2.44,2.814,3.65.368.471.784.909,1.17,1.37.253.309.475.641.747.937.155.167.406.26.565.425.47.482.878,1.014,1.379,1.463s1.1.834,1.638,1.264a.568.568,0,0,1,.2.388,4.1,4.1,0,0,1-1.219,2.75c-.284.325-4.776,6.943-5.235,7.563-1.011,1.366-2.015,2.737-3.034,4.1l-3.41,4.208c-.791,1.047-1.6,2.088-2.453,3.092-.723.847-1.539,1.628-2.284,2.457-.88.973-1.745,1.96-2.582,2.961-.328.389-.627.795-.957,1.244,0,0-.852.751.22.82" fill="#e36386" fill-rule="evenodd"/>
    <path id="Path_70" data-name="Path 70" d="M438.644,12704.487c2.871,0,5.914.471,8.143,1.928a7.568,7.568,0,0,1,3.514,6.558,6.143,6.143,0,0,1-3.771,5.785,7.112,7.112,0,0,1,5.014,6.816,8.231,8.231,0,0,1-5.357,7.713,21.425,21.425,0,0,1-7.886,1.2h-7.543v-30Zm-1.758,12.214H438.6c3.514,0,5.571-1.157,5.571-3.513a3.285,3.285,0,0,0-1.285-2.786c-1.157-.772-2.872-.772-4.8-.772h-1.2Zm0,12.644H438.3c1.8,0,3.686,0,4.971-.644a3.058,3.058,0,0,0,1.715-3c0-2.485-1.629-4.028-4.672-4.028h-3.429Z" fill="#fff"/>
    <path id="Path_71" data-name="Path 71" d="M475.8,12734.488l-1.928-5.571H463.2l-2.014,5.571h-6.815l12.257-30H471.6l11.272,30Zm-10.8-10.586h7.157l-3.471-10.071h-.043Z" fill="#fff"/>
    <path id="Path_72" data-name="Path 72" d="M494.6,12704.487c2.872,0,5.915.471,8.143,1.928a7.567,7.567,0,0,1,3.515,6.558,6.145,6.145,0,0,1-3.771,5.785,7.113,7.113,0,0,1,5.014,6.816,8.232,8.232,0,0,1-5.358,7.713,21.42,21.42,0,0,1-7.885,1.2h-7.543v-30Zm-1.757,12.214h1.714c3.515,0,5.572-1.157,5.572-3.513a3.283,3.283,0,0,0-1.286-2.786c-1.157-.772-2.871-.772-4.8-.772h-1.2Zm0,12.644h1.415c1.8,0,3.686,0,4.971-.644a3.058,3.058,0,0,0,1.715-3c0-2.485-1.629-4.028-4.673-4.028h-3.428Z" fill="#fff"/>
    <path id="Path_73" data-name="Path 73" d="M519.538,12734.488v-12.559l-9.558-17.442h7.629l5.186,10.8h.085l5.658-10.8h7.157l-10.029,17.614v12.387Z" fill="#fff"/>
    <path id="Path_74" data-name="Path 74" d="M560.282,12734.488v-30h3.171v27.087h13.372v2.914Z" fill="#fff"/>
    <path id="Path_75" data-name="Path 75" d="M581.447,12734.488v-30h17.444v2.914H584.619v10.114h14.272v2.914H584.619v11.145h14.272v2.914Z" fill="#fff"/>
    <path id="Path_76" data-name="Path 76" d="M606.3,12704.487h7.8c7.587,0,15.943,4.028,15.943,14.872,0,11.1-8.314,15.129-16.371,15.129H606.3Zm4.929,27.087c9.257,0,15.429-2.786,15.429-11.829,0-8.1-4.929-12.343-13.372-12.343H609.47v24.172Z" fill="#fff"/>
    <path id="Path_77" data-name="Path 77" d="M551.123,12717.6a3.8,3.8,0,0,0,.389-2.309c-.161-1.551-1.057-2.018-2.489-1.412a3.379,3.379,0,0,0-2.273,3.228c0,.885-.252,1.5-1.107,1.611-1.072.141-.949-.812-1.217-1.472a11.73,11.73,0,0,0-1.475-2.68,2.485,2.485,0,0,0-3.047-.2c-.819.669-.393,1.477-.168,2.229a3.9,3.9,0,0,0,.531.967c1.332,2.013,2.673,4.021,4.087,6.146m1.089-9.291a5.794,5.794,0,0,1,5.326-2.786c1.57.061,2.027.41,2.555,1.912.994,2.822-.035,5.1-1.954,7.048-1.966,2-4.054,3.87-6.129,5.755-.863.783-2.09.655-2.382-.365-1-3.494-3.786-5.974-5.076-9.3-.89-2.3-.431-3.679,1.861-4.452,2.422-.817,4.356-.239,5.8,2.193" fill="#ffb71b"/>
    <path id="Path_78" data-name="Path 78" d="M450.454,12756.042H438.176a.4.4,0,0,0-.395.4v22.15a.4.4,0,0,0,.395.4H442.7a.4.4,0,0,0,.4-.4v-8.528h7.357a.4.4,0,0,0,.4-.4v-3.829a.4.4,0,0,0-.4-.4H443.1v-4.778h7.357a.4.4,0,0,0,.4-.4v-3.828a.4.4,0,0,0-.4-.4" fill="#e36386"/>
    <path id="Path_79" data-name="Path 79" d="M477.794,12756.042H463.586a.4.4,0,0,0-.4.4v22.15a.4.4,0,0,0,.4.4h14.208a.4.4,0,0,0,.4-.4v-3.829a.4.4,0,0,0-.4-.4h-9.288v-4.873h9.288a.4.4,0,0,0,.4-.4v-3.829a.4.4,0,0,0-.4-.4h-9.288v-4.209h9.288a.4.4,0,0,0,.4-.4v-3.828a.4.4,0,0,0-.4-.4" fill="#e36386"/>
    <path id="Path_80" data-name="Path 80" d="M505.641,12756.042H491.433a.4.4,0,0,0-.4.4v22.15a.4.4,0,0,0,.4.4h14.208a.4.4,0,0,0,.4-.4v-3.829a.4.4,0,0,0-.4-.4h-9.288v-4.873h9.288a.4.4,0,0,0,.4-.4v-3.829a.4.4,0,0,0-.4-.4h-9.288v-4.209h9.288a.4.4,0,0,0,.4-.4v-3.828a.4.4,0,0,0-.4-.4" fill="#e36386"/>
    <path id="Path_81" data-name="Path 81" d="M534.2,12758.609a14.127,14.127,0,0,0-8.461-2.567h-6.456a.4.4,0,0,0-.4.395v22.152a.4.4,0,0,0,.4.4h6.171a14.571,14.571,0,0,0,8.734-2.592,10.716,10.716,0,0,0,4.1-8.974,10.53,10.53,0,0,0-4.086-8.81m-10,2.053h1c4.806,0,7.452,2.5,7.452,7.041,0,4.481-2.727,6.661-8.338,6.661H524.2Z" fill="#e36386"/>
    <path id="Path_82" data-name="Path 82" d="M555.923,12756.042H551.4a.4.4,0,0,0-.4.4v22.15a.4.4,0,0,0,.4.4h4.525a.4.4,0,0,0,.4-.4v-22.15a.4.4,0,0,0-.4-.4" fill="#e36386"/>
    <path id="Path_83" data-name="Path 83" d="M589.118,12756.042h-4.525a.4.4,0,0,0-.4.4v12.689l-9.54-12.925a.394.394,0,0,0-.318-.161h-3.987a.4.4,0,0,0-.4.4v22.15a.4.4,0,0,0,.4.4h4.525a.4.4,0,0,0,.4-.4v-12.65l9.444,12.885a.4.4,0,0,0,.319.161h4.082a.4.4,0,0,0,.4-.4v-22.15a.4.4,0,0,0-.4-.4" fill="#e36386"/>
    <path id="Path_84" data-name="Path 84" d="M624.052,12765.409h-9.841a.4.4,0,0,0-.4.4v3.829a.4.4,0,0,0,.4.4h4.921v2.755a7.214,7.214,0,0,1-4.731,1.834c-3.928,0-6.567-2.855-6.567-7.105,0-4.049,2.823-7.1,6.567-7.1a7.843,7.843,0,0,1,5.87,3,.4.4,0,0,0,.272.137.408.408,0,0,0,.288-.1l3.133-2.723a.4.4,0,0,0,.039-.557,12.262,12.262,0,0,0-9.6-4.5,11.9,11.9,0,0,0-12.2,11.851c0,6.868,5.131,11.852,12.2,11.852a12.032,12.032,0,0,0,9.968-4.685.394.394,0,0,0,.079-.236v-8.639a.4.4,0,0,0-.4-.4" fill="#e36386"/>
  </g>
</svg>
