<?xml version="1.0" encoding="iso-8859-1"?>
<svg xmlns="http://www.w3.org/2000/svg" width="171.431" height="63.585" viewBox="0 0 171.431 63.585">
  <g id="Group_39" data-name="Group 39" transform="translate(-1244.585 -174.243)">
    <g id="Group_18" data-name="Group 18">
      <path id="Path_25" data-name="Path 25" d="M1297.644,205.211a22.5,22.5,0,0,0-4.177.453,1.931,1.931,0,0,0-1.335,1.127c-.235.558-.467,1.114-.7,1.672a12.365,12.365,0,0,1-1.654,3.435,5.384,5.384,0,0,0-.579,1.277,25.641,25.641,0,0,1-1.886,3.994,14.156,14.156,0,0,1-2.976,2.955,33.887,33.887,0,0,1-3.428,2.134c-.84,1.949-.389,4.247-1.458,6.148-1.316-.28-1.38-.311-1.343-1.147.052-1.2.155-2.4.235-3.6-1.139-.318-2.346-.157-4.261.566-.69,1.547-.344,3.271-.6,4.889-1.192.083-1.456.011-1.616-.718a14.676,14.676,0,0,1-.262-2.389c-.031-.587.031-1.181.054-1.784a4.794,4.794,0,0,0-2.251-.346,17.65,17.65,0,0,1-6.192-1.691,13.057,13.057,0,0,1-5.118-4.44,8.467,8.467,0,0,0-2.195-2.332,3.939,3.939,0,0,0-3.205-.762,36.414,36.414,0,0,1-3.985.577c-.665.076-1.341.068-2.012.082a2.479,2.479,0,0,1-1.658-.636,1.405,1.405,0,0,1,.057-2.12c.486-.356,1.018-.65,1.64-1.042-.256-.27-.453-.519-.69-.723-1.636-1.41-1.512-2.078.554-2.879.5-.194,1.019-.34,1.522-.531a7.093,7.093,0,0,0,.737-.385c-.3-.6-.6-1.1-.822-1.64a.88.88,0,0,1,.717-1.337,11.535,11.535,0,0,1,2.408.023,13.767,13.767,0,0,1,6.113,2.047c1.256-1.017,2.107-2.088,1.894-3.773a17,17,0,0,1-.076-2.819c.118-2.752.278-5.5.429-8.253a.988.988,0,0,1,.131-.573,2.016,2.016,0,0,1,.791-.548.647.647,0,0,1,.785.464c.208.494.352,1.021.6,1.493a30.017,30.017,0,0,0,1.721,2.962,17.816,17.816,0,0,1,2.4,4.409,4.161,4.161,0,0,0,.583.814,3.194,3.194,0,0,0,.274-.855,11.65,11.65,0,0,1,1.266-5.635,34.226,34.226,0,0,1,3.333-5.977,14.984,14.984,0,0,1,2.059-2.187.861.861,0,0,1,1.467.383,10.233,10.233,0,0,1,.7,2.1c.406,2.177.739,4.368,1.106,6.555.064.381.142.76.243,1.29.61-.169,1.125-.268,1.607-.451,1.886-.715,3.756-1.467,5.641-2.186a9.121,9.121,0,0,1,4.154-.626,6.682,6.682,0,0,1,5.369,3.108,3.7,3.7,0,0,0,1.594,1.473,18.975,18.975,0,0,1,5.994,4.236c3.066,3.53-3.7,3.722-3.7,3.722m-3.945-1.936a10.228,10.228,0,0,0,4.377-.348,1.518,1.518,0,0,0,1.238-1.156,10.757,10.757,0,0,0-4.708-2.523c-.142,1.428-.913,2.575-.907,4.027m-32.4-8.059c-.358.185-.292.554-.307.865-.064,1.4-.072,2.807-.163,4.206a13.887,13.887,0,0,0,.283,3.381c.389,2.14,1.2,2.233,2.858,2.464a2.109,2.109,0,0,0,2.175-.725,2.308,2.308,0,0,0-.268-2.457,1.553,1.553,0,0,0-.243-.318,5.5,5.5,0,0,1-1.443-2.817,11.287,11.287,0,0,0-2.692-4.6c-.025-.029-.118,0-.2,0m7.437,4.273a1.915,1.915,0,0,0,.6-.035c1.36-.56,2.7-1.169,4.068-1.705a2.2,2.2,0,0,0,1.514-2.309,27.035,27.035,0,0,0-.754-6.156,5.1,5.1,0,0,0-.364-.8,26.052,26.052,0,0,0-4.575,7.88,4.406,4.406,0,0,0-.486,3.122m-17.434,10.76a2.865,2.865,0,0,0-2.519-.55,4.545,4.545,0,0,0,2.576.506q.235.754.47,1.506a13.419,13.419,0,0,1,4.5,1.913,11.336,11.336,0,0,1,3.009,2.935,9.772,9.772,0,0,0,6.276,4.379,35.13,35.13,0,0,0,4.756.822,18.619,18.619,0,0,0,10.312-2.223c3.12-1.765,5.658-4.071,6.739-7.676a9.585,9.585,0,0,1,1.258-2.5,9.26,9.26,0,0,0,1.182-2.548,13.033,13.033,0,0,1,1.045-2.77,17.859,17.859,0,0,0,1.658-4.311c.663-2.578-.163-4.127-2.587-4.825a6.9,6.9,0,0,0-4.552,0c-2.568.993-5.155,1.936-7.725,2.931a2.126,2.126,0,0,0-.952.683,1.157,1.157,0,0,1-1.17.554,3.275,3.275,0,0,0-1.341.3c-1.12.457-2.226.95-3.322,1.46-1.021.476-2.02,1-3.106,1.537.206.673.4,1.238.55,1.812.629,2.385-.492,4.01-2.916,4.231a5.918,5.918,0,0,1-4.36-1.2c-.253-.2-.505-.4-.822-.653-.309.288-.554.5-.778.735-.281.289-.528.612-.814.894a.944.944,0,0,1-1.269.179c-.344-.206-.638-.5-.992-.686a4.994,4.994,0,0,0-3.018-.966c-.094-.074-.191-.148-.286-.222-.01.052-.023.1-.033.155.122,0,.245.008.367.014.234.2.455.426.7.61a1.929,1.929,0,0,1,.785,1.32.685.685,0,0,1-.651.811c-.847-.053-1.691-.138-2.373-.195-.517.323.056.959-.6,1.042" fill="#fff"/>
      <path id="Path_26" data-name="Path 26" d="M1285.85,201.387a1.871,1.871,0,0,1-1.81-1.4,1.377,1.377,0,0,1,.241-.923,6.983,6.983,0,0,1,.984-.992c.844-.793,1.429-.773,2.179.066a2.084,2.084,0,0,1,.383,2.23,2.226,2.226,0,0,1-1.977,1.018" fill="#fff"/>
    </g>
    <g id="Group_19" data-name="Group 19">
      <path id="Path_27" data-name="Path 27" d="M1395.182,208.418c.088-.023.176-.049.266-.073-.06-.254-.121-.509-.181-.764-.1.028-.2.058-.308.088.074.25.149.5.223.749m-1.358-6.922a1.552,1.552,0,0,0,.065-.487,1.086,1.086,0,0,0-.219-.318l-.168.108c.088.192.177.386.322.7m2.772-3.842.554-1.49c-.865.657-.865.657-.554,1.49m-.579-3.1c.511-.234,1.355.822,1.823-.255l-1.823.255m-5.341,13.012c-.158-3.771-.424-7.456.325-11.2a3.663,3.663,0,0,0-3.288,2.613c-.448,1.207-1.078,2.583.247,3.72-.427,1.792.6,3.705,2.716,4.867m19.489-9.014c-1.678,2.453-2.1,7.386-.974,10.6a9.588,9.588,0,0,0,3.06-2.669,4.01,4.01,0,0,0,.76-1.923,8.018,8.018,0,0,0-2.846-6.011m-16.159-4.462a23.813,23.813,0,0,1-3.62-6.931,15.647,15.647,0,0,1-1.365-7.624,13.873,13.873,0,0,1-1.633-.4,1.632,1.632,0,0,0-2.066.736,5.132,5.132,0,0,0-.721,1.631,6.044,6.044,0,0,0,1.3,5.011,61.234,61.234,0,0,0,4.388,5.683,12.21,12.21,0,0,0,2.707,1.943c.177.115.511-.015,1.015-.048m10.975.9c-1.5-.26-2.779-.543-4.075-.69-1.253-.143-1.789.3-2.132,1.5-.206.722-.381,1.457-.651,2.155a21.027,21.027,0,0,0-.7,11.127c.149.925.435,1.148,1.416,1.241,1.029.1,2.061.156,3.1.2a2.508,2.508,0,0,0,.714-.214c0-2.568-.111-5.1.031-7.626.146-2.625.469-5.255,2.3-7.689m-3.427-11.458c-.033-.034-.078-.062-.094-.1-.054-.13-.088-.268-.148-.4-1-2.153-2.127-4.225-4.418-5.268-1.692-.77-3.446-1.053-5.071.173a10.368,10.368,0,0,0-1.3,1.463,2.72,2.72,0,0,0-.627,2.339,29.4,29.4,0,0,0,2.728,8.279,6.246,6.246,0,0,0,2.685,3.014,2.265,2.265,0,0,0,1.186.3,21.732,21.732,0,0,1,7.556.276,1.39,1.39,0,0,0,1.415-.412c1.7-1.687,3.519-3.269,5.116-5.05a17.577,17.577,0,0,0,3.539-5.394c.77-2.012-.128-5.905-3.271-6.578a7.6,7.6,0,0,0-6.489,1.12,3.963,3.963,0,0,0-1.529,4.9c.4,1.143-.01,1.57-1.282,1.339m-.163-3.541a10.1,10.1,0,0,0,.516-1.367,4.17,4.17,0,0,1,2.187-2.814,10.532,10.532,0,0,1,5.079-1.561,6.2,6.2,0,0,1,2.309.539,8.924,8.924,0,0,1,3.494,2.807,4.135,4.135,0,0,1,.753,4.253,20.4,20.4,0,0,1-1.939,3.9,34.028,34.028,0,0,1-6.1,6.824c-.487.43-.919.922-1.473,1.483a17.722,17.722,0,0,1,5.135,3.871,9.864,9.864,0,0,1,2.653,4.907,4.838,4.838,0,0,1-1.558,5.124,15.33,15.33,0,0,1-4.04,2.8,19.112,19.112,0,0,1-5.129.727,25.335,25.335,0,0,1-7.657-.857c-1.829-.417-3.765-.7-5.338-2.044a10.676,10.676,0,0,1-3.222-4.207,1.627,1.627,0,0,0-1.3-1.1,13.089,13.089,0,0,1-5.659-3.023c-.238-.21-.617-.3-.776-.547a1.37,1.37,0,0,1-.195-.966c.032-.141.625-.33.8-.224,1.731,1.031,3.6.244,5.4.444a1.876,1.876,0,0,0,1.7-1.046,6.329,6.329,0,0,1,3.742-2.814,1.821,1.821,0,0,0,.664-.368c-1.69-.153-2.09-1.68-2.957-2.654a32.088,32.088,0,0,1-2.964-3.943c-.837-1.3-1.515-2.7-2.22-4.082a3.948,3.948,0,0,1-.318-1.229c-.333-2.406.509-3.845,2.805-4.682a5.685,5.685,0,0,1,3.3-.513,2.5,2.5,0,0,0,1.41-.427,8.087,8.087,0,0,1,4.845-1.117,7.989,7.989,0,0,1,4.464,2.179c.507.477.949,1.02,1.6,1.726" fill="#fff"/>
      <path id="Path_28" data-name="Path 28" d="M1410.7,203.21c-.94-.694-1.181-1.43-.718-2.005a1.019,1.019,0,0,1,1.387-.019c.465.539.238,1.275-.669,2.024" fill="#fff"/>
    </g>
    <g id="Group_20" data-name="Group 20">
      <path id="Path_29" data-name="Path 29" d="M1358.545,235.275l.218-.059c-.049-.209-.1-.418-.148-.627-.084.023-.169.047-.253.072l.183.614m-1.114-5.679a1.291,1.291,0,0,0,.053-.4.892.892,0,0,0-.179-.26l-.138.088c.072.157.145.316.264.572m2.274-3.152.455-1.223c-.71.539-.71.539-.455,1.223m-.475-2.545c.419-.192,1.112.675,1.5-.209l-1.5.209m-4.382,10.676a37.986,37.986,0,0,1,.266-9.189,3.005,3.005,0,0,0-2.7,2.144c-.368.99-.885,2.12.2,3.052-.351,1.47.492,3.04,2.228,3.993m15.991-7.4c-1.378,2.013-1.721,6.06-.8,8.7a7.865,7.865,0,0,0,2.511-2.19,3.294,3.294,0,0,0,.623-1.578,6.586,6.586,0,0,0-2.334-4.932m-13.259-3.66a19.566,19.566,0,0,1-2.97-5.687,12.841,12.841,0,0,1-1.12-6.256,11.3,11.3,0,0,1-1.339-.328,1.339,1.339,0,0,0-1.7.6,4.215,4.215,0,0,0-.591,1.339,4.957,4.957,0,0,0,1.062,4.111,50.13,50.13,0,0,0,3.6,4.663,10.026,10.026,0,0,0,2.22,1.594c.146.094.42-.012.833-.039m9.005.734c-1.229-.212-2.281-.445-3.344-.566-1.028-.117-1.468.246-1.749,1.229-.169.593-.313,1.195-.534,1.768a17.244,17.244,0,0,0-.573,9.129c.122.759.357.943,1.161,1.018.844.079,1.691.129,2.54.164a2.083,2.083,0,0,0,.585-.176c0-2.107-.09-4.187.026-6.256a10.8,10.8,0,0,1,1.888-6.31m-2.812-9.4c-.027-.028-.064-.051-.077-.084-.044-.107-.072-.22-.121-.324-.82-1.766-1.746-3.466-3.625-4.322a3.833,3.833,0,0,0-4.161.142,8.355,8.355,0,0,0-1.063,1.2,2.229,2.229,0,0,0-.515,1.919,24.183,24.183,0,0,0,2.238,6.793,5.127,5.127,0,0,0,2.2,2.473,1.855,1.855,0,0,0,.973.247,17.79,17.79,0,0,1,6.2.226,1.14,1.14,0,0,0,1.161-.338c1.4-1.384,2.887-2.682,4.2-4.143a14.435,14.435,0,0,0,2.9-4.426c.632-1.651-.1-4.845-2.684-5.4a6.238,6.238,0,0,0-5.324.919,3.252,3.252,0,0,0-1.254,4.016c.328.938-.008,1.289-1.052,1.1m-.133-2.9a8.327,8.327,0,0,0,.422-1.122,3.424,3.424,0,0,1,1.8-2.309,8.637,8.637,0,0,1,4.168-1.281,5.075,5.075,0,0,1,1.894.443,7.307,7.307,0,0,1,2.866,2.3,3.394,3.394,0,0,1,.619,3.49,16.745,16.745,0,0,1-1.592,3.2,27.883,27.883,0,0,1-5.008,5.6c-.4.353-.755.757-1.209,1.217a14.549,14.549,0,0,1,4.213,3.176,8.1,8.1,0,0,1,2.177,4.026,3.971,3.971,0,0,1-1.279,4.2,12.531,12.531,0,0,1-3.315,2.3,15.692,15.692,0,0,1-4.208.6,20.759,20.759,0,0,1-6.282-.7,9.448,9.448,0,0,1-4.379-1.677,8.752,8.752,0,0,1-2.644-3.451,1.334,1.334,0,0,0-1.068-.9,10.734,10.734,0,0,1-4.644-2.48c-.2-.173-.506-.247-.636-.449a1.121,1.121,0,0,1-.16-.793c.026-.115.513-.27.658-.183,1.421.845,2.958.2,4.429.364a1.542,1.542,0,0,0,1.393-.858,5.191,5.191,0,0,1,3.07-2.309,1.493,1.493,0,0,0,.545-.3c-1.387-.126-1.715-1.379-2.426-2.178a26.26,26.26,0,0,1-2.432-3.235,38.08,38.08,0,0,1-1.821-3.349,3.228,3.228,0,0,1-.262-1.008,3.134,3.134,0,0,1,2.3-3.842,4.66,4.66,0,0,1,2.708-.42,2.061,2.061,0,0,0,1.158-.351,6.639,6.639,0,0,1,3.974-.917,6.56,6.56,0,0,1,3.663,1.788c.416.391.779.838,1.311,1.417" fill="#fff"/>
      <path id="Path_30" data-name="Path 30" d="M1371.274,231c-.771-.569-.969-1.173-.589-1.645a.837.837,0,0,1,1.138-.016c.381.443.195,1.046-.549,1.661" fill="#fff"/>
    </g>
  </g>
</svg>
