<svg xmlns="http://www.w3.org/2000/svg" width="59.482" height="58.965" viewBox="0 0 59.482 58.965">
  <path id="Path_104" data-name="Path 104" d="M1485.129,2582.578c3.555-.09,6.789-1.066,10.095-1.571,4.241-.649,8.535-.956,12.812-1.347.5-.045,1.026.343,1.554.482a3.788,3.788,0,0,0,1.438.248c1.934-.289,2.82.351,2.824,2.237a4.445,4.445,0,0,1-.357,1.62c-1.432,3.557-2.873,7.111-4.356,10.646a17.627,17.627,0,0,1-6.472,8.28,17.138,17.138,0,0,1-3.222,1.68c-3.494,1.338-6.971,2.76-10.549,3.829-6.737,2.013-13.257,1.78-19.321-2.36-4.323-2.953-8.953-5.482-12.395-9.576-1.207-1.436-2.523-2.725-2.043-4.93.15-.69-.445-1.543-.767-2.529,8.772-4.082,18.345-4.292,27.674-6.413a24.344,24.344,0,0,0-.873-5.15c-1.41-3.549-3.094-7-4.8-10.418a2.408,2.408,0,0,0-1.84-.821c-2.337-.041-4.677.151-7.014.115a12.923,12.923,0,0,1-3.862-.532,2.911,2.911,0,0,1-1.37-4.848c2.969-3.715,5.778-7.593,9.958-10.271,1.357.57,1.815,1.826,2.219,3.043,1.147,3.451,2.125,6.961,3.355,10.381.688,1.912,1.812,3.662,2.618,5.538q1.821,4.239,3.458,8.556C1484.391,2579.759,1484.7,2581.122,1485.129,2582.578Zm-27.888,9.8c1.111,1.326,1.757,2.242,2.544,3.013,3.848,3.77,8.758,6.034,13.083,9.132a4.384,4.384,0,0,0,1.3.493,21.8,21.8,0,0,0,13.509-.16c3.627-1.231,7.265-2.472,10.766-4.009a13.826,13.826,0,0,0,4.732-3.388c3.342-3.813,4.1-8.844,6.4-13.868-4.488.267-8.4-.291-12.214.743a100.953,100.953,0,0,1-16.57,2.583,102.691,102.691,0,0,0-18.969,3.66C1460.422,2590.987,1459.091,2591.639,1457.241,2592.374Zm9.034-29.414a37.948,37.948,0,0,0,8.034-.39c-.594-2.29-1.1-4.264-1.752-6.757C1470.034,2557.978,1467.844,2559.589,1466.275,2562.96Z" transform="translate(-1454.37 -2550.949)" fill="#eb874f"/>
</svg>
