<svg xmlns="http://www.w3.org/2000/svg" width="112.196" height="112.196" viewBox="0 0 112.196 112.196">
  <g id="Group_40" data-name="Group 40" transform="translate(-992 -732)">
    <g id="Group_38" data-name="Group 38">
      <g id="facebook_share" transform="translate(992 732)">
        <circle id="Ellipse_1" data-name="Ellipse 1" cx="56.098" cy="56.098" r="56.098" transform="translate(0 0)" fill="#fc4f5a"/>
      </g>
    </g>
    <g id="bookmark" transform="translate(940.883 755.877)">
      <g id="Group_39" data-name="Group 39" transform="translate(86)">
        <path id="Path_111" data-name="Path 111" d="M126.221,0H88.514A2.514,2.514,0,0,0,86,2.514V61.839a2.514,2.514,0,0,0,4.377,1.688l16.99-18.756,16.99,18.756a2.514,2.514,0,0,0,4.377-1.688V2.514A2.514,2.514,0,0,0,126.221,0Zm-2.514,55.32L109.23,39.339a2.514,2.514,0,0,0-3.726,0L91.028,55.32V5.028h32.679Z" transform="translate(-86)" fill="#fff"/>
      </g>
    </g>
  </g>
</svg>
