<svg xmlns="http://www.w3.org/2000/svg" width="112.196" height="112.196" viewBox="0 0 112.196 112.196">
  <g id="Group_43" data-name="Group 43" transform="translate(-1050 -736)">
    <g id="Group_40" data-name="Group 40" transform="translate(58 4)">
      <g id="Group_38" data-name="Group 38">
        <g id="facebook_share" transform="translate(992 732)">
          <circle id="Ellipse_1" data-name="Ellipse 1" cx="56.098" cy="56.098" r="56.098" transform="translate(0 0)" fill="#fc4f5a"/>
        </g>
      </g>
    </g>
    <g id="chat" transform="translate(1070.479 759.763)">
      <g id="Group_42" data-name="Group 42" transform="translate(0 0)">
        <g id="Group_41" data-name="Group 41" transform="translate(0 0)">
          <path id="Path_112" data-name="Path 112" d="M6.425,48.125H21.417V37.416a6.432,6.432,0,0,1,6.425-6.425H66.678A6.432,6.432,0,0,1,73.1,37.416v25.7a6.432,6.432,0,0,1-6.425,6.425H64.536v6.425a2.144,2.144,0,0,1-3.33,1.782L51.686,71.4V80.25a6.432,6.432,0,0,1-6.425,6.425H24.207L11.9,94.882A2.143,2.143,0,0,1,8.567,93.1V86.675H6.425A6.432,6.432,0,0,1,0,80.25V54.55A6.432,6.432,0,0,1,6.425,48.125Zm44.313,17.5.006,0,9.508,6.339V67.4a2.142,2.142,0,0,1,2.142-2.142h4.283a2.144,2.144,0,0,0,2.142-2.142v-25.7a2.144,2.144,0,0,0-2.142-2.142H27.842A2.144,2.144,0,0,0,25.7,37.416v25.7a2.144,2.144,0,0,0,2.142,2.142h21.7A2.176,2.176,0,0,1,50.738,65.622ZM4.283,80.25a2.144,2.144,0,0,0,2.142,2.142h4.283a2.142,2.142,0,0,1,2.142,2.142V89.1l9.521-6.347a2.141,2.141,0,0,1,1.188-.36h21.7A2.144,2.144,0,0,0,47.4,80.25V69.541H27.842a6.432,6.432,0,0,1-6.425-6.425V52.408H6.425A2.144,2.144,0,0,0,4.283,54.55Z" transform="translate(0 -30.991)" fill="#fff"/>
        </g>
      </g>
    </g>
  </g>
</svg>
