<svg xmlns="http://www.w3.org/2000/svg" width="112.196" height="112.196" viewBox="0 0 112.196 112.196">
  <g id="Group_38" data-name="Group 38" transform="translate(-992 -732)">
    <g id="facebook_share" transform="translate(992 732)">
      <circle id="Ellipse_1" data-name="Ellipse 1" cx="56.098" cy="56.098" r="56.098" transform="translate(0 0)" fill="#e370de"/>
    </g>
    <path id="contact" d="M65.891-5.582H8.9A8.908,8.908,0,0,0,0,3.322V36.57a8.907,8.907,0,0,0,8.9,8.9H65.891a8.907,8.907,0,0,0,8.9-8.9V3.322A8.908,8.908,0,0,0,65.891-5.582ZM8.9-2.02H65.891a5.365,5.365,0,0,1,5.253,4.345L37.4,21.13,3.651,2.324A5.365,5.365,0,0,1,8.9-2.02ZM65.891,41.895H8.9a5.359,5.359,0,0,1-5.342-5.342V6.35L36.525,24.727a1.876,1.876,0,0,0,.873.232,1.688,1.688,0,0,0,.873-.232L71.233,6.35v30.2A5.347,5.347,0,0,1,65.891,41.895Zm0,0" transform="translate(1010.205 767.897)" fill="#fff"/>
  </g>
</svg>
