<svg xmlns="http://www.w3.org/2000/svg" xmlns:xlink="http://www.w3.org/1999/xlink" width="1920" height="13081.591" viewBox="0 0 1920 13081.591">
  <defs>
    <clipPath id="clip-path">
      <rect id="Rectangle_138" data-name="Rectangle 138" width="1920" height="13081.591" transform="translate(0 0.009)" fill="none"/>
    </clipPath>
  </defs>
  <g id="Group_150" data-name="Group 150" transform="translate(0 -0.009)" clip-path="url(#clip-path)">
    <line id="Line_6" data-name="Line 6" x2="62.015" transform="translate(1172.966 26.255)" fill="#ffb71e"/>
    <line id="Line_7" data-name="Line 7" x2="62.015" transform="translate(1172.966 26.255)" fill="none" stroke="#ffb71b" stroke-miterlimit="10" stroke-width="2"/>
    <path id="Path_88" data-name="Path 88" d="M1257.428,19.584h3.692V14.661h-4.139c-3.245,0-5.707,2.462-5.707,4.923v2.463h-3.691v4.922h3.691v9.845h4.923V26.969h3.692V22.047H1256.2V20.815a1.351,1.351,0,0,1,1.231-1.231" fill="#4a4f54"/>
    <path id="Path_89" data-name="Path 89" d="M1294.606,18.427h0c0,.414-.006.828,0,1.243a.662.662,0,0,0,.7.672q1.174,0,2.35,0a.679.679,0,0,0,.712-.706c0-.8,0-1.608,0-2.41a.67.67,0,0,0-.7-.709q-1.185-.009-2.37,0a.654.654,0,0,0-.692.678c-.01.409,0,.822,0,1.232m-11.953-3.765h.261a.209.209,0,0,1,.159.234c0,.037,0,.071,0,.105,0,.695-.005,1.393-.007,2.09,0,.764,0,1.532,0,2.3,0,.21,0,.42,0,.63,0,.127.056.183.181.186.172,0,.346-.01.518-.024a.192.192,0,0,0,.178-.172,1.163,1.163,0,0,0,.021-.2c0-.243,0-.486,0-.727q0-2.085,0-4.166c0-.147,0-.219.172-.259h10.105a.416.416,0,0,0,.071.008c.6,0,1.2,0,1.8,0a3.813,3.813,0,0,1,.9.1,4.361,4.361,0,0,1,2.329,1.439,4.138,4.138,0,0,1,.967,2,7.006,7.006,0,0,1,.084,1.219c.005.8,0,1.589,0,2.382,0,.125-.035.158-.159.161h-.079q-3.316,0-6.634,0a.491.491,0,0,1-.367-.145,5.473,5.473,0,0,0-.955-.729,5.531,5.531,0,0,0-3.968-.74,5.672,5.672,0,0,0-2.875,1.465.514.514,0,0,1-.374.148q-3.337,0-6.674,0c-.136,0-.168-.033-.168-.17,0-.2,0-.4,0-.6-.005-.841-.04-1.682.026-2.523a4.254,4.254,0,0,1,.371-1.467,4.676,4.676,0,0,1,1.44-1.729.215.215,0,0,1,.034-.014l0,.023q0,1.992,0,3.986c0,.183-.005.37,0,.551.006.125.058.179.181.179a4.9,4.9,0,0,0,.5-.024.192.192,0,0,0,.18-.193,1.654,1.654,0,0,0,.014-.214q0-2.253,0-4.505a.753.753,0,0,0-.005-.1c-.02-.151-.012-.168.123-.234a1.183,1.183,0,0,1,.42-.127c.108-.007.135.021.12.125a.768.768,0,0,0-.01.117l0,4.076c0,.3,0,.6,0,.892,0,.126.048.181.175.185a4.532,4.532,0,0,0,.481-.014c.149-.009.211-.077.232-.224a2.132,2.132,0,0,0,.015-.253q0-1.2.005-2.391c0-.79-.007-1.579-.011-2.369,0-.213.019-.24.21-.293" fill="#4a4f54"/>
    <path id="Path_90" data-name="Path 90" d="M1284.623,22.646a5.659,5.659,0,0,0-.978,4.208,5.5,5.5,0,0,0,1.853,3.358,5.658,5.658,0,0,0,7.167.277,5.523,5.523,0,0,0,2.2-3.669,5.667,5.667,0,0,0-.986-4.174h.081q2.771,0,5.54,0h.613a.9.9,0,0,1,.116.006.154.154,0,0,1,.156.153c.009.128.01.256.01.384,0,.925,0,1.85,0,2.774,0,2.255,0,4.51-.006,6.765a4.165,4.165,0,0,1-1.151,2.879,4.271,4.271,0,0,1-2.424,1.349,4.14,4.14,0,0,1-.737.068c-4.523.005-9.046.015-13.569,0a4.328,4.328,0,0,1-4.227-3.309,4.82,4.82,0,0,1-.136-1.179q0-3.154,0-6.309c0-1.077-.005-2.154-.008-3.23a1.369,1.369,0,0,1,.008-.143.194.194,0,0,1,.209-.2c.143,0,.287,0,.43,0q2.874,0,5.75,0Z" fill="#4a4f54"/>
    <path id="Path_91" data-name="Path 91" d="M1292.516,26a3.231,3.231,0,1,0-3.139,3.187A3.218,3.218,0,0,0,1292.516,26m-3.233-4.438a4.386,4.386,0,1,1-4.411,4.38,4.387,4.387,0,0,1,4.411-4.38" fill="#4a4f54"/>
    <path id="Path_92" data-name="Path 92" d="M1358.83,19.6l0-1.957-.87-2.783-.871-2.784.707-.02a2.1,2.1,0,0,1,.751.049c.024.039.249.848.5,1.8s.472,1.729.491,1.729.2-.641.411-1.427.423-1.592.481-1.8l.1-.37h.743c.6,0,.735.019.7.1-.021.054-.42,1.32-.888,2.815l-.851,2.718v3.882h-1.409ZM1367,21.522a.988.988,0,0,1-.316-.367c-.124-.248-.135-.5-.154-3.491l-.021-3.224h1.346v2.951c0,2.525.014,2.963.1,3.037.157.13.41.035.7-.26l.255-.263V14.44h1.339v7.117h-1.339V20.84l-.335.3a2.684,2.684,0,0,1-.561.393,1.406,1.406,0,0,1-1.015-.009m-3.13-1.066c.288-.111.32-.352.32-2.416a13.127,13.127,0,0,0-.079-2.148.547.547,0,0,0-.969,0,13.127,13.127,0,0,0-.079,2.148c0,2.3.029,2.436.54,2.455a.819.819,0,0,0,.267-.039m-.878,1.1a1.586,1.586,0,0,1-.71-.483c-.5-.538-.523-.7-.523-3.079,0-2.294.035-2.511.5-3.049a1.97,1.97,0,0,1,2.78.041c.424.514.459.744.459,3.044a8.394,8.394,0,0,1-.127,2.442,1.924,1.924,0,0,1-1.181,1.111,1.611,1.611,0,0,1-1.194-.027" fill="#4a4f54"/>
    <path id="Path_93" data-name="Path 93" d="M1357.779,30.329V26.277h1.551V24.939h-4.44v1.338h1.48v8.106h1.409Zm12.122-.848c0-.876.224-1.173.79-1.049.283.061.406.38.406,1.049v.533h-1.2Zm1.479,4.825a1.787,1.787,0,0,0,1.041-1.774l.036-.617h-1.36v.419c0,.513-.079.735-.316.892a.52.52,0,0,1-.757-.254,2.418,2.418,0,0,1-.123-1.075v-.828h2.537V30.034c0-1.3-.1-1.717-.541-2.2a1.693,1.693,0,0,0-1.432-.592,1.747,1.747,0,0,0-1.235.46c-.6.527-.688.993-.653,3.372a7.984,7.984,0,0,0,.15,2.19,1.816,1.816,0,0,0,.906,1.012,2.32,2.32,0,0,0,1.748.035m-5.937-1.137-.265-.153V28.693l.313-.166c.254-.133.351-.152.511-.1.348.123.385.39.361,2.59l-.022,1.962-.2.17c-.242.208-.361.211-.7.015m1.681,1.148a1.322,1.322,0,0,0,.388-.474c.166-.336.169-.382.192-2.665.025-2.5-.015-2.956-.309-3.464a1.129,1.129,0,0,0-.853-.521,1.751,1.751,0,0,0-1.018.48l-.345.308V24.939h-1.269v9.444h1.269v-.652l.289.261a2.439,2.439,0,0,0,.511.36,1.5,1.5,0,0,0,1.145-.035m-6.443.024a3.161,3.161,0,0,0,.524-.4l.309-.285v.724h1.339V27.336h-1.339v5.373l-.307.309c-.33.33-.465.372-.639.2-.1-.1-.111-.468-.111-3V27.336h-1.338v3.052c0,3.368.027,3.634.406,3.917a1.369,1.369,0,0,0,1.156.036m-1.694,2.785c-3.443-.113-4.375-.358-5.009-1.315a5.61,5.61,0,0,1-.635-1.913,36.029,36.029,0,0,1,.144-8.809,2.757,2.757,0,0,1,2.673-2.4c1.473-.151,5.317-.233,9.054-.194a44.383,44.383,0,0,1,6.622.3c1.344.337,2,1.326,2.224,3.377.043.388.1,1.739.117,3.007.088,5.11-.3,6.736-1.763,7.455a5.665,5.665,0,0,1-2.479.427c-1.7.1-8.631.141-10.948.064" fill="#4a4f54"/>
    <path id="Path_94" data-name="Path 94" d="M1327.419,14.662c-6.142,0-9.239,4.4-9.239,8.074,0,2.225.842,4.2,2.648,4.941a.445.445,0,0,0,.647-.325c.06-.226.2-.8.264-1.038a.624.624,0,0,0-.186-.718,3.734,3.734,0,0,1-.853-2.536,6.123,6.123,0,0,1,6.365-6.192c3.47,0,5.377,2.121,5.377,4.954,0,3.728-1.649,6.872-4.1,6.872a2,2,0,0,1-2.04-2.489c.388-1.639,1.14-3.4,1.14-4.588a1.729,1.729,0,0,0-1.743-1.938c-1.383,0-2.493,1.427-2.493,3.343a4.971,4.971,0,0,0,.413,2.046l-1.663,7.044a14.488,14.488,0,0,0-.039,4.912.172.172,0,0,0,.307.076,13.819,13.819,0,0,0,2.334-4.232c.158-.574.909-3.554.909-3.554a3.7,3.7,0,0,0,3.158,1.614c4.155,0,6.974-3.789,6.974-8.861,0-3.835-3.247-7.4-8.183-7.4" fill="#4a4f54"/>
    <path id="Path_95" data-name="Path 95" d="M388.178,96.323a10.078,10.078,0,0,0,2.432-.08l2.655-.165c.824-.008,1.647-.006,2.471-.009.352,0,.705.009,1.054-.014,1.172-.081,2.343-.174,3.513-.262.708-.054,1.416-.1,2.121-.158.55-.041,1.1-.091,1.65-.131.884-.066,1.767-.145,2.654-.182.643-.023,1.29.012,1.937.015a2.128,2.128,0,0,0,.374-.03c.346-.055,2.055-.082,2.558-.119,1.2-.089,10.673-.055,11.268-.065,1.5-.019,3-.05,4.5-.052,1.1,0,2.205.037,3.305.051.729.009,1.46.009,2.188,0,.188,0,.374-.077.562-.085,1.187-.039,2.375-.083,3.562-.1a40.853,40.853,0,0,0,4.228.095,25.347,25.347,0,0,1,3.631.071c.687.109,3.715-.011,4.529-.011.942,0,1.875.153,2.837.091,1.264-.08,2.545-.018,3.816.024,1,.035,2,.131,2.991.2a3.114,3.114,0,0,0,.421-.006c.435-.025.869-.094,1.3-.08.941.03,1.882.129,2.824.144.525.009,1.05-.143,1.576-.143,1.2,0,2.393.052,3.589.09a9.488,9.488,0,0,0,1.183.073,9.93,9.93,0,0,1,1.952-.179,4.894,4.894,0,0,0,.711-.079c.421-.021.843-.037,1.265-.022.291.008.578.094.868.106,1.025.042,2.05.067,3.074.1.119,0,.241.019.363.019.529,0,1.061.028,1.589-.007.577-.037,1.151-.161,1.728-.192.391-.02.79.075,1.185.081a27.082,27.082,0,0,1,2.894.03c.847.1,1.618-.221,2.492-.1a29.044,29.044,0,0,0,3.662.005c1.434.019,2.864.093,4.293.137.467.012.934.035,1.4.011.826-.043,1.651-.111,2.476-.179,1.461-.122,2.923-.258,4.386-.372.675-.052,1.352-.1,2.029-.09.613.009,1.228.157,1.84.149.9-.01,1.812-.172,2.714-.143,1.283.041,2.559.207,3.842.3.693.047,1.386.046,2.079.069.947.029,1.894.067,2.844.088.4.01.79-.04,1.186-.026.553.022,1.1.1,1.654.118.686.022,1.376,0,2.063.008.274,0,.545.084.817.084.685,0,1.374-.03,2.063-.032.734,0,1.466.036,2.2.028.986-.012,1.973-.073,2.961-.083,1.209-.012,2.418.013,3.628.008.991,0,1.984-.034,2.977-.037.739,0,1.478.022,2.216.027.632.005,1.266,0,1.9,0,.213,0,.426.02.637.014.711-.018,1.423-.067,2.132-.057.643.01,1.287.075,1.928.126a17.173,17.173,0,0,1,2.037.077,6.719,6.719,0,0,0,1.587.07s22.475.506,25.774.141c.371-.041.754-.077,1.134-.1.162-.009.331.048.495.049,1.585.023,3.173.05,4.758.05.744,0,1.493-.053,2.236-.09.549-.028,1.1-.075,1.643-.1.912-.037,1.825-.053,2.735-.092,1.258-.054,2.516-.126,3.773-.186,0,0,.612.024.218-.542-.589-.685-1.181-1.368-1.768-2.055-.2-.229-1.7-2.147-1.893-2.47-.411-.686-.837-1.364-1.248-2.052-.364-.611-.666-1.253-1.076-1.836-.615-.87-1.3-1.7-1.95-2.553-1.027-1.356-2.048-2.711-3.058-4.077-.652-.884-1.227-1.819-1.933-2.664a28.666,28.666,0,0,0-2.658-2.637c-.891-.459-.97-.94-.255-1.6.025-.02.05-.044.074-.065a12.225,12.225,0,0,0,1.3-1.226c.578-.727,1.066-1.516,1.59-2.281.809-1.181,1.592-2.373,2.425-3.536.76-1.061,1.562-2.093,2.367-3.124.435-.554.915-1.079,1.373-1.619q1.027-1.213,2.057-2.429c.577-.684,1.18-1.35,1.733-2.048.979-1.24,1.929-2.5,2.886-3.753.046-.06.027-.162.039-.246-.849-.075-1.657-.193-2.468-.205-1.07-.016-2.145.046-3.217.084-.635.021-1.271.055-1.9.1-.689.046-1.375.166-2.063.157-1.218-.017-2.433-.146-3.651-.151-1.151,0-2.3.084-3.453.136q-1.383.063-2.766.139l-17.823-.1c-.788-.063-1.577-.13-2.368-.193-.914-.077-3.243-.145-3.491-.155-.519-.023-3.487,0-4.449.062a14.2,14.2,0,0,1-1.44.071c-.6-.02-5.419-.185-5.917-.252-.4-.053-2.2-.22-2.7-.214-.473.006-1.982.125-2.261.1-.755-.064-5.076.211-6.544.044-.884-.1-5.59.423-7.031.53-.343.027-2.94.055-3.888.094-.651.027-3.67-.074-4.565.029-.922.107-1.918-.228-2.917-.131-.764.077-1.547.01-2.322.02-.286,0-1.486-.08-1.8-.094-1.364-.044-2.729-.063-4.094-.1-.29-.009-.58-.085-.871-.088-.984-.013-1.973-.005-2.961-.005-.35,0-.7-.008-1.053.008-.38.018-.756.077-1.135.083-.858.012-1.715,0-2.573,0-.314,0-.628.007-.94-.017-1.151-.083-2.3-.18-3.45-.259-.144-.01-1.608-.049-2.212-.022-1.041.047-2.089,0-3.132-.017-.236-.005-.472-.06-.705-.052-.418.013-3.323.177-4.37.111s-2.081.049-3.124.063c-.412,0-.825-.047-1.239-.071-.344-.022-.687-.058-1.031-.056-.23,0-5.332.082-5.925-.007a12.555,12.555,0,0,0-2.3.048c-.33.013-5.35.282-5.419.28-.709-.024-1.42-.054-2.129-.066-.613-.012-2.839.178-3.278.147-.944-.067-5.375-.242-5.8-.256-.322-.012-5.047.089-5.434.153-.235.041-2.028.019-2.583,0-.743-.033-2.538.013-2.693.011-.379,0-.76-.013-1.139-.011-.526,0-1.048.008-1.574.016a1.8,1.8,0,0,0-.423.014c-.579.138-1.186-.028-1.774.17a4.3,4.3,0,0,1-1.128.1c-.548.031-1.1.082-1.646.067-.744-.021-3.14.008-3.524.03-.645.034-1.295.025-1.943.034-.094,0-.19-.022-.285-.023-.768-.011-1.54-.031-2.311-.026-.626,0-1.249.037-1.876.047-.455.009-.911-.023-1.365,0-.4.024-1.858.08-2.179.083-.787.01-8.082.583-9.5.552-.315-.007-2.57.043-3.381.033-.569-.006-7.431.086-8.823.092-.7,0-1.4-.018-2.1.017-.725.036-1.446.111-2.165.193-.5.057-1,.144-1.491.244-.246.047-.411.208-.256.439.176.268.411.5.61.762.382.487.754.984,1.136,1.475.451.578.916,1.149,1.361,1.732.463.6.911,1.218,1.363,1.829.226.31.427.635.677.929.237.278,1.565,2.074,2.015,2.68.289.388,2.046,2.285,2.532,2.906.724.926,1.427,1.866,2.151,2.791.281.357.6.693.894,1.047.193.235.363.488.571.714.118.128.31.2.432.326.358.368.671.773,1.053,1.118s.841.637,1.252.966a.427.427,0,0,1,.153.295,3.12,3.12,0,0,1-.931,2.1c-.217.249-3.65,5.309-4,5.783-.773,1.044-1.54,2.09-2.319,3.131l-2.606,3.217c-.6.8-1.221,1.6-1.875,2.362-.553.649-1.176,1.244-1.745,1.877-.673.746-1.333,1.5-1.973,2.264-.251.3-.48.608-.732.95,0,0-.651.575.168.628" fill="#e36386" fill-rule="evenodd"/>
    <path id="Path_96" data-name="Path 96" d="M420.724,63.214a11.6,11.6,0,0,1,6.223,1.474,5.782,5.782,0,0,1,2.686,5.011,4.693,4.693,0,0,1-2.882,4.421,5.434,5.434,0,0,1,3.832,5.208,6.291,6.291,0,0,1-4.1,5.9,16.423,16.423,0,0,1-6.026.917H414.7V63.214Zm-1.343,9.335h1.31c2.686,0,4.258-.885,4.258-2.687a2.512,2.512,0,0,0-.982-2.129,6.891,6.891,0,0,0-3.669-.588h-.917Zm0,9.662h1.081a9.165,9.165,0,0,0,3.8-.491,2.337,2.337,0,0,0,1.31-2.292c0-1.9-1.244-3.079-3.57-3.079h-2.62Z" fill="#fff"/>
    <path id="Path_97" data-name="Path 97" d="M449.116,86.142l-1.474-4.259h-8.155l-1.54,4.259h-5.208l9.368-22.929h3.8l8.614,22.929Zm-8.254-8.091h5.47l-2.653-7.7h-.033Z" fill="#fff"/>
    <path id="Path_98" data-name="Path 98" d="M463.488,63.214a11.6,11.6,0,0,1,6.223,1.474A5.782,5.782,0,0,1,472.4,69.7a4.692,4.692,0,0,1-2.881,4.421,5.435,5.435,0,0,1,3.832,5.208,6.293,6.293,0,0,1-4.1,5.9,16.426,16.426,0,0,1-6.026.917h-5.765V63.214Zm-1.342,9.335h1.31c2.685,0,4.258-.885,4.258-2.687a2.515,2.515,0,0,0-.982-2.129,6.893,6.893,0,0,0-3.669-.588h-.917Zm0,9.662h1.081a9.162,9.162,0,0,0,3.8-.491,2.338,2.338,0,0,0,1.311-2.292c0-1.9-1.245-3.079-3.57-3.079h-2.62Z" fill="#fff"/>
    <path id="Path_99" data-name="Path 99" d="M482.546,86.141v-9.6l-7.3-13.331h5.83l3.963,8.255h.066l4.323-8.255h5.47L487.23,76.676v9.465Z" fill="#fff"/>
    <path id="Path_100" data-name="Path 100" d="M513.685,86.141V63.213h2.424v20.7h10.219v2.227Z" fill="#fff"/>
    <path id="Path_101" data-name="Path 101" d="M529.86,86.141V63.213h13.331v2.229H532.284v7.729h10.907V75.4H532.284v8.516h10.907v2.227Z" fill="#fff"/>
    <path id="Path_102" data-name="Path 102" d="M548.851,63.214h5.961c5.8,0,12.185,3.079,12.185,11.365,0,8.484-6.354,11.563-12.512,11.563h-5.634Zm3.767,20.7c7.075,0,11.792-2.129,11.792-9.039,0-6.19-3.767-9.435-10.22-9.435h-2.915V83.914Z" fill="#fff"/>
    <path id="Path_103" data-name="Path 103" d="M506.685,73.236a2.9,2.9,0,0,0,.3-1.764c-.123-1.186-.808-1.543-1.9-1.078a2.579,2.579,0,0,0-1.737,2.464c0,.677-.193,1.147-.846,1.233-.819.107-.725-.622-.93-1.126a9.057,9.057,0,0,0-1.127-2.049,1.9,1.9,0,0,0-2.329-.148c-.626.511-.3,1.128-.128,1.7a2.961,2.961,0,0,0,.4.738c1.018,1.539,2.043,3.074,3.124,4.7m.832-7.1a4.433,4.433,0,0,1,4.07-2.13c1.2.048,1.55.314,1.953,1.462.76,2.156-.027,3.9-1.493,5.386-1.5,1.525-3.1,2.958-4.684,4.4-.66.6-1.6.5-1.821-.278-.765-2.67-2.893-4.567-3.879-7.112-.68-1.754-.329-2.811,1.422-3.4a3.376,3.376,0,0,1,4.432,1.677" fill="#ffb71b"/>
    <path id="Path_104" data-name="Path 104" d="M429.75,102.613h-9.383a.3.3,0,0,0-.3.3v16.928a.3.3,0,0,0,.3.3h3.458a.3.3,0,0,0,.3-.3v-6.517h5.623a.3.3,0,0,0,.3-.3V110.1a.3.3,0,0,0-.3-.3h-5.623v-3.652h5.623a.3.3,0,0,0,.3-.3v-2.926a.3.3,0,0,0-.3-.3" fill="#e36386"/>
    <path id="Path_105" data-name="Path 105" d="M450.645,102.613H439.786a.3.3,0,0,0-.3.3v16.928a.3.3,0,0,0,.3.3h10.859a.3.3,0,0,0,.3-.3v-2.926a.3.3,0,0,0-.3-.3h-7.1v-3.725h7.1a.3.3,0,0,0,.3-.3v-2.926a.3.3,0,0,0-.3-.3h-7.1v-3.215h7.1a.3.3,0,0,0,.3-.3v-2.926a.3.3,0,0,0-.3-.3" fill="#e36386"/>
    <path id="Path_106" data-name="Path 106" d="M471.926,102.613H461.068a.3.3,0,0,0-.3.3v16.928a.3.3,0,0,0,.3.3h10.858a.3.3,0,0,0,.3-.3v-2.926a.3.3,0,0,0-.3-.3h-7.1v-3.725h7.1a.3.3,0,0,0,.3-.3v-2.926a.3.3,0,0,0-.3-.3h-7.1v-3.215h7.1a.3.3,0,0,0,.3-.3v-2.926a.3.3,0,0,0-.3-.3" fill="#e36386"/>
    <path id="Path_107" data-name="Path 107" d="M493.749,104.576a10.8,10.8,0,0,0-6.467-1.962h-4.933a.3.3,0,0,0-.3.3v16.929a.3.3,0,0,0,.3.3h4.716a11.136,11.136,0,0,0,6.675-1.981,8.191,8.191,0,0,0,3.131-6.858,8.046,8.046,0,0,0-3.122-6.732m-7.64,1.569h.762c3.673,0,5.7,1.91,5.7,5.381,0,3.426-2.085,5.091-6.373,5.091h-.085Z" fill="#e36386"/>
    <path id="Path_108" data-name="Path 108" d="M510.353,102.613h-3.458a.3.3,0,0,0-.3.3v16.928a.3.3,0,0,0,.3.3h3.458a.3.3,0,0,0,.3-.3V102.917a.3.3,0,0,0-.3-.3" fill="#e36386"/>
    <path id="Path_109" data-name="Path 109" d="M535.722,102.613h-3.458a.3.3,0,0,0-.3.3v9.7l-7.29-9.879a.306.306,0,0,0-.243-.123h-3.047a.3.3,0,0,0-.3.3v16.928a.3.3,0,0,0,.3.3h3.458a.3.3,0,0,0,.3-.3v-9.669l7.217,9.847a.3.3,0,0,0,.244.123h3.12a.3.3,0,0,0,.3-.3V102.917a.3.3,0,0,0-.3-.3" fill="#e36386"/>
    <path id="Path_110" data-name="Path 110" d="M562.42,109.771H554.9a.3.3,0,0,0-.3.3V113a.3.3,0,0,0,.3.3h3.761v2.106a5.507,5.507,0,0,1-3.616,1.4c-3,0-5.018-2.182-5.018-5.43a5.12,5.12,0,0,1,5.018-5.428,6,6,0,0,1,4.487,2.288.3.3,0,0,0,.427.031l2.4-2.079a.3.3,0,0,0,.03-.427,9.374,9.374,0,0,0-7.339-3.441,9.1,9.1,0,0,0-9.323,9.056c0,5.248,3.921,9.057,9.323,9.057a9.2,9.2,0,0,0,7.619-3.58.306.306,0,0,0,.059-.18v-6.6a.3.3,0,0,0-.3-.3" fill="#e36386"/>
    <path id="Path_111" data-name="Path 111" d="M538.267,31a31.5,31.5,0,0,1-4.739,8.379c-1.319,1.687-3.021,1.635-4.458.032a19.593,19.593,0,0,1-1.416-2.055c-1.114,1.89-2.191,3.91-4.813,3.742-2.524-.161-3.681-1.927-4.491-4.3-.945,1.341-1.754,2.571-2.653,3.734a14.209,14.209,0,0,1-2.025,2.189c-1.814,1.527-3.721,1.343-4.881-.733a12.474,12.474,0,0,1-1.574-4.9c-.213-2.617.085-5.273.1-7.914a4.416,4.416,0,0,0-.527-1.414c-.505.2-1.312.275-1.465.631a43.87,43.87,0,0,0-2.384,6.384,47.589,47.589,0,0,0-.535,5.343c-.141,1.041.088,2.432-1.671,2.488-1.216.039-1.868-.426-2-1.666-.211-1.97-.479-3.931-.73-5.951-1.849.626-3.09,1.485-2.939,3.572a6.673,6.673,0,0,1-.481,2.025c-.388,1.446-1.19,2.666-2.7,2.9a4.1,4.1,0,0,1-3.746-1.784c-1.608-1.934-2.015-4.291-2.274-6.761h-1.867c-.536,2.035-1.013,4-1.58,5.94-.427,1.461-1.289,2.49-3,2.359-1.682-.129-2.507-1.309-3.091-2.681a18.686,18.686,0,0,1-.657-2.38c-.735,1.282-1.291,2.443-2.019,3.483a2.909,2.909,0,0,1-5.054-.184,9.485,9.485,0,0,1-1.114-4.566c.179-3.372.743-6.725,1.246-10.074.065-.431.758-1.139,1.042-1.087a1.871,1.871,0,0,1,1.285,1.071,12.345,12.345,0,0,1,.238,3.1c-.032,2.988-.138,5.975-.17,8.961a3.045,3.045,0,0,0,.363,1.435c.363.661,1,.855,1.333.039,1.146-2.78,2.93-5.379,2.582-8.612-.075-.7-.173-1.452.851-1.568.995-.112,1.723.275,1.843,1.294.226,1.931.324,3.876.523,5.811a16.874,16.874,0,0,0,.468,2.645c.1.382.432.9.743.974a1.224,1.224,0,0,0,1.037-.6c.555-1.623,1.033-3.276,1.424-4.946.069-.292-.359-.758-.64-1.067a8.512,8.512,0,0,1-2.329-5.383c-.051-.925.024-1.847,1.129-2.183a1.792,1.792,0,0,1,2.293,1.19,40,40,0,0,1,1.184,4.6,5.73,5.73,0,0,1,.08.732c1.746.458,2.157.225,2.428-1.51a7.068,7.068,0,0,1,2.3-4.41,2.322,2.322,0,0,1,3.216-.2c2.523,1.591,2.731,4.24,3.266,6.752,1.776,0,2.565-.9,2.223-2.548-.172-.829-.4-1.646-.6-2.468-.326-1.3.255-1.934,1.552-1.617a3.964,3.964,0,0,1,3.005,2.834c.169.553.273,1.124.42,1.742,1.668-2.279,2.027-5.742,5.61-5.778.954-2.715,1.833-5.354,2.814-7.955a3.882,3.882,0,0,1,2.669-2.616c1.61-.421,2.962.254,3.017,1.911a15.79,15.79,0,0,1-.639,5.442c-1.121,3.342-2.539,6.592-3.958,9.826-1.222,2.786-.755,5.567-.239,8.357.142.769.858.874,1.393.362,2.6-2.486,5.113-5.06,5.789-8.8.515-2.845,1.92-4.958,4.762-5.758a13.386,13.386,0,0,1,3.437-.046,37.885,37.885,0,0,1,.028-4.292c.312-2.7.737-5.4,1.223-8.079a2.091,2.091,0,0,1,2.465-1.841c1.36.152,2.733.724,2.915,2.154a17.619,17.619,0,0,1-.129,5.458,73.234,73.234,0,0,1-2.242,8.529,15.95,15.95,0,0,0-.124,8.123,5.781,5.781,0,0,0,1.044,1.694,6.988,6.988,0,0,0,1.579-1.188c1.593-2.143,3.1-4.352,4.639-6.54Zm-16.778,2.415c.318,1.783.5,3.261.879,4.69a2.093,2.093,0,0,0,1.143,1.331c.329.095,1.016-.521,1.326-.969a11.975,11.975,0,0,0,2.076-8.052c-.084-1,0-2.1-1.326-2.321-1.258-.209-2.517,0-3.027,1.306a33.388,33.388,0,0,0-1.071,4.015M489.63,32.091a11.247,11.247,0,0,0-.676,3.122,19.24,19.24,0,0,0,1.18,5.458c.724,1.655,2.325,1.506,2.958-.16a16.749,16.749,0,0,0,.711-3.64.939.939,0,0,0-.486-.762c-1.8-.577-2.825-1.906-3.687-4.018m24.924-15.5c-1.579,1.32-3.906,11.011-3.349,13.294a2.915,2.915,0,0,0,.38-.474,31.921,31.921,0,0,0,3.3-11.1,6.76,6.76,0,0,0-.334-1.724m16.963-2.013c-1.515,1.239-2.406,8-1.689,10.857a20.406,20.406,0,0,0,1.689-10.857M493.5,34.141c.158-.064.317-.124.476-.188q-.762-2.211-1.523-4.425c-1.066,2.237-.564,3.8,1.047,4.613m-11.869-5.8-.816.169.943,3.542c.181-.048.363-.095.544-.141q-.336-1.784-.671-3.57" fill="#e36386"/>
    <path id="Path_112" data-name="Path 112" d="M437.277,31.84c.261-.4.517-.8.782-1.192a23.536,23.536,0,0,1,1.513-2.222c.966-1.148,2.125-2.131,3.75-1.517s1.875,2.077,1.776,3.607c-.134,2.041-.345,4.077-.465,6.119a18.7,18.7,0,0,0,.208,2.394,12,12,0,0,0,1.352-1.259c1.433-1.975,2.759-3.917,2.95-6.558a13.832,13.832,0,0,1,1.719-5.19c1.056-2.018,4.344-2.063,5.75-.246a1.9,1.9,0,0,1-.134,2.718c-1.011.926-2.249,1.6-3.341,2.442-.38.291-.938.82-.878,1.14a82.258,82.258,0,0,0,1.858,8.546c.406,1.366,1.619,1.383,2.516.154.969-1.326,1.745-2.789,2.64-4.169,1.31-2.015,2.653-4.009,3.981-6.013.178.1.355.2.534.3-1.81,3.639-3.436,7.384-5.486,10.883-1.7,2.9-6.4,2.465-7.958-.574-.673-1.309-1.1-2.741-1.671-4.194-.65.832-1.306,1.741-2.036,2.587s-1.742,1.738-2.827,1.154a3.742,3.742,0,0,1-1.871-2.41c-.216-2.715-.047-5.461,0-8.2a8.641,8.641,0,0,0,.034-1.77c-2.395,2.562-4.625,5.177-4.718,8.93-.015.647-.062,1.3-.019,1.946.1,1.442-.723,1.9-1.985,2.05-1.488.177-1.416-.88-1.561-1.81-.126-.821-.267-1.64-.467-2.866-.451.737-.7,1.188-.99,1.61-.961,1.4-1.842,2.858-2.93,4.147-1.751,2.075-4.282,1.952-5.528-.478a12.733,12.733,0,0,1-1.3-5.425c-.054-3.029.356-6.067.573-9.1.033-.438.087-.872.137-1.359a8.452,8.452,0,0,1-1.971-.033,8.756,8.756,0,0,1-1.825-1c4.272-.785,4.27-.786,5.16-4.83a7.659,7.659,0,0,1,.494-1.87c.259-.5.986-1.286,1.151-1.208.678.325,1.572.842,1.736,1.457a15.026,15.026,0,0,1,.077,3.585c.851-.26,1.546-.474,2.242-.683s1.38-.411,2.07-.616l.254.375a4.278,4.278,0,0,1-.853.834,12.473,12.473,0,0,1-1.4.478c-2.155.854-3.42,2.227-3.389,4.771.052,4.233-.156,8.465-.192,12.7,0,.468.411.941.631,1.412.454-.257,1.071-.4,1.336-.789,1.4-2.058,2.755-4.153,4.026-6.292a3.488,3.488,0,0,0,.151-1.747c-.155-4.608-.084-9.2,1.427-13.62.61-1.789,1.255-3.6,3.146-4.54,1.372-.677,2.865-.329,3.3,1.126a7.181,7.181,0,0,1,.184,3.917c-1.024,3.377-2.379,6.654-3.572,9.98-.259.72-.388,1.484-.575,2.229.161.063.323.122.485.185m-.545-5.364.423.116c.854-2.672,1.785-5.324,2.523-8.029a2.537,2.537,0,0,0-.793-2.925c-1.705,1.559-2.605,6.205-2.153,10.838M452.6,29.041l2.933-2.318c-2-1.6-2.747-.31-2.933,2.318" fill="#e36386"/>
    <path id="Path_113" data-name="Path 113" d="M567.748,30.793c-.823,3.179-2.672,4.52-5.728,4-.023.135-.106.295-.06.4,1.575,3.461,1.688,7.134,1.577,10.839-.09,3.019-1.951,4.547-4.686,3.754a3.485,3.485,0,0,1-1.62-1.18c-2.045-2.621-2.6-5.779-3.023-8.955-.19-1.421-.259-2.86-.383-4.293a2.557,2.557,0,0,0-2.38,2.834,9.739,9.739,0,0,1-.547,2.469c-.37,1.4-1.2,2.763-2.594,2.747a6.023,6.023,0,0,1-3.64-1.582,7.669,7.669,0,0,1-2.277-5.7c-.026-3.132.047-6.333,2.628-8.729a2.316,2.316,0,0,1,3.322-.222c2.513,1.607,2.676,4.273,3.227,6.772,1.678-.15,2.1-.686,2.31-2.3a85.908,85.908,0,0,1,1.625-10.3,14.258,14.258,0,0,1,3.051-5.369,2.7,2.7,0,0,1,4.719,1.513,12.959,12.959,0,0,1-.552,5.421,34.664,34.664,0,0,1-3.194,6.217c-.513.863-.536,1.411.2,2.044.415.358.778.776,1.179,1.15,1.87,1.737,2.844,1.7,4.724-.009a19.473,19.473,0,0,1,2.121-1.51m-10.134,1.752a36.49,36.49,0,0,0,2.61,16.26c3.1-2.659,1.349-13.949-2.61-16.26m-11.764.016a9.175,9.175,0,0,0-.558,2.708,25.047,25.047,0,0,0,1.052,5.2,2.465,2.465,0,0,0,1.829,1.207c.417.041,1.15-.782,1.348-1.353a15.463,15.463,0,0,0,.622-3.359,1.07,1.07,0,0,0-.536-.867,7.039,7.039,0,0,1-3.757-3.541m12.061-4.636c2.924-3.439,4.41-6.871,3.641-11.462-.716.538-1.293.773-1.561,1.2-1.884,3.019-2.189,6.373-2.08,10.26m-7.492,6.408L548.7,29.138c-1.059,2.411-.47,4.276,1.717,5.195" fill="#e36386"/>
    <path id="Path_114" data-name="Path 114" d="M537.965,30.7a31.535,31.535,0,0,1-4.739,8.379c-1.319,1.687-3.021,1.635-4.458.031a19.47,19.47,0,0,1-1.416-2.054c-1.114,1.89-2.191,3.909-4.813,3.742-2.524-.162-3.681-1.928-4.492-4.3-.944,1.342-1.753,2.572-2.652,3.734a14.072,14.072,0,0,1-2.025,2.189c-1.814,1.528-3.721,1.344-4.881-.732a12.484,12.484,0,0,1-1.574-4.9c-.213-2.617.084-5.272.094-7.913a4.4,4.4,0,0,0-.526-1.415c-.505.2-1.313.276-1.465.631a43.838,43.838,0,0,0-2.384,6.385,47.6,47.6,0,0,0-.535,5.343c-.141,1.041.088,2.431-1.671,2.488-1.216.038-1.868-.427-2-1.667-.211-1.969-.479-3.931-.73-5.95-1.849.626-3.09,1.485-2.94,3.572a6.635,6.635,0,0,1-.48,2.024c-.388,1.448-1.19,2.666-2.7,2.9A4.1,4.1,0,0,1,487.83,41.4c-1.608-1.934-2.015-4.291-2.274-6.762h-1.867c-.536,2.035-1.013,4-1.58,5.94-.427,1.461-1.289,2.491-3,2.361-1.682-.13-2.507-1.31-3.091-2.682a18.7,18.7,0,0,1-.657-2.381c-.735,1.283-1.291,2.443-2.019,3.484a2.909,2.909,0,0,1-5.054-.184,9.489,9.489,0,0,1-1.114-4.567c.179-3.372.743-6.724,1.246-10.073.065-.431.758-1.139,1.042-1.087a1.87,1.87,0,0,1,1.285,1.072,12.322,12.322,0,0,1,.238,3.1c-.032,2.989-.138,5.976-.17,8.962a3.038,3.038,0,0,0,.363,1.434c.363.661,1,.855,1.333.04,1.146-2.78,2.93-5.379,2.582-8.612-.075-.7-.173-1.453.851-1.569.995-.112,1.723.277,1.843,1.294.226,1.932.324,3.876.523,5.812a16.883,16.883,0,0,0,.468,2.644c.1.383.432.9.743.974a1.222,1.222,0,0,0,1.037-.6c.555-1.623,1.033-3.275,1.424-4.945.069-.293-.359-.758-.64-1.067a8.52,8.52,0,0,1-2.329-5.383c-.051-.926.024-1.848,1.129-2.184a1.793,1.793,0,0,1,2.293,1.191,40.149,40.149,0,0,1,1.184,4.6,5.7,5.7,0,0,1,.08.731c1.746.459,2.157.225,2.428-1.508a7.065,7.065,0,0,1,2.3-4.411,2.321,2.321,0,0,1,3.215-.2c2.524,1.59,2.732,4.24,3.267,6.751,1.776,0,2.565-.9,2.223-2.548-.172-.829-.4-1.646-.6-2.467-.326-1.294.255-1.935,1.552-1.617a3.962,3.962,0,0,1,3.005,2.834c.169.552.273,1.124.42,1.742,1.668-2.28,2.027-5.743,5.61-5.779.953-2.715,1.833-5.352,2.814-7.954a3.885,3.885,0,0,1,2.669-2.618c1.61-.419,2.962.255,3.017,1.912a15.787,15.787,0,0,1-.639,5.442c-1.121,3.343-2.539,6.592-3.958,9.828-1.222,2.784-.755,5.565-.239,8.355.142.771.858.875,1.393.363,2.6-2.486,5.113-5.061,5.789-8.8.515-2.844,1.92-4.958,4.762-5.757a13.338,13.338,0,0,1,3.437-.048,37.885,37.885,0,0,1,.028-4.292c.312-2.7.737-5.4,1.223-8.078a2.092,2.092,0,0,1,2.465-1.842c1.36.152,2.733.725,2.915,2.155a17.619,17.619,0,0,1-.129,5.458,73.166,73.166,0,0,1-2.242,8.528,15.954,15.954,0,0,0-.124,8.124,5.807,5.807,0,0,0,1.044,1.694,6.988,6.988,0,0,0,1.579-1.188c1.593-2.144,3.1-4.353,4.638-6.54.137.072.275.142.412.211m-16.778,2.415c.318,1.783.5,3.261.879,4.69a2.1,2.1,0,0,0,1.143,1.331c.329.1,1.016-.522,1.326-.969a11.976,11.976,0,0,0,2.076-8.053c-.084-1,0-2.1-1.326-2.32-1.258-.21-2.517,0-3.027,1.307a33.277,33.277,0,0,0-1.071,4.014m-31.859-1.324a11.254,11.254,0,0,0-.676,3.123,19.255,19.255,0,0,0,1.18,5.458c.724,1.654,2.325,1.506,2.958-.16a16.772,16.772,0,0,0,.711-3.64.94.94,0,0,0-.486-.762c-1.8-.577-2.825-1.907-3.687-4.019m24.924-15.5c-1.579,1.32-3.906,11.012-3.349,13.294a2.874,2.874,0,0,0,.38-.474,31.924,31.924,0,0,0,3.3-11.095,6.759,6.759,0,0,0-.334-1.725m16.963-2.012c-1.515,1.24-2.406,8-1.689,10.856a20.4,20.4,0,0,0,1.689-10.856M493.2,33.838l.476-.187q-.762-2.211-1.523-4.425c-1.066,2.237-.564,3.8,1.047,4.612m-11.869-5.8c-.272.057-.544.111-.816.168l.943,3.542c.181-.048.363-.094.544-.141q-.336-1.782-.671-3.569" fill="#ffb71b"/>
    <path id="Path_115" data-name="Path 115" d="M436.975,31.538c.26-.4.517-.8.781-1.191a23.943,23.943,0,0,1,1.513-2.224c.967-1.147,2.125-2.13,3.75-1.517s1.876,2.079,1.776,3.608c-.134,2.041-.344,4.077-.464,6.118a18.737,18.737,0,0,0,.208,2.4,11.939,11.939,0,0,0,1.351-1.261c1.434-1.974,2.759-3.916,2.951-6.558a13.833,13.833,0,0,1,1.719-5.189c1.056-2.019,4.343-2.064,5.75-.246a1.9,1.9,0,0,1-.134,2.718c-1.011.926-2.249,1.6-3.342,2.441-.38.292-.937.82-.877,1.14a82.22,82.22,0,0,0,1.858,8.547c.406,1.366,1.619,1.382,2.515.154.969-1.326,1.745-2.789,2.641-4.169,1.31-2.015,2.653-4.01,3.981-6.014l.533.305c-1.81,3.638-3.437,7.383-5.485,10.883-1.7,2.9-6.4,2.464-7.96-.573-.672-1.309-1.1-2.743-1.669-4.195-.65.832-1.306,1.741-2.036,2.587s-1.743,1.737-2.827,1.153a3.739,3.739,0,0,1-1.871-2.41c-.217-2.714-.047-5.46,0-8.194a8.664,8.664,0,0,0,.033-1.772c-2.394,2.564-4.625,5.177-4.717,8.93-.016.647-.063,1.3-.019,1.946.1,1.444-.723,1.9-1.985,2.05-1.488.178-1.417-.88-1.561-1.81-.127-.82-.267-1.64-.467-2.865-.451.737-.7,1.188-.99,1.61-.961,1.394-1.843,2.858-2.93,4.146-1.751,2.075-4.283,1.952-5.529-.478a12.742,12.742,0,0,1-1.3-5.423c-.055-3.031.355-6.069.573-9.1.031-.437.087-.871.136-1.357a8.5,8.5,0,0,1-1.971-.034,8.91,8.91,0,0,1-1.824-1c4.272-.787,4.269-.787,5.16-4.831a7.622,7.622,0,0,1,.494-1.871c.259-.5.985-1.286,1.151-1.207.678.325,1.572.841,1.735,1.457a14.968,14.968,0,0,1,.077,3.584c.852-.259,1.547-.473,2.242-.682s1.381-.411,2.071-.616l.254.376a4.3,4.3,0,0,1-.853.833,12.47,12.47,0,0,1-1.4.477c-2.155.856-3.421,2.228-3.39,4.772.053,4.232-.156,8.465-.191,12.7,0,.468.41.941.63,1.411.455-.256,1.072-.4,1.336-.788,1.4-2.058,2.756-4.153,4.026-6.293a3.473,3.473,0,0,0,.152-1.747c-.156-4.608-.084-9.2,1.426-13.618.611-1.79,1.255-3.606,3.146-4.541,1.373-.677,2.866-.329,3.3,1.126a7.171,7.171,0,0,1,.183,3.917c-1.023,3.377-2.378,6.653-3.571,9.98-.259.719-.388,1.484-.577,2.229Zm-.546-5.364.424.116c.854-2.673,1.785-5.324,2.522-8.029a2.536,2.536,0,0,0-.792-2.925c-1.706,1.56-2.605,6.2-2.154,10.838M452.3,28.738c1.028-.811,1.96-1.55,2.934-2.317-2-1.6-2.747-.311-2.934,2.317" fill="#ffb71b"/>
    <path id="Path_116" data-name="Path 116" d="M567.446,30.491c-.824,3.179-2.672,4.52-5.728,4-.023.133-.107.294-.06.395,1.575,3.462,1.688,7.136,1.577,10.841-.09,3.018-1.951,4.545-4.686,3.753a3.473,3.473,0,0,1-1.62-1.18c-2.045-2.621-2.6-5.778-3.023-8.956-.19-1.42-.259-2.86-.383-4.293a2.558,2.558,0,0,0-2.38,2.834,9.746,9.746,0,0,1-.547,2.47c-.37,1.4-1.2,2.762-2.594,2.747a6.038,6.038,0,0,1-3.641-1.581,7.675,7.675,0,0,1-2.276-5.706c-.026-3.131.047-6.333,2.628-8.729a2.316,2.316,0,0,1,3.322-.222c2.513,1.608,2.676,4.273,3.227,6.771,1.677-.149,2.1-.685,2.31-2.3a85.924,85.924,0,0,1,1.625-10.3,14.273,14.273,0,0,1,3.051-5.369,2.7,2.7,0,0,1,4.719,1.514,12.959,12.959,0,0,1-.552,5.421,34.7,34.7,0,0,1-3.194,6.217c-.513.864-.536,1.412.2,2.043.415.359.778.776,1.179,1.151,1.87,1.737,2.844,1.7,4.724-.01a19.6,19.6,0,0,1,2.121-1.509m-10.134,1.752a36.488,36.488,0,0,0,2.61,16.259c3.1-2.658,1.349-13.947-2.61-16.259m-11.764.016a9.2,9.2,0,0,0-.559,2.708,25.09,25.09,0,0,0,1.053,5.2,2.457,2.457,0,0,0,1.829,1.207c.417.041,1.15-.781,1.348-1.352a15.473,15.473,0,0,0,.622-3.36,1.074,1.074,0,0,0-.536-.867,7.033,7.033,0,0,1-3.757-3.54m12.061-4.636c2.924-3.438,4.41-6.872,3.641-11.462-.716.537-1.293.773-1.561,1.2-1.884,3.018-2.189,6.373-2.08,10.26m-7.492,6.407L548.4,28.835c-1.059,2.411-.471,4.276,1.717,5.195" fill="#ffb71b"/>
  </g>
</svg>
