<svg xmlns="http://www.w3.org/2000/svg" width="48" height="44.706" viewBox="0 0 48 44.706">
  <g id="Group_44" data-name="Group 44" transform="translate(-496.166 -68.663)">
    <path id="Path_82" data-name="Path 82" d="M536.572,86.2c1.164-1.775,1.375-4.552,1.145-6.78-.473-4.548-3.1-5.924-7.307-4.145-4.13,1.756-6.669,4.929-6.673,9.473,0,2.6-.741,4.406-3.25,4.737-3.146.411-2.786-2.389-3.577-4.322a34.342,34.342,0,0,0-4.329-7.871c-1.736-2.278-6.742-2.378-8.943-.576-2.405,1.963-1.156,4.337-.492,6.546a11.32,11.32,0,0,0,1.556,2.835c3.911,5.912,7.848,11.809,12,18.043m0,0,3.2-27.275c3.93-5.77,9.047-8.436,15.635-8.182,4.609.181,5.95,1.206,7.5,5.616,2.916,8.286-.1,14.974-5.735,20.69-5.774,5.858-11.9,11.363-18,16.895-2.531,2.3-6.131,1.925-6.991-1.072-2.939-10.257-11.113-17.536-14.9-27.317-2.612-6.742-1.264-10.8,5.463-13.073,7.111-2.4,12.788-.7,17.025,6.442" transform="translate(0)" fill="#ffb71b"/>
  </g>
</svg>
