<svg xmlns="http://www.w3.org/2000/svg" width="35.661" height="35.661" viewBox="0 0 35.661 35.661">
  <g id="Group_167" data-name="Group 167" transform="translate(-965.593 -7214.574)">
    <path id="Path_18" data-name="Path 18" d="M1001.254,7232.4a17.831,17.831,0,1,1-17.831-17.831,17.83,17.83,0,0,1,17.831,17.831" fill="#e36386"/>
    <path id="Path_19" data-name="Path 19" d="M977.681,7232.871a.392.392,0,0,0,.293-.517l-.019-.072a3.043,3.043,0,0,0-.143-.447,34.48,34.48,0,0,0-2.606-4.821,1.787,1.787,0,0,1-.384-1.27.671.671,0,0,1,1.12-.472,4.758,4.758,0,0,1,1.29,1.636,16.872,16.872,0,0,0,2.571,3.482,2.348,2.348,0,0,0,.582.444.415.415,0,0,0,.67-.342,2.944,2.944,0,0,0,.011-.505c0-.045,0-.091,0-.136l.058,0-.009-.09q-.051-.5-.1-.995c-.074-.747-.152-1.52-.237-2.28-.061-.544-.129-1.087-.2-1.63s-.133-1.061-.193-1.591c-.062-.554.146-.982.52-1.068a1.091,1.091,0,0,1,1.3.746c.138.487.257.988.372,1.472l.09.378c.121.5.241,1.007.36,1.51q.313,1.321.634,2.636a2.8,2.8,0,0,0,.28.723c.164.287.348.353.472.357s.3-.044.476-.3a5.778,5.778,0,0,0,.633-1.192c.42-1.111.826-2.248,1.218-3.349l.338-.947a2.775,2.775,0,0,1,.59-1.1.711.711,0,0,1,.788-.244.75.75,0,0,1,.543.722,5.207,5.207,0,0,1-.17,1.651l-.045.213q-.21,1.019-.426,2.033c-.214,1.015-.436,2.063-.643,3.1a2.9,2.9,0,0,0,.227,2.256c.032.048.059.1.087.146a1.69,1.69,0,0,0,.121.2,1.088,1.088,0,0,0,1.708.335c.526-.347,1.052-.712,1.56-1.066l.387-.269a2.98,2.98,0,0,1,1.6-.6h.032a2.675,2.675,0,0,1,.567.014.771.771,0,0,1,.612.4.72.72,0,0,1-.116.68,2.662,2.662,0,0,1-.8.763,9.5,9.5,0,0,0-2.89,3.208,27.256,27.256,0,0,1-2.653,3.715,4.035,4.035,0,0,1-2.856,1.393,6.179,6.179,0,0,0-1.67.347,13.2,13.2,0,0,1-1.871.5,2.17,2.17,0,0,1-1.781-.416,5.938,5.938,0,0,1-1.487-1.658,13.565,13.565,0,0,1-1.419-2.987,8.432,8.432,0,0,0-1.234-2.435c-.55-.732-1.206-1.592-1.9-2.415a5.372,5.372,0,0,0-.647-.608c-.158-.134-.322-.271-.469-.418a4.135,4.135,0,0,1-.551-.723.4.4,0,0,1,.046-.544.383.383,0,0,1,.275-.124.477.477,0,0,1,.236.069,8.912,8.912,0,0,1,.825.5c.259.183.513.373.768.564.452.337.919.684,1.4.99a4.3,4.3,0,0,0,1.1.434l.244.071a.946.946,0,0,0,.521-.048m17.673-1.035a1.352,1.352,0,0,0-.885-.846,3.3,3.3,0,0,0-1.207-.142,4.2,4.2,0,0,0-2.042.818c-.222.147-.443.3-.663.45-.36.248-.733.5-1.107.742-.348.222-.384.2-.662-.133a2.028,2.028,0,0,1-.363-1.855q.174-.858.351-1.717.231-1.121.457-2.242c.038-.19.078-.381.116-.571.146-.714.3-1.449.406-2.18a1.7,1.7,0,0,0-.656-1.787,1.459,1.459,0,0,0-1.153-.231,1.771,1.771,0,0,0-1.134.873,6.108,6.108,0,0,0-.438,1.012l-.053.142c-.2.559-.406,1.117-.607,1.676-.271.751-.541,1.5-.821,2.249a5.818,5.818,0,0,1-.33.695c-.035.066-.071.135-.1.2q-.445-1.813-.887-3.627c-.068-.276-.134-.552-.2-.829-.139-.572-.276-1.144-.42-1.716a1.808,1.808,0,0,0-.889-1.148,1.626,1.626,0,0,0-1.591-.1,1.582,1.582,0,0,0-.812,1.32,4.549,4.549,0,0,0,.048.918l.019.16c.07.628.144,1.256.218,1.883.1.813.19,1.628.279,2.443.043.4.069.8.093,1.189.01.145.019.289.029.434l-.115-.127c-.129-.139-.259-.279-.383-.423a18.279,18.279,0,0,1-2.106-3.059,4.809,4.809,0,0,0-1.385-1.656,1.41,1.41,0,0,0-2.266.947,2.4,2.4,0,0,0,.379,1.622l.448.791c.584,1.034,1.189,2.1,1.775,3.162a7.567,7.567,0,0,1,.333.709c.036.082.072.167.11.253h-.027a.633.633,0,0,1-.2-.031c-.076-.037-.154-.071-.232-.106a4.948,4.948,0,0,1-.82-.427c-.376-.262-.748-.546-1.107-.819-.313-.239-.638-.485-.965-.719a3.264,3.264,0,0,0-.852-.424,1.084,1.084,0,0,0-1.385.63,1.1,1.1,0,0,0,.1,1.143,5.462,5.462,0,0,0,.964,1.124,13.178,13.178,0,0,1,2.112,2.312,10.42,10.42,0,0,1,1.713,3.116,12.251,12.251,0,0,0,1.372,2.861,9.306,9.306,0,0,0,1.08,1.43,3.291,3.291,0,0,0,2.312,1.171,2.42,2.42,0,0,0,.355-.025,9.972,9.972,0,0,0,2-.437,8.509,8.509,0,0,1,2.006-.448,4.3,4.3,0,0,0,2.857-1.328,24.207,24.207,0,0,0,1.752-2.2c.358-.5.69-1.026,1.013-1.535.2-.31.392-.62.594-.926a7.83,7.83,0,0,1,2.284-2.407,4.1,4.1,0,0,0,1.093-1.071,1.334,1.334,0,0,0,.2-1.191" fill="#fff"/>
  </g>
</svg>
