<svg xmlns="http://www.w3.org/2000/svg" width="35.661" height="35.661" viewBox="0 0 35.661 35.661">
  <g id="Group_167" data-name="Group 167" transform="translate(-923.814 -7214.574)">
    <path id="Path_16" data-name="Path 16" d="M959.475,7232.4a17.83,17.83,0,1,1-17.831-17.831,17.83,17.83,0,0,1,17.831,17.831" fill="#10cfc9"/>
    <path id="Path_17" data-name="Path 17" d="M948.652,7236.927l.785.445c.314.178.629.357.944.534l.094.055a1.675,1.675,0,0,0,.272.142.447.447,0,0,0,.6-.21.433.433,0,0,0-.188-.6c-.11-.074-.23-.143-.345-.209l-.088-.049c-.416-.241-.833-.48-1.26-.726l-.549-.315.062-.039.092-.059c.06-.039.116-.075.175-.107l.547-.277c.182-.094.363-.185.545-.278l.156-.08c.22-.114.447-.229.662-.357a.414.414,0,0,0,.2-.552.447.447,0,0,0-.579-.249,1.565,1.565,0,0,0-.234.106l-.067.035-.933.469c-.444.224-.887.449-1.331.671-.07.035-.141.066-.21.1l-.09.04-.02.008-.019-.01-5.238-2.97.053-.039.094-.074a1.383,1.383,0,0,1,.168-.123l1.408-.794c1.046-.59,2.128-1.2,3.187-1.81a.726.726,0,0,1,.785-.006c.557.29,1.13.57,1.684.843.17.083.339.165.508.249l.044.021a1.227,1.227,0,0,0,.295.12.4.4,0,0,0,.5-.254.417.417,0,0,0-.127-.513,1.272,1.272,0,0,0-.238-.142l-.045-.022-.934-.476-.761-.386c-.055-.029-.109-.059-.176-.1l-.117-.066-.068-.039.9-.508c.447-.255.893-.509,1.338-.766a.433.433,0,0,0,.219-.612.472.472,0,0,0-.272-.256.481.481,0,0,0-.372.059c-.382.212-.767.434-1.139.647l-.662.377c-.094.054-.19.1-.295.159-.05.025-.1.053-.157.083l-.064.033v-2.479a1.855,1.855,0,0,0-.01-.259.468.468,0,0,0-.37-.4.408.408,0,0,0-.44.236,1.133,1.133,0,0,0-.107.426c-.011.228-.009.462-.006.689,0,.094,0,.189,0,.282v2.025l-.512.293-4.823,2.751v-6.243l.5-.317c.587-.371,1.167-.74,1.748-1.108l.062-.038a2.786,2.786,0,0,0,.25-.171.446.446,0,0,0,.125-.616.453.453,0,0,0-.582-.155,1.029,1.029,0,0,0-.185.108c-.021.012-.042.027-.063.04l-1.806,1.136-.067.042v-.542c0-.186,0-.371,0-.556,0-.429,0-.873,0-1.31,0-.279-.121-.431-.36-.467a.435.435,0,0,0-.528.345,1.113,1.113,0,0,0-.031.319c0,.387,0,.773,0,1.158v1.024l-.187-.108c-.069-.041-.126-.072-.18-.108-.175-.109-.348-.219-.522-.33-.338-.215-.676-.429-1.017-.641a1.15,1.15,0,0,0-.326-.153.408.408,0,0,0-.353.074.428.428,0,0,0-.153.342.521.521,0,0,0,.294.475c.351.215.7.441,1.044.661l.279.178.788.507.312.2v6.244l-5.333-3.043v-3a1.6,1.6,0,0,0,0-.208.519.519,0,0,0-.413-.449h-.022a.554.554,0,0,0-.469.367.893.893,0,0,0-.014.221v.883q0,.63,0,1.259c0,.07-.009.142-.017.217q-.006.056-.012.114l-.006.068-.5-.288c-.322-.187-.634-.366-.947-.543-.209-.119-.419-.233-.629-.348l-.222-.121a.407.407,0,0,0-.5.052.447.447,0,0,0-.134.5c.042.154.167.235.326.324.541.305,1.081.609,1.621.917.094.053.184.111.289.176l.167.1.065.039-.194.1c-.072.039-.128.07-.185.1l-.537.272c-.387.2-.774.39-1.16.589a1.369,1.369,0,0,0-.307.2.466.466,0,0,0-.069.53.454.454,0,0,0,.49.2,2.469,2.469,0,0,0,.383-.152q1.005-.5,2.007-1l.577-.287.859.489c.6.338,1.19.673,1.782,1.01.244.139.488.275.733.413.611.342,1.242.7,1.862,1.079l.062.039-.064.035-5.235,2.97-.619-.312c-.648-.326-1.283-.646-1.919-.964l-.078-.04a1.685,1.685,0,0,0-.3-.132.447.447,0,0,0-.438.106.468.468,0,0,0-.127.452c.039.166.162.24.319.32l.421.212,1.24.628c.1.05.192.106.293.166.048.028.1.058.148.086l.067.039-.067.037c-.121.069-.238.133-.354.2-.247.137-.48.266-.711.4l-.067.039c-.362.21-.736.428-1.092.659a.438.438,0,0,0-.187.565.474.474,0,0,0,.529.228.716.716,0,0,0,.217-.088q.53-.3,1.057-.6.429-.243.858-.483a1.147,1.147,0,0,1,.147-.066c.029-.014.062-.026.1-.042l.061-.027v.993q0,.705,0,1.411v.054a1.085,1.085,0,0,0,.021.27.448.448,0,0,0,.843.109.867.867,0,0,0,.055-.35c0-.572,0-1.143,0-1.715v-.956c0-.088.006-.174.011-.257l.006-.112v-.024l.021-.013,5.293-3v6.247l-.349.225-.737.475c-.143.091-.287.18-.43.27-.294.184-.6.375-.889.571a.754.754,0,0,0-.286.314.408.408,0,0,0,.125.489.428.428,0,0,0,.538.037c.149-.086.3-.182.438-.276l.2-.13,1.356-.863.016.057c.006.021.013.039.017.053a.2.2,0,0,1,.017.072q0,.69,0,1.378v.277c0,.052,0,.1,0,.157a3.107,3.107,0,0,0,.006.348.461.461,0,0,0,.512.465c.285-.017.4-.162.405-.5,0-.378,0-.757,0-1.136q0-.365,0-.731c0-.082,0-.165.01-.257,0-.044,0-.09.007-.14l0-.074.4.254c.248.16.488.311.728.461l.159.1c.277.173.562.353.851.515a.389.389,0,0,0,.484-.094.438.438,0,0,0,.1-.463.609.609,0,0,0-.31-.328l-.045-.028c-.418-.269-.838-.533-1.258-.8l-.851-.538a2.19,2.19,0,0,1-.186-.137l-.067-.052-.016-.013v-.02c-.063-1.566-.034-5.733.043-6.108l.012-.06,5.285,2.993v1.109c0,.6,0,1.22,0,1.83a1.437,1.437,0,0,0,.074.438.428.428,0,0,0,.484.284.445.445,0,0,0,.361-.4,1.545,1.545,0,0,0,.009-.227v-.742c0-.453,0-.906,0-1.357a1.578,1.578,0,0,1,.016-.2c.005-.035.009-.072.013-.112l.007-.062.129.063c.042.021.075.036.106.053" fill="#fff"/>
  </g>
</svg>
