<svg xmlns="http://www.w3.org/2000/svg" width="35.661" height="35.661" viewBox="0 0 35.661 35.661">
  <g id="Group_167" data-name="Group 167" transform="translate(-1007.372 -7214.574)">
    <g id="Group_163" data-name="Group 163">
      <path id="Path_30" data-name="Path 30" d="M1043.033,7232.4a17.83,17.83,0,1,1-17.831-17.831,17.83,17.83,0,0,1,17.831,17.831" fill="#8ac168"/>
      <path id="Path_31" data-name="Path 31" d="M1030.744,7226.345a3.839,3.839,0,0,0,4.932-2.052,4.158,4.158,0,0,0-4.932,2.052m-.828-.821a3.838,3.838,0,0,0,2.026-4.933,4.107,4.107,0,0,0-2.026,4.933m-4.021,10.4c.059-.034.13-.067.195-.11,1.005-.672,2.031-1.314,3.008-2.026.847-.616,1.641-1.308,2.452-1.974a1.193,1.193,0,0,0,.46-1.051,3.744,3.744,0,0,0-.388-1.461,10.294,10.294,0,0,0-1.85-2.533,10.762,10.762,0,0,0-2.481-1.923,4.2,4.2,0,0,0-1.609-.553,1.242,1.242,0,0,0-1.122.4c-.56.629-1.109,1.269-1.69,1.935l2.672,2.642c.091.09.18.181.268.273a.3.3,0,0,1,.049.425.371.371,0,0,1-.471.108,1.785,1.785,0,0,1-.323-.279q-1.116-1.113-2.23-2.228c-.111-.11-.228-.213-.35-.327a62.8,62.8,0,0,0-4.493,7.3c.3.268.583.52.861.782.2.186.393.373.571.576a.331.331,0,0,1,.009.508.354.354,0,0,1-.513-.009,3.391,3.391,0,0,1-.271-.268l-.968-.966a34.069,34.069,0,0,0-2.986,6.513,80.711,80.711,0,0,0,10.525-5.32c-.138-.149-.241-.267-.352-.377q-1.1-1.1-2.193-2.195c-.079-.079-.16-.156-.234-.24a.344.344,0,0,1-.039-.476.4.4,0,0,1,.517-.05,1.869,1.869,0,0,1,.242.23l2.734,2.676m3.1-10.851c0-.411-.022-.745,0-1.075a4.84,4.84,0,0,1,2.853-4.2c.387-.192.532-.136.7.265a4.739,4.739,0,0,1,.179,3.306c-.027.089-.06.175-.1.284.47-.1.908-.207,1.352-.274a4.462,4.462,0,0,1,2.286.324c.3.116.368.256.246.561a4.478,4.478,0,0,1-3.2,2.877,4.4,4.4,0,0,1-1.514.108c-.186-.019-.376,0-.616,0,.081.128.141.229.209.325a6.839,6.839,0,0,1,1.278,2.64,2.1,2.1,0,0,1-.65,2.116,37.644,37.644,0,0,1-5.7,4.158,78.619,78.619,0,0,1-10.777,5.608,10.628,10.628,0,0,1-1.042.335.691.691,0,0,1-.235.025c-.325-.02-.507-.223-.434-.539a6.542,6.542,0,0,1,.338-1.09c.542-1.254,1.065-2.519,1.675-3.74,1.25-2.5,2.6-4.959,4.077-7.336a46.621,46.621,0,0,1,3.119-4.456c.337-.422.719-.808,1.092-1.2a1.921,1.921,0,0,1,1.536-.509,3.9,3.9,0,0,1,1.724.507c.421.218.816.491,1.222.741.106.064.208.137.363.241" fill="#fff"/>
    </g>
  </g>
</svg>
