<svg xmlns="http://www.w3.org/2000/svg" width="36.033" height="30.841" viewBox="0 0 36.033 30.841">
  <g id="Group_58" data-name="Group 58" transform="translate(-436.875 -2019.722)">
    <path id="Path_192" data-name="Path 192" d="M449.5,2040.7c-2.323-1.517-4.713-3.01-7.029-4.611-2.453-1.7-4.493-3.831-5.179-6.805a13.859,13.859,0,0,1-.27-5.31c.588-3.427,3.353-4.984,6.758-3.93a33.659,33.659,0,0,1,4.593,2.236c.482-.36,1.15-.853,1.81-1.355a5.565,5.565,0,0,1,4.371-1.07c2.965.439,4.681,2.153,4.757,5.138a11.063,11.063,0,0,1-.645,4.537c-1.857,4.318-3.95,8.537-6,12.769a2.179,2.179,0,0,1-2.941,1.162C449.653,2042.577,449.58,2041.677,449.5,2040.7Zm2.086-2.838a42.7,42.7,0,0,0,2.752-5.05,33.362,33.362,0,0,0,1.85-6.63c.307-1.892-.765-3.087-2.52-3.632-1.077-.334-2-.128-2.208,1.025a28.213,28.213,0,0,0-.279,4.279c-.016.671.261,1.359.189,2.015a1.621,1.621,0,0,1-1.749,1.537c-.484-.044-1.042-.746-1.315-1.28a19.347,19.347,0,0,1-.636-2.216,8.434,8.434,0,0,0-5.737-5.438c-1.33-.4-1.918.019-2.143,1.4a8.4,8.4,0,0,0,1.77,7.265A22.316,22.316,0,0,0,451.587,2037.865Z" fill="#e36386"/>
    <path id="Path_193" data-name="Path 193" d="M466.474,2048.643c-1.522-1-3.088-1.973-4.606-3.022a7.589,7.589,0,0,1-3.393-4.46,9.062,9.062,0,0,1-.178-3.479c.385-2.246,2.2-3.266,4.429-2.575a21.965,21.965,0,0,1,3.01,1.465c.316-.236.753-.559,1.186-.888a3.647,3.647,0,0,1,2.864-.7,3.253,3.253,0,0,1,3.117,3.366,7.251,7.251,0,0,1-.422,2.974c-1.217,2.83-2.589,5.594-3.933,8.368a1.428,1.428,0,0,1-1.927.761Zm1.367-1.86a27.922,27.922,0,0,0,1.8-3.31,21.916,21.916,0,0,0,1.212-4.344,2.036,2.036,0,0,0-1.652-2.38c-.7-.219-1.312-.084-1.446.671a18.316,18.316,0,0,0-.183,2.8c-.011.439.171.89.124,1.32a1.063,1.063,0,0,1-1.147,1.007c-.317-.029-.683-.489-.861-.839a12.827,12.827,0,0,1-.417-1.452,5.527,5.527,0,0,0-3.76-3.563c-.871-.264-1.256.012-1.4.918a5.507,5.507,0,0,0,1.16,4.761A14.623,14.623,0,0,0,467.841,2046.783Z" fill="#e36386"/>
  </g>
</svg>
