<svg xmlns="http://www.w3.org/2000/svg" width="39.318" height="33.653" viewBox="0 0 39.318 33.653">
  <g id="Group_56" data-name="Group 56" transform="translate(-1471.897 -2071.496)">
    <path id="Path_190" data-name="Path 190" d="M1485.674,2094.39c-2.534-1.655-5.142-3.284-7.67-5.031-2.677-1.849-4.9-4.18-5.65-7.426a15.092,15.092,0,0,1-.3-5.793c.641-3.74,3.659-5.439,7.374-4.289a36.673,36.673,0,0,1,5.012,2.441c.526-.394,1.254-.931,1.975-1.479a6.069,6.069,0,0,1,4.768-1.168c3.236.479,5.109,2.35,5.192,5.606a12.089,12.089,0,0,1-.7,4.951c-2.027,4.712-4.31,9.315-6.549,13.933a2.378,2.378,0,0,1-3.209,1.268C1485.84,2096.435,1485.76,2095.453,1485.674,2094.39Zm2.276-3.1a46.511,46.511,0,0,0,3-5.51,36.326,36.326,0,0,0,2.019-7.234c.335-2.064-.835-3.369-2.75-3.963-1.175-.364-2.185-.14-2.409,1.118a30.743,30.743,0,0,0-.3,4.67c-.017.731.285,1.482.207,2.2a1.769,1.769,0,0,1-1.909,1.677c-.528-.048-1.137-.814-1.435-1.4a21.306,21.306,0,0,1-.694-2.418,9.2,9.2,0,0,0-6.26-5.934c-1.451-.438-2.092.021-2.338,1.529a9.164,9.164,0,0,0,1.932,7.928A24.332,24.332,0,0,0,1487.95,2091.293Z" fill="#fff"/>
    <path id="Path_191" data-name="Path 191" d="M1504.194,2103.054c-1.66-1.085-3.37-2.153-5.026-3.3a8.283,8.283,0,0,1-3.7-4.867,9.89,9.89,0,0,1-.194-3.8c.42-2.451,2.4-3.564,4.832-2.81a24.006,24.006,0,0,1,3.285,1.6c.344-.258.822-.61,1.294-.969a3.981,3.981,0,0,1,3.125-.766,3.553,3.553,0,0,1,3.4,3.674,7.935,7.935,0,0,1-.461,3.245c-1.328,3.087-2.825,6.1-4.292,9.13a1.559,1.559,0,0,1-2.1.831Zm1.492-2.03a30.571,30.571,0,0,0,1.968-3.611,23.887,23.887,0,0,0,1.323-4.74,2.223,2.223,0,0,0-1.8-2.6c-.771-.239-1.432-.092-1.579.732a20.257,20.257,0,0,0-.2,3.061c-.011.479.187.971.136,1.44a1.16,1.16,0,0,1-1.251,1.1c-.346-.031-.745-.534-.941-.915a14,14,0,0,1-.454-1.585,6.029,6.029,0,0,0-4.1-3.888c-.952-.287-1.371.013-1.532,1a6.006,6.006,0,0,0,1.265,5.2A15.946,15.946,0,0,0,1505.686,2101.024Z" fill="#fff"/>
  </g>
</svg>
