<svg xmlns="http://www.w3.org/2000/svg" width="48.832" height="49.042" viewBox="0 0 48.832 49.042">
  <g id="Group_163" data-name="Group 163" transform="translate(-862.281 -12724.526)">
    <path id="Path_63" data-name="Path 63" d="M898.4,12732.778h0c0,.908-.014,1.816.005,2.727a1.452,1.452,0,0,0,1.535,1.473h5.151a1.49,1.49,0,0,0,1.562-1.549q.008-2.641,0-5.28a1.471,1.471,0,0,0-1.534-1.558q-2.6-.021-5.195,0a1.437,1.437,0,0,0-1.518,1.49c-.023.9-.005,1.8-.005,2.7m-26.209-8.252h.572a.459.459,0,0,1,.349.514c0,.077,0,.152,0,.228q-.008,2.291-.014,4.581-.006,2.522-.005,5.038c0,.462-.008.923.006,1.386.008.277.123.4.4.4a11.048,11.048,0,0,0,1.137-.052.418.418,0,0,0,.391-.376,2.793,2.793,0,0,0,.047-.424c.006-.533.006-1.067.006-1.6q0-4.567-.006-9.135c0-.318,0-.476.375-.564h22.158a1.344,1.344,0,0,0,.155.016q1.976,0,3.953.006a8.381,8.381,0,0,1,1.98.225,9.56,9.56,0,0,1,5.109,3.15,9.1,9.1,0,0,1,2.119,4.376,15.557,15.557,0,0,1,.185,2.673c.011,1.742,0,3.483-.009,5.226,0,.272-.075.346-.348.35h-.173q-7.272,0-14.547.006a1.074,1.074,0,0,1-.8-.313,11.84,11.84,0,0,0-2.094-1.6,12.146,12.146,0,0,0-8.7-1.62,12.448,12.448,0,0,0-6.3,3.214,1.14,1.14,0,0,1-.821.319q-7.317-.007-14.634,0c-.3,0-.368-.071-.368-.373,0-.437.009-.876.006-1.312-.01-1.846-.088-3.692.057-5.536a9.328,9.328,0,0,1,.815-3.217,10.237,10.237,0,0,1,3.157-3.787.261.261,0,0,1,.075-.034c0,.024.007.04.007.052q-.006,4.371-.009,8.739c0,.4-.009.809.009,1.212.012.273.127.387.4.389a10.051,10.051,0,0,0,1.1-.054.42.42,0,0,0,.394-.42,3.887,3.887,0,0,0,.031-.469q0-4.939.006-9.88a1.714,1.714,0,0,0-.011-.215c-.045-.328-.026-.368.27-.51a2.637,2.637,0,0,1,.921-.281c.236-.017.295.046.262.276a1.978,1.978,0,0,0-.021.254q0,4.471.005,8.938c0,.65-.005,1.3,0,1.956,0,.277.1.4.385.405.351.006.7,0,1.054-.026.325-.025.461-.169.508-.5a4.861,4.861,0,0,0,.033-.555q.009-2.619.011-5.238c0-1.733-.016-3.464-.024-5.2,0-.465.042-.528.46-.642" fill="#f4b223"/>
    <path id="Path_64" data-name="Path 64" d="M876.514,12742.035a12.387,12.387,0,0,0-2.143,9.226,12.058,12.058,0,0,0,4.062,7.362,12.411,12.411,0,0,0,15.715.607,12.113,12.113,0,0,0,4.83-8.048,12.406,12.406,0,0,0-2.162-9.147h.177l12.149-.006c.448,0,.9,0,1.343,0a2.044,2.044,0,0,1,.256.013.336.336,0,0,1,.341.337c.02.28.023.56.023.842q0,3.042-.009,6.083c-.005,4.943,0,9.889-.014,14.833a9.141,9.141,0,0,1-2.524,6.313,9.369,9.369,0,0,1-5.315,2.956,9.135,9.135,0,0,1-1.615.153c-9.918.008-19.837.028-29.755-.007a9.494,9.494,0,0,1-9.268-7.256,10.616,10.616,0,0,1-.3-2.587q0-6.916,0-13.833c0-2.362-.012-4.723-.017-7.082a3,3,0,0,1,.017-.314.422.422,0,0,1,.458-.441c.313-.016.628-.01.943-.01l12.607.01Z" fill="#f4b223"/>
    <path id="Path_65" data-name="Path 65" d="M893.821,12749.388a7.085,7.085,0,1,0-6.884,6.988,7.057,7.057,0,0,0,6.884-6.988m-7.09-9.729a9.614,9.614,0,1,1-9.671,9.6,9.616,9.616,0,0,1,9.671-9.6" fill="#f4b223"/>
  </g>
</svg>
