<svg xmlns="http://www.w3.org/2000/svg" width="22.27" height="22.367" viewBox="0 0 22.27 22.367">
  <g id="Group_161" data-name="Group 161" transform="translate(-1278.132 -14.662)">
    <path id="Path_89" data-name="Path 89" d="M1294.606,18.427h0c0,.414-.006.828,0,1.243a.662.662,0,0,0,.7.672q1.174,0,2.35,0a.679.679,0,0,0,.712-.706c0-.8,0-1.608,0-2.41a.67.67,0,0,0-.7-.709q-1.185-.009-2.37,0a.654.654,0,0,0-.692.678c-.01.409,0,.822,0,1.232m-11.953-3.765h.261a.209.209,0,0,1,.159.234c0,.037,0,.071,0,.105,0,.695-.005,1.393-.007,2.09,0,.764,0,1.532,0,2.3,0,.21,0,.42,0,.63,0,.127.056.183.181.186.172,0,.346-.01.518-.024a.192.192,0,0,0,.178-.172,1.163,1.163,0,0,0,.021-.2c0-.243,0-.486,0-.727q0-2.085,0-4.166c0-.147,0-.219.172-.259h10.105a.416.416,0,0,0,.071.008c.6,0,1.2,0,1.8,0a3.813,3.813,0,0,1,.9.1,4.361,4.361,0,0,1,2.329,1.439,4.138,4.138,0,0,1,.967,2,7.006,7.006,0,0,1,.084,1.219c.005.8,0,1.589,0,2.382,0,.125-.035.158-.159.161h-.079q-3.316,0-6.634,0a.491.491,0,0,1-.367-.145,5.473,5.473,0,0,0-.955-.729,5.531,5.531,0,0,0-3.968-.74,5.672,5.672,0,0,0-2.875,1.465.514.514,0,0,1-.374.148q-3.337,0-6.674,0c-.136,0-.168-.033-.168-.17,0-.2,0-.4,0-.6-.005-.841-.04-1.682.026-2.523a4.254,4.254,0,0,1,.371-1.467,4.676,4.676,0,0,1,1.44-1.729.215.215,0,0,1,.034-.014l0,.023q0,1.992,0,3.986c0,.183-.005.37,0,.551.006.125.058.179.181.179a4.9,4.9,0,0,0,.5-.024.192.192,0,0,0,.18-.193,1.654,1.654,0,0,0,.014-.214q0-2.253,0-4.505a.753.753,0,0,0-.005-.1c-.02-.151-.012-.168.123-.234a1.183,1.183,0,0,1,.42-.127c.108-.007.135.021.12.125a.768.768,0,0,0-.01.117l0,4.076c0,.3,0,.6,0,.892,0,.126.048.181.175.185a4.532,4.532,0,0,0,.481-.014c.149-.009.211-.077.232-.224a2.132,2.132,0,0,0,.015-.253q0-1.2.005-2.391c0-.79-.007-1.579-.011-2.369,0-.213.019-.24.21-.293" fill="#4a4f54"/>
    <path id="Path_90" data-name="Path 90" d="M1284.623,22.646a5.659,5.659,0,0,0-.978,4.208,5.5,5.5,0,0,0,1.853,3.358,5.658,5.658,0,0,0,7.167.277,5.523,5.523,0,0,0,2.2-3.669,5.667,5.667,0,0,0-.986-4.174h.081q2.771,0,5.54,0h.613a.9.9,0,0,1,.116.006.154.154,0,0,1,.156.153c.009.128.01.256.01.384,0,.925,0,1.85,0,2.774,0,2.255,0,4.51-.006,6.765a4.165,4.165,0,0,1-1.151,2.879,4.271,4.271,0,0,1-2.424,1.349,4.14,4.14,0,0,1-.737.068c-4.523.005-9.046.015-13.569,0a4.328,4.328,0,0,1-4.227-3.309,4.82,4.82,0,0,1-.136-1.179q0-3.154,0-6.309c0-1.077-.005-2.154-.008-3.23a1.369,1.369,0,0,1,.008-.143.194.194,0,0,1,.209-.2c.143,0,.287,0,.43,0q2.874,0,5.75,0Z" fill="#4a4f54"/>
    <path id="Path_91" data-name="Path 91" d="M1292.516,26a3.231,3.231,0,1,0-3.139,3.187A3.218,3.218,0,0,0,1292.516,26m-3.233-4.438a4.386,4.386,0,1,1-4.411,4.38,4.387,4.387,0,0,1,4.411-4.38" fill="#4a4f54"/>
  </g>
</svg>
