<svg xmlns="http://www.w3.org/2000/svg" width="11.096" height="210.58" viewBox="0 0 11.096 210.58">
  <g id="Group_31" data-name="Group 31" transform="translate(-65.656 -817.876)">
    <path id="Path_77" data-name="Path 77" d="M15.442,1.241H16.9v9.478h5.449V12H15.442ZM26.875,3.98a3.578,3.578,0,0,1,1.619.392,2.985,2.985,0,0,1,1.194,1.014,3.5,3.5,0,0,1,.527,1.384A9.057,9.057,0,0,1,30.332,8.5h-5.75a3.355,3.355,0,0,0,.564,1.915,1.888,1.888,0,0,0,1.633.721,2.111,2.111,0,0,0,1.648-.681,2.3,2.3,0,0,0,.5-.916h1.3a2.73,2.73,0,0,1-.341.963,3.426,3.426,0,0,1-.648.868,3.072,3.072,0,0,1-1.487.791,4.517,4.517,0,0,1-1.077.117,3.3,3.3,0,0,1-2.483-1.066,4.146,4.146,0,0,1-1.018-2.985,4.508,4.508,0,0,1,1.025-3.069A3.383,3.383,0,0,1,26.875,3.98Zm2.1,3.472a3.416,3.416,0,0,0-.374-1.37,1.915,1.915,0,0,0-1.809-.952,2.005,2.005,0,0,0-1.523.656,2.476,2.476,0,0,0-.652,1.666Zm3.237-5.486h1.333v2.19H34.8V5.232H33.548v5.12a.554.554,0,0,0,.278.549,1.183,1.183,0,0,0,.513.081q.1,0,.205,0t.256-.018V12a2.943,2.943,0,0,1-.472.1,4.491,4.491,0,0,1-.531.029,1.431,1.431,0,0,1-1.252-.472,2.1,2.1,0,0,1-.33-1.227V5.232H31.153V4.156h1.062Zm4.182,2.4a.821.821,0,0,0,.612-.454,1.857,1.857,0,0,0,.209-.894q0-.051,0-.092a.5.5,0,0,0-.018-.092h-.8v-1.6h1.567V2.713a3.075,3.075,0,0,1-.388,1.593,1.5,1.5,0,0,1-1.179.751Zm3.574,5.171a1.917,1.917,0,0,0,.33,1.011,2.071,2.071,0,0,0,1.729.637,2.549,2.549,0,0,0,1.289-.319,1.058,1.058,0,0,0,.557-.985.842.842,0,0,0-.447-.769A5.312,5.312,0,0,0,42.3,8.741l-1.047-.264a5.109,5.109,0,0,1-1.479-.557,1.664,1.664,0,0,1-.85-1.479,2.261,2.261,0,0,1,.8-1.8,3.2,3.2,0,0,1,2.157-.688,2.994,2.994,0,0,1,2.556,1.04,2.257,2.257,0,0,1,.476,1.421H43.67a1.525,1.525,0,0,0-.315-.813,2.009,2.009,0,0,0-1.575-.52,1.882,1.882,0,0,0-1.132.286.9.9,0,0,0-.385.754.929.929,0,0,0,.505.82,3.037,3.037,0,0,0,.864.322l.872.212a6.739,6.739,0,0,1,1.9.667,1.765,1.765,0,0,1,.769,1.589,2.422,2.422,0,0,1-.795,1.809,3.383,3.383,0,0,1-2.421.762,3.248,3.248,0,0,1-2.479-.795,3.005,3.005,0,0,1-.78-1.967ZM50.752,1.2h1.282v3.9A2.873,2.873,0,0,1,54.37,3.951a3.056,3.056,0,0,1,2.377,1.007,4.29,4.29,0,0,1,.912,2.97,5.094,5.094,0,0,1-.9,3.091,2.922,2.922,0,0,1-2.5,1.23,2.559,2.559,0,0,1-1.509-.432,3.644,3.644,0,0,1-.784-.82v1H50.752Zm3.428,9.88a1.762,1.762,0,0,0,1.6-.85,4.183,4.183,0,0,0,.531-2.241,3.679,3.679,0,0,0-.531-2.051,1.749,1.749,0,0,0-1.564-.813,2.181,2.181,0,0,0-1.578.667,2.993,2.993,0,0,0-.677,2.2,4.856,4.856,0,0,0,.278,1.794A1.923,1.923,0,0,0,54.18,11.084Zm8.284-7.1a3.578,3.578,0,0,1,1.619.392,2.985,2.985,0,0,1,1.194,1.014A3.5,3.5,0,0,1,65.8,6.771,9.057,9.057,0,0,1,65.921,8.5h-5.75a3.355,3.355,0,0,0,.564,1.915,1.888,1.888,0,0,0,1.633.721,2.111,2.111,0,0,0,1.648-.681,2.3,2.3,0,0,0,.5-.916h1.3a2.73,2.73,0,0,1-.341.963,3.426,3.426,0,0,1-.648.868,3.072,3.072,0,0,1-1.487.791,4.517,4.517,0,0,1-1.077.117,3.3,3.3,0,0,1-2.483-1.066,4.146,4.146,0,0,1-1.018-2.985,4.508,4.508,0,0,1,1.025-3.069A3.383,3.383,0,0,1,62.464,3.98Zm2.1,3.472a3.416,3.416,0,0,0-.374-1.37,1.915,1.915,0,0,0-1.809-.952,2.005,2.005,0,0,0-1.523.656,2.476,2.476,0,0,0-.652,1.666Zm11.36-1.663a3.269,3.269,0,0,0,1.436-.256,1.477,1.477,0,0,0,.806-1.45,1.4,1.4,0,0,0-.857-1.421,3.852,3.852,0,0,0-1.436-.205h-2.6V5.789Zm.491,4.966a2.217,2.217,0,0,0,1.912-.776,1.955,1.955,0,0,0,.359-1.187A1.579,1.579,0,0,0,77.64,7.2a3.965,3.965,0,0,0-1.472-.227H73.274v3.787Zm-4.57-9.514h4.622a3.064,3.064,0,0,1,2.688,1.128,2.607,2.607,0,0,1,.469,1.538,2.422,2.422,0,0,1-.579,1.67,2.828,2.828,0,0,1-.864.63,3.656,3.656,0,0,1,1.238.71,2.578,2.578,0,0,1,.725,1.941,3,3,0,0,1-.652,1.882,3.671,3.671,0,0,1-3.1,1.26H71.846ZM84.978,3.98a3.578,3.578,0,0,1,1.619.392,2.985,2.985,0,0,1,1.194,1.014,3.5,3.5,0,0,1,.527,1.384A9.057,9.057,0,0,1,88.435,8.5h-5.75a3.355,3.355,0,0,0,.564,1.915,1.888,1.888,0,0,0,1.633.721,2.111,2.111,0,0,0,1.648-.681,2.3,2.3,0,0,0,.5-.916h1.3a2.73,2.73,0,0,1-.341.963,3.426,3.426,0,0,1-.648.868,3.072,3.072,0,0,1-1.487.791,4.517,4.517,0,0,1-1.077.117,3.3,3.3,0,0,1-2.483-1.066,4.146,4.146,0,0,1-1.018-2.985A4.508,4.508,0,0,1,82.3,5.159,3.383,3.383,0,0,1,84.978,3.98Zm2.1,3.472a3.416,3.416,0,0,0-.374-1.37A1.915,1.915,0,0,0,84.9,5.13a2.005,2.005,0,0,0-1.523.656,2.476,2.476,0,0,0-.652,1.666Zm3.757,2.087a1.917,1.917,0,0,0,.33,1.011,2.071,2.071,0,0,0,1.729.637,2.549,2.549,0,0,0,1.289-.319,1.058,1.058,0,0,0,.557-.985.842.842,0,0,0-.447-.769,5.312,5.312,0,0,0-1.128-.374L92.12,8.477A5.109,5.109,0,0,1,90.64,7.92a1.664,1.664,0,0,1-.85-1.479,2.261,2.261,0,0,1,.8-1.8,3.2,3.2,0,0,1,2.157-.688,2.994,2.994,0,0,1,2.556,1.04,2.257,2.257,0,0,1,.476,1.421H94.536a1.525,1.525,0,0,0-.315-.813,2.009,2.009,0,0,0-1.575-.52,1.882,1.882,0,0,0-1.132.286.9.9,0,0,0-.385.754.929.929,0,0,0,.505.82,3.037,3.037,0,0,0,.864.322l.872.212a6.739,6.739,0,0,1,1.9.667,1.765,1.765,0,0,1,.769,1.589,2.422,2.422,0,0,1-.795,1.809,3.383,3.383,0,0,1-2.421.762,3.248,3.248,0,0,1-2.479-.795,3.005,3.005,0,0,1-.78-1.967Zm6.98-7.573h1.333v2.19H100.4V5.232H99.151v5.12a.554.554,0,0,0,.278.549,1.183,1.183,0,0,0,.513.081q.1,0,.205,0t.256-.018V12a2.943,2.943,0,0,1-.472.1,4.491,4.491,0,0,1-.531.029,1.431,1.431,0,0,1-1.252-.472,2.1,2.1,0,0,1-.33-1.227V5.232H96.756V4.156h1.062Zm8.386-.725h7.463V2.559h-6.006V5.826h5.281V7.107h-5.281V12H106.2Zm8.884,2.915h1.252V5.511a2.994,2.994,0,0,1,.754-.963,1.956,1.956,0,0,1,1.384-.568q.037,0,.125.007l.3.029V5.408a1.969,1.969,0,0,0-.216-.029q-.1-.007-.216-.007a1.881,1.881,0,0,0-1.531.641,2.237,2.237,0,0,0-.535,1.476V12h-1.318Zm4.958.037h1.34V12h-1.34Zm0-2.952h1.34V2.735h-1.34Zm6.6,2.739a3.578,3.578,0,0,1,1.619.392,2.985,2.985,0,0,1,1.194,1.014,3.5,3.5,0,0,1,.527,1.384A9.057,9.057,0,0,1,130.1,8.5h-5.75a3.355,3.355,0,0,0,.564,1.915,1.888,1.888,0,0,0,1.633.721,2.111,2.111,0,0,0,1.648-.681,2.3,2.3,0,0,0,.5-.916h1.3a2.73,2.73,0,0,1-.341.963,3.426,3.426,0,0,1-.648.868,3.072,3.072,0,0,1-1.487.791,4.517,4.517,0,0,1-1.077.117,3.3,3.3,0,0,1-2.483-1.066,4.146,4.146,0,0,1-1.018-2.985,4.508,4.508,0,0,1,1.025-3.069A3.383,3.383,0,0,1,126.646,3.98Zm2.1,3.472a3.416,3.416,0,0,0-.374-1.37,1.915,1.915,0,0,0-1.809-.952,2.005,2.005,0,0,0-1.523.656,2.476,2.476,0,0,0-.652,1.666Zm2.974-3.3h1.252V5.269a3.513,3.513,0,0,1,1.179-.989,3.145,3.145,0,0,1,1.384-.3,2.282,2.282,0,0,1,2.256,1.165,4.135,4.135,0,0,1,.322,1.824V12h-1.34V7.056a2.677,2.677,0,0,0-.212-1.157,1.288,1.288,0,0,0-1.274-.732,2.6,2.6,0,0,0-.769.1,1.981,1.981,0,0,0-.952.645,1.94,1.94,0,0,0-.428.8,5.4,5.4,0,0,0-.1,1.183V12h-1.318ZM140.9,8.169a3.888,3.888,0,0,0,.535,2.109,1.873,1.873,0,0,0,1.714.85,1.805,1.805,0,0,0,1.505-.787,3.718,3.718,0,0,0,.59-2.26,3.341,3.341,0,0,0-.608-2.2,1.9,1.9,0,0,0-1.5-.714,1.982,1.982,0,0,0-1.615.762A3.489,3.489,0,0,0,140.9,8.169Zm1.985-4.153a2.791,2.791,0,0,1,1.509.381,3.544,3.544,0,0,1,.8.769V1.2h1.267V12h-1.187V10.909a2.852,2.852,0,0,1-1.091,1.047,3.124,3.124,0,0,1-1.443.322,2.922,2.922,0,0,1-2.271-1.1,4.31,4.31,0,0,1-.959-2.933,5.064,5.064,0,0,1,.875-2.97A2.865,2.865,0,0,1,142.884,4.017Zm6.306,5.522a1.917,1.917,0,0,0,.33,1.011,2.071,2.071,0,0,0,1.729.637,2.549,2.549,0,0,0,1.289-.319,1.058,1.058,0,0,0,.557-.985.842.842,0,0,0-.447-.769,5.312,5.312,0,0,0-1.128-.374l-1.047-.264a5.109,5.109,0,0,1-1.479-.557,1.664,1.664,0,0,1-.85-1.479,2.261,2.261,0,0,1,.8-1.8,3.2,3.2,0,0,1,2.157-.688,2.994,2.994,0,0,1,2.556,1.04,2.257,2.257,0,0,1,.476,1.421h-1.245a1.525,1.525,0,0,0-.315-.813A2.009,2.009,0,0,0,151,5.079a1.882,1.882,0,0,0-1.132.286.9.9,0,0,0-.385.754.929.929,0,0,0,.505.82,3.037,3.037,0,0,0,.864.322l.872.212a6.739,6.739,0,0,1,1.9.667,1.765,1.765,0,0,1,.769,1.589,2.422,2.422,0,0,1-.795,1.809,3.383,3.383,0,0,1-2.421.762,3.248,3.248,0,0,1-2.479-.795,3.005,3.005,0,0,1-.78-1.967Z" transform="translate(64.452 1043.898) rotate(-90)"/>
    <line id="Line_3" data-name="Line 3" y1="62.015" transform="translate(71.725 817.876)" fill="#ffb71e" stroke="#ffb71b" stroke-miterlimit="10" stroke-width="2"/>
  </g>
</svg>
