<?xml version="1.0" encoding="iso-8859-1"?>
<svg xmlns="http://www.w3.org/2000/svg" width="1919" height="630.891" viewBox="0 0 1919 630.891">
  <g id="Group_52" data-name="Group 52" transform="translate(1 -2626.949)">
    <path id="Path_2" data-name="Path 2" d="M1918,3256.949c-462,2.626-785.844-1.01-1000-5-103.852-1.935-370.8-7.473-729,0-80.512,1.68-146.647,3.62-190,5v-630c50.381,1.169,125.672,2.749,217,4,319.9,4.381,395.144-1.316,648,0,387.083,2.014,442.241,16.57,747,9,130.48-3.241,237.324-8.814,307-13Z" fill="#10cfc9"/>
    <path id="Path_106" data-name="Path 106" d="M1327.684,2742.831c.1-1.43.883-1.588,1.714-1.828a89.9,89.9,0,0,0,8.769-2.7c6.879-2.767,10.848-9.861,10.125-17.575a26.747,26.747,0,0,0-3-10.031c-.691-1.318-1.073-2.8-1.819-4.086a45.6,45.6,0,0,0-10.039-11.992c-.72-.607-1.939-1.145-1.495-2.2.25-.594,1.418-.982,2.233-1.131,4.368-.8,8.752-1.329,13.064.329.553.212,1.3.371,1.566.8.862,1.4,2.2,1.624,3.624,1.871a7.819,7.819,0,0,1,4.83,3.064c1.99,2.53,4.014,5.049,5.773,7.737a16.054,16.054,0,0,1,1.893,4.76,53.527,53.527,0,0,1,2.166,15.285,52.842,52.842,0,0,1-.985,7.33,11.5,11.5,0,0,1-3.051,5.414c-1.877,2.147-3.859,4.013-6.878,4.723-2.514.592-4.852,1.933-7.266,2.946-.206.087-.4.213-.6.3-3.209,1.447-11.558,1.12-14.667-.49-1.253-.649-2.607-1.1-3.912-1.65C1329.055,2743.43,1328.388,2743.135,1327.684,2742.831Zm8.748-49.482a3.334,3.334,0,0,0,.3.68,9.506,9.506,0,0,0,.9,1,48.585,48.585,0,0,1,11.428,16.438c2.61,6.233,3.324,12.539,1,19.024a13.784,13.784,0,0,1-4.1,6.059,22.068,22.068,0,0,1-9.318,5.162c-.743.168-1.627.267-2.07,1.2a5.279,5.279,0,0,0,3.558,1.254c1.422.007,2.855-.118,4.264.015a12.186,12.186,0,0,0,6.675-1.513,34.928,34.928,0,0,1,5.77-2.417c4.18-1.189,6.507-4.251,7.913-7.95a25.435,25.435,0,0,0,1.13-10.2,62.986,62.986,0,0,0-1.222-8.431c-.555-3.021-1.236-6.051-3.028-8.618-1.711-2.452-3.587-4.791-5.438-7.142a4.507,4.507,0,0,0-1.538-1.279c-.869-.41-1.89-.507-2.737-.948-.874-.455-1.557-1.274-2.429-1.739-3.279-1.75-6.791-1.473-10.3-1A2.649,2.649,0,0,0,1336.432,2693.349Z" fill="#fff"/>
    <path id="Path_107" data-name="Path 107" d="M1383.092,2719.864c-2.346.3-4.405.6-6.473.813a7.181,7.181,0,0,1-2.454-.1,2.916,2.916,0,0,1-1.746-1.091c-.183-.327.305-1.276.743-1.658a42.879,42.879,0,0,1,3.753-2.816c.9-.626,1.869-1.16,3.044-1.879-.663-.453-1.067-.731-1.474-1.006-1.792-1.215-3.587-2.424-5.374-3.647a3.83,3.83,0,0,1-.846-.725c-.813-1.025-.474-1.887.836-1.974a24.35,24.35,0,0,1,3.362.059c1.565.113,3.138.222,4.681.485a3.345,3.345,0,0,0,3.23-1.081c1.38-1.472,2.746-2.957,4.119-4.435.5-.536,1-1.07,1.427-1.528a3.148,3.148,0,0,1,2.808,3.188c.222,2.006.624,4,.768,6.006a2.846,2.846,0,0,0,2.5,2.942,9.648,9.648,0,0,1,4.553,2.745c1.246,1.181,1.152,1.824-.443,2.333-2.062.658-4.176,1.152-6.261,1.737-.774.217-1.531.49-2.525.812.232,1.147.462,2.14.632,3.143.447,2.644.905,5.287,1.275,7.942.109.783.154,1.684-.892,2.058a1.959,1.959,0,0,1-2.5-.943c-1.273-2.023-2.479-4.089-3.7-6.147C1385.083,2723.31,1384.052,2721.513,1383.092,2719.864Zm-5.041-2.135a5.345,5.345,0,0,0,3.876-.663c2.687-1.345,3.514-.978,4.354,1.83a4.808,4.808,0,0,0,1.969,3.15,3.857,3.857,0,0,0-.008-.883c-.885-2.819-.758-3.741,2.987-4.956.426-.138.866-.232,1.3-.364,1.188-.365,2.374-.739,3.561-1.11l.05-.5c-.948-.308-1.885-.658-2.847-.915-2.076-.554-2.337-.882-2.642-3.008-.272-1.9-.653-3.776-1.065-6.112-1.445,1.4-2.666,2.45-3.724,3.645a2.975,2.975,0,0,1-3.571,1.006,10.368,10.368,0,0,0-4.568-.226,9.149,9.149,0,0,0,5.083,2.566,3.155,3.155,0,0,1,2.763,1.822Z" fill="#fff"/>
  </g>
</svg>
