<svg xmlns="http://www.w3.org/2000/svg" width="206.713" height="108.203" viewBox="0 0 206.713 108.203">
  <g id="Group_83" data-name="Group 83" transform="translate(-387.765 -12.225)">
    <g id="Group_79" data-name="Group 79">
      <g id="Group_78" data-name="Group 78">
        <g id="Group_77" data-name="Group 77">
          <path id="Path_321" data-name="Path 321" d="M388.178,96.315a10.171,10.171,0,0,0,2.431-.082l2.656-.164c.824-.008,1.647-.006,2.47-.009.353,0,.705.009,1.054-.014,1.173-.081,2.344-.175,3.514-.263.708-.052,1.415-.1,2.12-.158.551-.041,1.1-.091,1.65-.131.884-.065,1.768-.143,2.655-.18.643-.025,1.29.01,1.937.014a2.228,2.228,0,0,0,.374-.03c.345-.056,2.054-.083,2.558-.12,1.2-.088,10.672-.055,11.267-.064,1.5-.019,3-.049,4.5-.051,1.1,0,2.205.037,3.305.049q1.093.014,2.188,0c.187,0,.374-.077.561-.084,1.187-.04,2.376-.083,3.563-.1a40.284,40.284,0,0,0,4.227.1,25.545,25.545,0,0,1,3.632.072c.687.108,3.715-.012,4.529-.012.941,0,1.875.153,2.837.092,1.264-.08,2.545-.019,3.816.023,1,.035,2,.131,2.991.2a3.463,3.463,0,0,0,.42-.005c.436-.027.87-.1,1.3-.081.941.03,1.883.13,2.825.144.525.009,1.05-.142,1.576-.142,1.2,0,2.392.051,3.589.089a10.085,10.085,0,0,0,1.183.074,9.855,9.855,0,0,1,1.952-.18,4.778,4.778,0,0,0,.711-.08c.42-.02.842-.037,1.265-.022.291.008.578.094.868.107,1.024.041,2.05.066,3.073.1.12,0,.242.019.364.019.528,0,1.061.028,1.588-.007.578-.037,1.152-.161,1.728-.191.392-.021.791.074,1.186.081a27.347,27.347,0,0,1,2.894.029c.847.1,1.618-.221,2.492-.1a28.492,28.492,0,0,0,3.662,0c1.433.02,2.864.093,4.293.137.467.014.934.035,1.4.013.827-.045,1.652-.113,2.477-.181,1.461-.121,2.923-.258,4.386-.371.675-.053,1.352-.1,2.028-.091.614.01,1.228.157,1.841.15.9-.01,1.812-.171,2.714-.144,1.283.041,2.559.207,3.842.3.692.048,1.386.046,2.078.069.948.029,1.9.068,2.845.087.4.01.79-.04,1.185-.025.553.021,1.1.1,1.655.118.685.021,1.376,0,2.063.008.274.006.545.085.816.085.686,0,1.375-.032,2.064-.033.733,0,1.466.036,2.2.028.985-.013,1.973-.072,2.961-.083,1.209-.012,2.418.013,3.628.009.991-.006,1.983-.035,2.977-.039.738,0,1.478.023,2.216.028.632,0,1.266,0,1.9,0,.213,0,.426.018.637.013.711-.018,1.422-.068,2.132-.057.642.01,1.286.075,1.927.127a16.769,16.769,0,0,1,2.038.076,6.666,6.666,0,0,0,1.587.069s22.475.506,25.773.142c.372-.041.755-.076,1.134-.1.163-.008.332.048.5.049,1.585.023,3.173.051,4.758.051.744,0,1.492-.054,2.236-.09.549-.027,1.1-.076,1.643-.1.912-.037,1.824-.052,2.735-.091,1.258-.055,2.516-.126,3.772-.187,0,0,.612.024.219-.541-.589-.686-1.181-1.368-1.768-2.055-.2-.229-1.7-2.147-1.893-2.47-.411-.687-.837-1.365-1.248-2.052-.364-.61-.666-1.253-1.077-1.836-.615-.87-1.3-1.7-1.949-2.554q-1.541-2.031-3.058-4.077c-.652-.884-1.228-1.817-1.933-2.664a29.055,29.055,0,0,0-2.658-2.637c-.891-.459-.97-.939-.256-1.6.026-.022.051-.044.075-.067a12.106,12.106,0,0,0,1.3-1.224c.579-.729,1.067-1.517,1.591-2.282.809-1.181,1.592-2.374,2.425-3.537.76-1.059,1.562-2.093,2.367-3.124.435-.554.915-1.079,1.372-1.619l2.058-2.429c.577-.682,1.179-1.349,1.732-2.048.98-1.24,1.93-2.5,2.887-3.751.046-.062.026-.163.039-.248-.85-.075-1.657-.193-2.469-.2-1.069-.016-2.145.045-3.216.083-.636.021-1.271.055-1.9.1-.689.047-1.375.166-2.063.157-1.218-.015-2.433-.145-3.652-.15-1.15-.005-2.3.084-3.452.137q-1.383.063-2.767.138l-17.822-.1-2.368-.195c-.914-.077-3.244-.144-3.491-.154-.519-.023-3.488,0-4.45.062-.479.029-.963.089-1.44.072-.6-.022-5.418-.186-5.916-.253-.4-.054-2.2-.221-2.7-.214-.473,0-1.982.125-2.261.1-.756-.066-5.076.21-6.545.044-.883-.1-5.589.422-7.03.529-.343.026-2.94.054-3.889.1-.65.025-3.669-.076-4.564.027-.922.107-1.918-.227-2.918-.13-.763.076-1.546.01-2.321.02-.287,0-1.486-.08-1.8-.093-1.364-.045-2.729-.065-4.094-.1-.29-.009-.581-.084-.871-.088-.984-.012-1.973,0-2.961,0-.35,0-.7-.008-1.053.008-.38.017-.756.077-1.136.082-.858.013-1.715,0-2.572,0-.314,0-.628.007-.94-.016-1.151-.082-2.3-.181-3.451-.259-.143-.011-1.608-.049-2.212-.023-1.04.047-2.088,0-3.131-.016-.236-.005-.472-.061-.705-.052-.419.014-3.323.177-4.371.11s-2.08.05-3.123.063c-.412.007-.825-.046-1.24-.07-.343-.023-.686-.058-1.03-.056-.23,0-5.332.082-5.925-.008a12.658,12.658,0,0,0-2.306.049c-.329.013-5.349.281-5.418.279-.709-.022-1.42-.054-2.129-.066-.613-.012-2.839.179-3.278.148-.944-.067-5.375-.243-5.8-.256-.322-.011-5.047.089-5.434.154-.235.04-2.028.017-2.583,0-.744-.032-2.538.013-2.693.012-.38,0-.76-.014-1.14-.012-.525,0-1.047.008-1.573.015a1.914,1.914,0,0,0-.423.014c-.579.138-1.187-.026-1.774.171a4.386,4.386,0,0,1-1.129.1c-.548.029-1.1.081-1.645.066-.744-.022-3.14.009-3.524.029-.645.034-1.295.027-1.943.034-.094,0-.19-.021-.285-.022-.769-.012-1.54-.03-2.311-.026-.626,0-1.249.037-1.876.046-.455.009-.912-.022-1.365,0-.4.024-1.858.081-2.179.084-.787.009-8.082.583-9.5.552-.315-.008-2.571.042-3.381.033-.569-.007-7.432.085-8.823.091-.7,0-1.4-.016-2.1.019-.725.035-1.446.109-2.165.191-.5.058-1,.145-1.492.244-.246.047-.41.208-.255.441.176.266.41.5.61.76.381.489.754.984,1.135,1.475.452.578.917,1.149,1.362,1.732.463.6.91,1.218,1.362,1.831.227.308.428.633.678.928.237.278,1.565,2.074,2.015,2.679.289.39,2.046,2.285,2.532,2.906.723.927,1.427,1.866,2.151,2.791.281.359.6.695.893,1.047.194.235.364.489.571.715.118.127.311.2.432.325.359.368.671.775,1.054,1.118s.841.638,1.252.966a.433.433,0,0,1,.153.295,3.122,3.122,0,0,1-.932,2.1c-.217.249-3.65,5.307-4,5.781-.772,1.044-1.54,2.092-2.319,3.133l-2.605,3.216c-.6.8-1.221,1.6-1.875,2.362-.553.648-1.176,1.244-1.746,1.878-.672.744-1.333,1.5-1.972,2.262-.251.3-.48.609-.732.952C388.01,95.687,387.359,96.26,388.178,96.315Z" fill="#e36386" fill-rule="evenodd"/>
        </g>
      </g>
    </g>
    <g id="Group_80" data-name="Group 80">
      <path id="Path_322" data-name="Path 322" d="M420.724,63.205a11.617,11.617,0,0,1,6.224,1.473,5.785,5.785,0,0,1,2.685,5.012,4.7,4.7,0,0,1-2.882,4.422,5.433,5.433,0,0,1,3.832,5.208,6.291,6.291,0,0,1-4.094,5.895,16.39,16.39,0,0,1-6.027.917H414.7V63.205Zm-1.343,9.334h1.311c2.685,0,4.257-.884,4.257-2.685a2.51,2.51,0,0,0-.982-2.129,6.869,6.869,0,0,0-3.668-.59h-.918Zm0,9.663h1.081a9.147,9.147,0,0,0,3.8-.492,2.336,2.336,0,0,0,1.311-2.292c0-1.9-1.245-3.079-3.571-3.079h-2.62Z" fill="#fff"/>
      <path id="Path_323" data-name="Path 323" d="M449.116,86.132l-1.473-4.258h-8.156l-1.54,4.258h-5.208l9.368-22.927h3.8l8.614,22.927Zm-8.254-8.09h5.47l-2.653-7.7h-.032Z" fill="#fff"/>
      <path id="Path_324" data-name="Path 324" d="M463.489,63.205a11.613,11.613,0,0,1,6.223,1.473A5.783,5.783,0,0,1,472.4,69.69a4.7,4.7,0,0,1-2.882,4.422,5.434,5.434,0,0,1,3.832,5.208,6.292,6.292,0,0,1-4.1,5.895,16.385,16.385,0,0,1-6.026.917h-5.765V63.205Zm-1.343,9.334h1.31c2.686,0,4.258-.884,4.258-2.685a2.512,2.512,0,0,0-.982-2.129,6.872,6.872,0,0,0-3.669-.59h-.917Zm0,9.663h1.081a9.147,9.147,0,0,0,3.8-.492,2.335,2.335,0,0,0,1.31-2.292c0-1.9-1.244-3.079-3.57-3.079h-2.62Z" fill="#fff"/>
      <path id="Path_325" data-name="Path 325" d="M482.546,86.132v-9.6l-7.3-13.33h5.83l3.963,8.254h.066l4.323-8.254h5.47l-7.665,13.462v9.465Z" fill="#fff"/>
      <path id="Path_326" data-name="Path 326" d="M513.684,86.132V63.205h2.424V83.9h10.22v2.227Z" fill="#fff"/>
      <path id="Path_327" data-name="Path 327" d="M529.86,86.132V63.205h13.331v2.227H532.284v7.73h10.907v2.227H532.284V83.9h10.907v2.227Z" fill="#fff"/>
      <path id="Path_328" data-name="Path 328" d="M548.851,63.205h5.962c5.8,0,12.184,3.079,12.184,11.365,0,8.484-6.354,11.562-12.511,11.562h-5.635Zm3.767,20.7c7.075,0,11.791-2.129,11.791-9.04,0-6.19-3.766-9.433-10.218-9.433h-2.916V83.9Z" fill="#fff"/>
    </g>
    <g id="Group_81" data-name="Group 81">
      <path id="Path_329" data-name="Path 329" d="M506.684,73.227a2.9,2.9,0,0,0,.3-1.765c-.123-1.184-.808-1.542-1.9-1.079a2.583,2.583,0,0,0-1.737,2.466c0,.677-.193,1.147-.846,1.233-.819.107-.725-.622-.931-1.125a8.939,8.939,0,0,0-1.127-2.049,1.9,1.9,0,0,0-2.328-.15c-.626.511-.3,1.129-.128,1.7a2.947,2.947,0,0,0,.4.738c1.018,1.539,2.043,3.074,3.124,4.7m0,0,.832-7.1a4.433,4.433,0,0,1,4.07-2.13c1.2.047,1.549.314,1.953,1.462.759,2.157-.027,3.9-1.493,5.386-1.5,1.525-3.1,2.958-4.685,4.4-.659.6-1.6.5-1.82-.279-.765-2.67-2.893-4.565-3.879-7.111-.68-1.755-.329-2.811,1.422-3.4a3.376,3.376,0,0,1,4.432,1.677" fill="#ffb71b"/>
    </g>
    <g id="Group_82" data-name="Group 82">
      <path id="Path_330" data-name="Path 330" d="M429.75,102.6h-9.383a.3.3,0,0,0-.3.3v16.929a.3.3,0,0,0,.3.3h3.458a.3.3,0,0,0,.3-.3v-6.518h5.623a.3.3,0,0,0,.3-.3V110.09a.3.3,0,0,0-.3-.3h-5.623v-3.652h5.623a.3.3,0,0,0,.3-.3v-2.926A.3.3,0,0,0,429.75,102.6Z" fill="#e36386"/>
      <path id="Path_331" data-name="Path 331" d="M450.645,102.6H439.786a.3.3,0,0,0-.3.3v16.929a.3.3,0,0,0,.3.3h10.859a.3.3,0,0,0,.3-.3v-2.927a.3.3,0,0,0-.3-.3h-7.1v-3.724h7.1a.3.3,0,0,0,.3-.3v-2.927a.3.3,0,0,0-.3-.3h-7.1v-3.217h7.1a.3.3,0,0,0,.3-.3v-2.926A.3.3,0,0,0,450.645,102.6Z" fill="#e36386"/>
      <path id="Path_332" data-name="Path 332" d="M471.926,102.6H461.067a.3.3,0,0,0-.3.3v16.929a.3.3,0,0,0,.3.3h10.859a.3.3,0,0,0,.3-.3v-2.927a.3.3,0,0,0-.3-.3h-7.1v-3.724h7.1a.3.3,0,0,0,.3-.3v-2.927a.3.3,0,0,0-.3-.3h-7.1v-3.217h7.1a.3.3,0,0,0,.3-.3v-2.926A.3.3,0,0,0,471.926,102.6Z" fill="#e36386"/>
      <path id="Path_333" data-name="Path 333" d="M493.748,104.567a10.789,10.789,0,0,0-6.466-1.963h-4.934a.3.3,0,0,0-.3.3v16.929a.3.3,0,0,0,.3.3h4.716a11.143,11.143,0,0,0,6.676-1.98,8.194,8.194,0,0,0,3.131-6.859A8.044,8.044,0,0,0,493.748,104.567Zm-7.639,1.568h.762c3.673,0,5.7,1.911,5.7,5.381,0,3.426-2.084,5.091-6.372,5.091h-.085Z" fill="#e36386"/>
      <rect id="Rectangle_157" data-name="Rectangle 157" width="4.063" height="17.534" rx="0.302" transform="translate(506.592 102.604)" fill="#e36386"/>
      <path id="Path_334" data-name="Path 334" d="M535.722,102.6h-3.459a.3.3,0,0,0-.3.3v9.7l-7.29-9.878a.3.3,0,0,0-.243-.123h-3.047a.3.3,0,0,0-.3.3v16.929a.3.3,0,0,0,.3.3h3.458a.3.3,0,0,0,.3-.3v-9.669l7.217,9.847a.3.3,0,0,0,.244.124h3.12a.3.3,0,0,0,.3-.3V102.907A.3.3,0,0,0,535.722,102.6Z" fill="#e36386"/>
      <path id="Path_335" data-name="Path 335" d="M562.42,109.763H554.9a.3.3,0,0,0-.3.3v2.927a.3.3,0,0,0,.3.3h3.761V115.4a5.5,5.5,0,0,1-3.616,1.4c-3,0-5.018-2.182-5.018-5.43a5.12,5.12,0,0,1,5.018-5.429,6,6,0,0,1,4.487,2.289.3.3,0,0,0,.427.031l2.394-2.08a.3.3,0,0,0,.031-.426,9.372,9.372,0,0,0-7.339-3.442,9.1,9.1,0,0,0-9.323,9.057c0,5.248,3.921,9.057,9.323,9.057a9.2,9.2,0,0,0,7.618-3.58.3.3,0,0,0,.06-.18v-6.6A.3.3,0,0,0,562.42,109.763Z" fill="#e36386"/>
    </g>
    <path id="Path_336" data-name="Path 336" d="M538.267,30.991a31.513,31.513,0,0,1-4.739,8.378c-1.319,1.687-3.021,1.634-4.458.032a19.593,19.593,0,0,1-1.416-2.055c-1.114,1.891-2.191,3.909-4.813,3.741-2.524-.161-3.681-1.926-4.492-4.3-.944,1.34-1.753,2.571-2.652,3.734a14.156,14.156,0,0,1-2.025,2.188c-1.814,1.528-3.721,1.343-4.881-.732a12.48,12.48,0,0,1-1.574-4.9c-.213-2.617.085-5.274.094-7.914a4.389,4.389,0,0,0-.526-1.414c-.505.2-1.313.275-1.465.629a43.925,43.925,0,0,0-2.384,6.385,47.6,47.6,0,0,0-.535,5.345c-.141,1.04.088,2.431-1.672,2.486-1.215.039-1.867-.425-2-1.667-.211-1.968-.479-3.929-.73-5.95-1.85.626-3.09,1.485-2.94,3.572a6.64,6.64,0,0,1-.48,2.026c-.388,1.446-1.19,2.666-2.7,2.9a4.094,4.094,0,0,1-3.746-1.783c-1.608-1.935-2.015-4.291-2.274-6.763h-1.867c-.536,2.036-1.013,4-1.58,5.942-.427,1.461-1.289,2.491-3,2.359-1.683-.13-2.507-1.309-3.091-2.682a18.55,18.55,0,0,1-.657-2.379c-.735,1.283-1.291,2.443-2.019,3.484a2.909,2.909,0,0,1-5.054-.186,9.494,9.494,0,0,1-1.115-4.565c.18-3.372.744-6.726,1.247-10.073.065-.432.758-1.141,1.042-1.087a1.868,1.868,0,0,1,1.285,1.07,12.389,12.389,0,0,1,.238,3.1c-.032,2.987-.138,5.974-.17,8.961a3.034,3.034,0,0,0,.363,1.433c.364.661,1,.857,1.333.04,1.146-2.779,2.93-5.379,2.582-8.612-.076-.7-.173-1.451.851-1.567.995-.113,1.723.275,1.842,1.294.227,1.931.325,3.876.524,5.81a16.887,16.887,0,0,0,.468,2.646c.1.382.432.9.743.972a1.22,1.22,0,0,0,1.037-.6c.554-1.623,1.033-3.277,1.424-4.947.068-.292-.359-.757-.64-1.066a8.515,8.515,0,0,1-2.329-5.384c-.051-.925.023-1.846,1.129-2.182a1.792,1.792,0,0,1,2.293,1.189A40.273,40.273,0,0,1,483.92,32.5a5.73,5.73,0,0,1,.08.732c1.746.459,2.157.225,2.428-1.51a7.073,7.073,0,0,1,2.3-4.411,2.319,2.319,0,0,1,3.215-.194c2.523,1.59,2.731,4.239,3.267,6.751,1.776,0,2.565-.9,2.223-2.548-.172-.829-.4-1.647-.6-2.469-.326-1.294.255-1.933,1.552-1.615a3.962,3.962,0,0,1,3.005,2.834c.169.552.273,1.124.42,1.74,1.668-2.278,2.027-5.741,5.61-5.777.953-2.715,1.833-5.354,2.814-7.954a3.883,3.883,0,0,1,2.669-2.618c1.61-.42,2.962.253,3.017,1.912a15.79,15.79,0,0,1-.639,5.442c-1.121,3.343-2.539,6.592-3.958,9.826-1.222,2.785-.755,5.567-.239,8.357.142.769.858.875,1.393.363,2.6-2.487,5.113-5.062,5.789-8.8.515-2.845,1.92-4.958,4.761-5.758a13.348,13.348,0,0,1,3.438-.047,37.887,37.887,0,0,1,.028-4.292c.311-2.7.737-5.4,1.223-8.079a2.093,2.093,0,0,1,2.465-1.842c1.36.154,2.733.726,2.915,2.156a17.619,17.619,0,0,1-.129,5.458,73.166,73.166,0,0,1-2.242,8.528,15.943,15.943,0,0,0-.124,8.124,5.776,5.776,0,0,0,1.044,1.693,6.952,6.952,0,0,0,1.579-1.186c1.593-2.145,3.1-4.355,4.638-6.54ZM521.489,33.4c.318,1.782.5,3.261.879,4.689a2.088,2.088,0,0,0,1.143,1.331c.329.1,1.015-.52,1.326-.968a11.975,11.975,0,0,0,2.076-8.052c-.084-1,0-2.1-1.326-2.321-1.259-.209-2.517,0-3.027,1.306A33.388,33.388,0,0,0,521.489,33.4Zm-31.86-1.323a11.219,11.219,0,0,0-.675,3.122,19.213,19.213,0,0,0,1.18,5.458c.724,1.655,2.325,1.506,2.958-.16a16.761,16.761,0,0,0,.711-3.64.94.94,0,0,0-.487-.763C491.518,35.523,490.492,34.194,489.629,32.082Zm24.925-15.5c-1.579,1.32-3.906,11.01-3.349,13.294a2.812,2.812,0,0,0,.379-.474,31.928,31.928,0,0,0,3.3-11.1A6.762,6.762,0,0,0,514.554,16.582Zm16.963-2.012c-1.515,1.238-2.406,8-1.69,10.854A20.4,20.4,0,0,0,531.517,14.57ZM493.5,34.131l.476-.186-1.523-4.427C491.388,31.755,491.89,33.32,493.5,34.131Zm-11.869-5.8-.817.168.944,3.542.544-.14Z" fill="#e36386"/>
    <path id="Path_337" data-name="Path 337" d="M437.277,31.83c.26-.4.518-.8.781-1.19a24.228,24.228,0,0,1,1.514-2.224c.966-1.147,2.125-2.13,3.749-1.516s1.877,2.078,1.777,3.606c-.134,2.041-.345,4.077-.465,6.119a18.744,18.744,0,0,0,.209,2.4,11.814,11.814,0,0,0,1.35-1.261c1.435-1.975,2.76-3.917,2.952-6.558a13.849,13.849,0,0,1,1.718-5.189c1.057-2.019,4.344-2.064,5.751-.246a1.9,1.9,0,0,1-.134,2.719c-1.012.925-2.249,1.6-3.343,2.439-.379.292-.936.821-.877,1.142a82.519,82.519,0,0,0,1.858,8.546c.406,1.367,1.619,1.382,2.516.154.968-1.325,1.745-2.789,2.641-4.169,1.31-2.016,2.652-4.01,3.981-6.014l.532.305c-1.809,3.639-3.436,7.384-5.484,10.883-1.7,2.9-6.4,2.465-7.96-.574-.672-1.308-1.1-2.742-1.669-4.2-.65.832-1.307,1.741-2.036,2.587s-1.743,1.738-2.828,1.154a3.74,3.74,0,0,1-1.87-2.41c-.217-2.714-.048-5.461,0-8.194a8.663,8.663,0,0,0,.032-1.772c-2.393,2.564-4.625,5.177-4.717,8.929-.016.649-.063,1.3-.019,1.947.1,1.444-.723,1.9-1.984,2.05-1.488.179-1.417-.88-1.561-1.809-.127-.822-.267-1.642-.468-2.866-.451.738-.7,1.189-.989,1.61-.961,1.394-1.843,2.857-2.931,4.146-1.751,2.075-4.282,1.952-5.528-.477a12.75,12.75,0,0,1-1.3-5.424c-.055-3.03.354-6.068.572-9.1.032-.437.087-.872.136-1.357a8.554,8.554,0,0,1-1.97-.033,8.971,8.971,0,0,1-1.824-1c4.271-.786,4.269-.786,5.159-4.83a7.643,7.643,0,0,1,.494-1.871c.259-.5.986-1.287,1.152-1.207.678.324,1.571.84,1.734,1.457a14.905,14.905,0,0,1,.078,3.584c.851-.259,1.546-.473,2.242-.683s1.38-.41,2.071-.616l.254.376a4.355,4.355,0,0,1-.853.833,12.47,12.47,0,0,1-1.4.477c-2.156.856-3.421,2.228-3.39,4.772.052,4.231-.156,8.465-.191,12.7,0,.468.41.94.63,1.411.454-.257,1.072-.4,1.335-.789,1.4-2.058,2.757-4.151,4.026-6.292a3.458,3.458,0,0,0,.153-1.746c-.156-4.608-.085-9.2,1.426-13.619.611-1.79,1.254-3.606,3.146-4.54,1.373-.679,2.865-.329,3.305,1.126a7.167,7.167,0,0,1,.183,3.916c-1.023,3.377-2.378,6.653-3.572,9.979-.258.72-.387,1.486-.576,2.23Zm-.546-5.364.425.116c.854-2.672,1.785-5.324,2.522-8.028a2.537,2.537,0,0,0-.793-2.926C437.179,17.189,436.281,21.833,436.731,26.466ZM452.6,29.032l2.933-2.319C453.538,25.113,452.789,26.4,452.6,29.032Z" fill="#e36386"/>
    <path id="Path_338" data-name="Path 338" d="M567.748,30.784c-.823,3.178-2.672,4.521-5.728,4-.023.133-.107.293-.06.4,1.575,3.462,1.687,7.136,1.577,10.841-.09,3.017-1.951,4.546-4.686,3.754a3.477,3.477,0,0,1-1.62-1.182c-2.046-2.62-2.6-5.777-3.023-8.954-.19-1.422-.259-2.86-.383-4.3a2.559,2.559,0,0,0-2.38,2.834,9.744,9.744,0,0,1-.547,2.471c-.369,1.4-1.2,2.762-2.594,2.747a6.046,6.046,0,0,1-3.641-1.581,7.673,7.673,0,0,1-2.276-5.7c-.026-3.132.047-6.333,2.627-8.731a2.318,2.318,0,0,1,3.323-.221c2.513,1.608,2.676,4.273,3.227,6.771,1.677-.149,2.1-.685,2.31-2.3a86,86,0,0,1,1.625-10.3,14.273,14.273,0,0,1,3.051-5.369,2.7,2.7,0,0,1,4.719,1.514,12.963,12.963,0,0,1-.552,5.421,34.7,34.7,0,0,1-3.194,6.217c-.513.864-.536,1.412.2,2.044.415.357.777.775,1.179,1.149,1.87,1.737,2.844,1.705,4.724-.009A19.736,19.736,0,0,1,567.748,30.784Zm-10.134,1.752a36.486,36.486,0,0,0,2.61,16.259C563.323,46.137,561.573,34.848,557.614,32.536Zm-11.764.015a9.2,9.2,0,0,0-.559,2.708,25.086,25.086,0,0,0,1.053,5.205,2.457,2.457,0,0,0,1.829,1.207c.417.041,1.15-.781,1.348-1.352a15.484,15.484,0,0,0,.622-3.36,1.074,1.074,0,0,0-.537-.868A7.031,7.031,0,0,1,545.85,32.551Zm12.061-4.636c2.924-3.437,4.41-6.871,3.641-11.462-.716.538-1.293.774-1.561,1.2C558.107,20.674,557.8,24.03,557.911,27.915Zm-7.492,6.409-1.717-5.2C547.643,31.539,548.232,33.4,550.419,34.324Z" fill="#e36386"/>
    <path id="Path_339" data-name="Path 339" d="M537.965,30.688a31.505,31.505,0,0,1-4.74,8.379c-1.318,1.686-3.02,1.634-4.458.032a19.612,19.612,0,0,1-1.415-2.056c-1.114,1.891-2.192,3.909-4.813,3.742-2.525-.162-3.681-1.927-4.492-4.3-.944,1.34-1.754,2.571-2.652,3.734a14.149,14.149,0,0,1-2.025,2.187c-1.814,1.529-3.721,1.344-4.881-.732a12.469,12.469,0,0,1-1.574-4.9c-.214-2.617.084-5.274.094-7.914a4.361,4.361,0,0,0-.527-1.414c-.505.2-1.312.275-1.464.629a43.808,43.808,0,0,0-2.384,6.385,47.379,47.379,0,0,0-.535,5.344c-.141,1.041.088,2.432-1.672,2.487-1.216.038-1.867-.425-2-1.667-.211-1.968-.479-3.93-.73-5.95-1.85.626-3.091,1.485-2.94,3.572a6.62,6.62,0,0,1-.481,2.026c-.387,1.445-1.189,2.666-2.7,2.9a4.1,4.1,0,0,1-3.746-1.783c-1.609-1.935-2.015-4.291-2.275-6.763h-1.866c-.537,2.035-1.013,4-1.58,5.942-.427,1.461-1.29,2.49-3,2.358-1.683-.129-2.507-1.308-3.091-2.681a18.432,18.432,0,0,1-.657-2.379c-.735,1.282-1.292,2.443-2.019,3.483a2.909,2.909,0,0,1-5.055-.185,9.5,9.5,0,0,1-1.114-4.565c.18-3.372.744-6.726,1.246-10.074.065-.432.759-1.14,1.042-1.087a1.871,1.871,0,0,1,1.286,1.071,12.382,12.382,0,0,1,.238,3.1c-.032,2.987-.138,5.974-.17,8.961A3.036,3.036,0,0,0,471.176,40c.364.661,1,.857,1.334.04,1.146-2.78,2.93-5.379,2.582-8.612-.076-.7-.173-1.451.851-1.568.995-.113,1.723.276,1.842,1.3.226,1.93.325,3.875.523,5.81a16.906,16.906,0,0,0,.469,2.646c.1.382.431.9.743.972a1.217,1.217,0,0,0,1.036-.6c.555-1.623,1.034-3.276,1.425-4.946.068-.293-.359-.757-.641-1.066a8.522,8.522,0,0,1-2.328-5.384c-.052-.926.023-1.846,1.128-2.182a1.792,1.792,0,0,1,2.294,1.189,40.216,40.216,0,0,1,1.183,4.606,5.389,5.389,0,0,1,.08.732c1.747.458,2.158.225,2.429-1.51a7.073,7.073,0,0,1,2.3-4.411,2.319,2.319,0,0,1,3.215-.195c2.523,1.59,2.731,4.239,3.267,6.751,1.776,0,2.565-.9,2.223-2.547-.172-.829-.4-1.648-.6-2.469-.326-1.3.255-1.934,1.551-1.616a3.961,3.961,0,0,1,3,2.834c.17.552.274,1.125.42,1.741,1.669-2.278,2.028-5.741,5.611-5.777.953-2.715,1.832-5.354,2.813-7.955a3.886,3.886,0,0,1,2.67-2.618c1.61-.419,2.962.254,3.017,1.913a15.793,15.793,0,0,1-.639,5.442c-1.121,3.342-2.539,6.592-3.958,9.826-1.222,2.784-.755,5.566-.239,8.357.142.769.858.874,1.393.362,2.6-2.486,5.113-5.062,5.789-8.8.514-2.844,1.92-4.957,4.761-5.757a13.338,13.338,0,0,1,3.437-.048,37.889,37.889,0,0,1,.029-4.292c.311-2.7.736-5.4,1.223-8.078a2.092,2.092,0,0,1,2.464-1.842c1.36.153,2.734.725,2.916,2.156a17.588,17.588,0,0,1-.13,5.458,72.807,72.807,0,0,1-2.242,8.528,15.95,15.95,0,0,0-.123,8.123,5.8,5.8,0,0,0,1.043,1.694,6.94,6.94,0,0,0,1.58-1.187c1.593-2.144,3.1-4.354,4.638-6.54ZM521.187,33.1c.318,1.782.5,3.261.879,4.689a2.085,2.085,0,0,0,1.143,1.331c.328.095,1.015-.52,1.326-.968A11.968,11.968,0,0,0,526.61,30.1c-.083-1,0-2.1-1.325-2.321-1.259-.21-2.517,0-3.027,1.306A33.2,33.2,0,0,0,521.187,33.1Zm-31.86-1.324a11.2,11.2,0,0,0-.675,3.123,19.22,19.22,0,0,0,1.18,5.458c.723,1.655,2.325,1.506,2.958-.16a16.819,16.819,0,0,0,.711-3.64.942.942,0,0,0-.487-.763C491.216,35.221,490.19,33.892,489.327,31.779Zm24.925-15.5c-1.58,1.32-3.906,11.01-3.349,13.294a2.865,2.865,0,0,0,.379-.474,31.928,31.928,0,0,0,3.3-11.1A6.845,6.845,0,0,0,514.252,16.28Zm16.963-2.012c-1.516,1.238-2.406,8-1.69,10.854A20.4,20.4,0,0,0,531.215,14.268ZM493.2,33.828l.476-.186-1.522-4.426C491.085,31.453,491.587,33.018,493.2,33.828Zm-11.869-5.794-.816.168.944,3.541L482,31.6Z" fill="#ffb71b"/>
    <path id="Path_340" data-name="Path 340" d="M436.975,31.528c.26-.4.518-.8.781-1.19a24.092,24.092,0,0,1,1.513-2.225c.967-1.146,2.126-2.13,3.75-1.515s1.876,2.078,1.776,3.606c-.133,2.041-.344,4.077-.464,6.119a18.547,18.547,0,0,0,.209,2.395,11.724,11.724,0,0,0,1.35-1.261c1.435-1.974,2.759-3.916,2.951-6.558a13.846,13.846,0,0,1,1.719-5.188c1.057-2.019,4.343-2.064,5.75-.246a1.9,1.9,0,0,1-.134,2.718c-1.011.925-2.248,1.6-3.342,2.44-.379.292-.937.82-.877,1.142a82.519,82.519,0,0,0,1.858,8.546c.406,1.366,1.619,1.382,2.516.154.968-1.325,1.744-2.789,2.641-4.169,1.31-2.016,2.652-4.011,3.981-6.015l.532.306c-1.809,3.639-3.436,7.384-5.484,10.883-1.7,2.9-6.4,2.465-7.96-.574-.672-1.309-1.1-2.742-1.669-4.195-.651.832-1.307,1.741-2.037,2.587s-1.743,1.738-2.827,1.154a3.739,3.739,0,0,1-1.87-2.41c-.217-2.715-.048-5.461,0-8.194a8.74,8.74,0,0,0,.032-1.772c-2.394,2.564-4.625,5.177-4.717,8.929-.016.649-.063,1.3-.019,1.947.1,1.443-.723,1.9-1.984,2.05-1.488.178-1.417-.88-1.561-1.809-.128-.822-.267-1.642-.468-2.867-.451.738-.7,1.189-.989,1.611-.962,1.394-1.844,2.857-2.931,4.146-1.751,2.075-4.282,1.952-5.528-.477a12.751,12.751,0,0,1-1.3-5.424c-.055-3.03.355-6.068.573-9.1.032-.437.087-.872.136-1.357a8.55,8.55,0,0,1-1.97-.034,9.012,9.012,0,0,1-1.825-1c4.272-.786,4.27-.787,5.16-4.831a7.6,7.6,0,0,1,.494-1.87c.259-.5.986-1.287,1.151-1.208.678.325,1.572.84,1.735,1.458a14.959,14.959,0,0,1,.078,3.584c.851-.26,1.546-.474,2.242-.683s1.38-.411,2.07-.616l.254.375a4.279,4.279,0,0,1-.853.834,12.269,12.269,0,0,1-1.4.476c-2.155.857-3.421,2.229-3.389,4.773.052,4.231-.157,8.465-.191,12.7,0,.469.41.941.63,1.412.454-.257,1.072-.4,1.335-.789,1.4-2.058,2.756-4.151,4.026-6.292a3.473,3.473,0,0,0,.152-1.747c-.155-4.607-.084-9.195,1.427-13.618.611-1.79,1.254-3.607,3.145-4.541,1.374-.678,2.866-.328,3.3,1.126a7.171,7.171,0,0,1,.184,3.917c-1.024,3.377-2.379,6.653-3.572,9.979-.258.72-.387,1.485-.576,2.23Zm-.546-5.364.424.116c.855-2.672,1.786-5.324,2.523-8.028a2.538,2.538,0,0,0-.793-2.926C436.877,16.887,435.979,21.531,436.429,26.164ZM452.3,28.73l2.934-2.319C453.236,24.81,452.487,26.1,452.3,28.73Z" fill="#ffb71b"/>
    <path id="Path_341" data-name="Path 341" d="M567.446,30.481c-.824,3.179-2.672,4.521-5.729,4-.023.134-.106.294-.06.4,1.575,3.462,1.688,7.135,1.578,10.841-.09,3.017-1.952,4.546-4.687,3.753a3.471,3.471,0,0,1-1.619-1.181c-2.046-2.62-2.6-5.778-3.023-8.955-.19-1.421-.259-2.859-.384-4.294a2.558,2.558,0,0,0-2.379,2.834,9.8,9.8,0,0,1-.547,2.471c-.37,1.394-1.2,2.762-2.594,2.747a6.044,6.044,0,0,1-3.641-1.581,7.67,7.67,0,0,1-2.276-5.705c-.026-3.132.047-6.334,2.627-8.731a2.318,2.318,0,0,1,3.323-.221c2.512,1.608,2.676,4.273,3.227,6.77,1.677-.148,2.1-.685,2.309-2.3a86.358,86.358,0,0,1,1.625-10.3,14.294,14.294,0,0,1,3.052-5.37,2.7,2.7,0,0,1,4.718,1.515,12.946,12.946,0,0,1-.551,5.421,34.761,34.761,0,0,1-3.194,6.217c-.513.864-.536,1.411.2,2.044.416.357.778.775,1.18,1.149,1.869,1.737,2.844,1.7,4.723-.01A19.992,19.992,0,0,1,567.446,30.481Zm-10.134,1.752a36.47,36.47,0,0,0,2.61,16.259C563.021,45.835,561.27,34.546,557.312,32.233Zm-11.765.016a9.2,9.2,0,0,0-.558,2.708,25.1,25.1,0,0,0,1.053,5.2,2.459,2.459,0,0,0,1.829,1.206c.417.042,1.15-.78,1.348-1.351a15.484,15.484,0,0,0,.622-3.36,1.076,1.076,0,0,0-.537-.868A7.036,7.036,0,0,1,545.547,32.249Zm12.062-4.636c2.924-3.437,4.41-6.871,3.641-11.462-.717.538-1.293.774-1.561,1.2C557.8,20.372,557.5,23.727,557.609,27.613Zm-7.492,6.409-1.717-5.2C547.341,31.236,547.929,33.1,550.117,34.022Z" fill="#ffb71b"/>
  </g>
</svg>
