<svg xmlns="http://www.w3.org/2000/svg" width="171.43" height="63.585" viewBox="0 0 171.43 63.585">
  <g id="Group_161" data-name="Group 161" transform="translate(-1244.586 -174.253)">
    <path id="Path_49" data-name="Path 49" d="M1410.7,203.219c-.94-.694-1.181-1.43-.718-2a1.02,1.02,0,0,1,1.387-.019c.465.539.238,1.276-.669,2.024" fill="#fff"/>
    <g id="Group_161-2" data-name="Group 161">
      <path id="Path_46" data-name="Path 46" d="M1297.644,205.221a22.5,22.5,0,0,0-4.177.452,1.928,1.928,0,0,0-1.334,1.128c-.235.557-.468,1.113-.7,1.672a12.332,12.332,0,0,1-1.654,3.434,5.363,5.363,0,0,0-.579,1.279,25.674,25.674,0,0,1-1.886,3.993,14.176,14.176,0,0,1-2.976,2.954,33.9,33.9,0,0,1-3.428,2.135c-.84,1.947-.389,4.247-1.458,6.147-1.315-.279-1.379-.311-1.342-1.146.051-1.2.154-2.4.235-3.6-1.14-.315-2.347-.155-4.262.567-.69,1.547-.344,3.27-.6,4.889-1.193.083-1.456.011-1.617-.718a14.785,14.785,0,0,1-.262-2.388c-.03-.587.031-1.182.054-1.785a4.8,4.8,0,0,0-2.251-.345,17.662,17.662,0,0,1-6.191-1.692,13.046,13.046,0,0,1-5.119-4.441,8.49,8.49,0,0,0-2.195-2.331,3.934,3.934,0,0,0-3.2-.762,36.4,36.4,0,0,1-3.986.577c-.665.077-1.341.069-2.012.083a2.5,2.5,0,0,1-1.658-.636,1.407,1.407,0,0,1,.057-2.12c.487-.357,1.018-.652,1.64-1.042-.255-.271-.453-.52-.69-.724-1.635-1.409-1.512-2.077.554-2.879.5-.192,1.019-.34,1.522-.53a7.25,7.25,0,0,0,.738-.387c-.3-.6-.6-1.1-.822-1.639a.879.879,0,0,1,.717-1.336,11.458,11.458,0,0,1,2.407.022,13.744,13.744,0,0,1,6.113,2.048c1.256-1.018,2.107-2.089,1.9-3.774a16.9,16.9,0,0,1-.077-2.82c.118-2.751.279-5.5.429-8.252a.977.977,0,0,1,.132-.572,1.994,1.994,0,0,1,.791-.549.647.647,0,0,1,.784.465c.208.493.352,1.02.6,1.492a30.133,30.133,0,0,0,1.721,2.962,17.851,17.851,0,0,1,2.4,4.409,4.2,4.2,0,0,0,.583.814,3.194,3.194,0,0,0,.274-.855,11.662,11.662,0,0,1,1.267-5.635,34.078,34.078,0,0,1,3.332-5.976,15,15,0,0,1,2.059-2.189.862.862,0,0,1,1.467.384,10.242,10.242,0,0,1,.7,2.1c.406,2.176.74,4.368,1.106,6.554.064.381.142.76.243,1.29.61-.169,1.125-.267,1.607-.452,1.886-.714,3.756-1.465,5.641-2.184a9.083,9.083,0,0,1,4.154-.626,6.68,6.68,0,0,1,5.369,3.107,3.7,3.7,0,0,0,1.595,1.474,18.963,18.963,0,0,1,5.993,4.235c3.067,3.531-3.7,3.723-3.7,3.723m-3.945-1.937a10.242,10.242,0,0,0,4.377-.347,1.519,1.519,0,0,0,1.238-1.157,10.757,10.757,0,0,0-4.708-2.523c-.142,1.429-.912,2.575-.907,4.027m-32.4-8.058c-.358.184-.292.553-.307.864-.064,1.4-.072,2.807-.162,4.205a13.9,13.9,0,0,0,.282,3.383c.389,2.14,1.2,2.232,2.858,2.464a2.11,2.11,0,0,0,2.175-.727,2.308,2.308,0,0,0-.267-2.457,1.6,1.6,0,0,0-.243-.315,5.522,5.522,0,0,1-1.444-2.82,11.279,11.279,0,0,0-2.692-4.6c-.025-.031-.117,0-.2,0m7.438,4.272a1.919,1.919,0,0,0,.6-.035c1.359-.559,2.7-1.17,4.068-1.705a2.2,2.2,0,0,0,1.513-2.309,26.973,26.973,0,0,0-.754-6.156,5.055,5.055,0,0,0-.364-.8,26.052,26.052,0,0,0-4.575,7.88,4.4,4.4,0,0,0-.485,3.122m-17.435,10.76a2.868,2.868,0,0,0-2.519-.55,4.555,4.555,0,0,0,2.577.506c.156.5.313,1,.469,1.507a13.4,13.4,0,0,1,4.5,1.912,11.343,11.343,0,0,1,3.01,2.936,9.531,9.531,0,0,0,4.739,3.92,9.056,9.056,0,0,0,1.536.457,34.853,34.853,0,0,0,4.756.824,18.62,18.62,0,0,0,10.312-2.224c3.12-1.765,5.658-4.07,6.739-7.676a9.6,9.6,0,0,1,1.258-2.5,9.278,9.278,0,0,0,1.183-2.548,12.949,12.949,0,0,1,1.044-2.769,17.834,17.834,0,0,0,1.658-4.312c.663-2.579-.163-4.127-2.587-4.825a6.9,6.9,0,0,0-4.552,0c-2.568.992-5.155,1.937-7.725,2.932a2.13,2.13,0,0,0-.952.682,1.155,1.155,0,0,1-1.17.554,3.3,3.3,0,0,0-1.341.3c-1.12.457-2.226.949-3.321,1.461-1.022.476-2.021,1-3.106,1.536.206.674.4,1.237.55,1.813.628,2.384-.493,4.009-2.917,4.23a5.922,5.922,0,0,1-4.36-1.2c-.253-.2-.505-.4-.822-.654-.309.289-.554.5-.778.736-.28.288-.528.611-.814.893a.942.942,0,0,1-1.268.179c-.345-.206-.639-.5-.993-.685a4.973,4.973,0,0,0-3.018-.965c-.094-.075-.191-.15-.286-.224-.01.053-.022.1-.033.154.122,0,.245.008.367.015.235.2.455.427.7.609a1.933,1.933,0,0,1,.785,1.322.684.684,0,0,1-.651.81c-.847-.053-1.691-.137-2.372-.195-.518.323.055.96-.6,1.042" fill="#fff"/>
      <path id="Path_47" data-name="Path 47" d="M1285.85,201.4a1.873,1.873,0,0,1-1.811-1.4,1.383,1.383,0,0,1,.242-.923,6.938,6.938,0,0,1,.984-.993c.844-.793,1.429-.772,2.179.066a2.084,2.084,0,0,1,.383,2.23,2.226,2.226,0,0,1-1.977,1.018" fill="#fff"/>
      <path id="Path_48" data-name="Path 48" d="M1395.182,208.428l.266-.074c-.06-.254-.121-.508-.181-.763-.1.027-.206.057-.308.088.074.25.149.5.223.749m-1.358-6.922a1.588,1.588,0,0,0,.065-.488,1.086,1.086,0,0,0-.219-.318c-.056.036-.112.071-.168.108.088.193.177.385.322.7m2.772-3.842c.225-.606.359-.967.554-1.49-.865.657-.865.657-.554,1.49m-.58-3.1c.511-.235,1.356.823,1.824-.254-.666.092-1.244.172-1.824.254m-5.34,13.011c-.158-3.769-.425-7.455.325-11.2a3.661,3.661,0,0,0-3.288,2.612c-.448,1.206-1.078,2.583.247,3.721-.427,1.792.6,3.7,2.716,4.865m19.489-9.013c-1.678,2.454-2.1,7.385-.974,10.6a9.594,9.594,0,0,0,3.06-2.671,4.018,4.018,0,0,0,.76-1.923,8.017,8.017,0,0,0-2.846-6.01m-16.16-4.461a23.833,23.833,0,0,1-3.619-6.931,15.655,15.655,0,0,1-1.365-7.625,13.631,13.631,0,0,1-1.633-.4,1.632,1.632,0,0,0-2.066.737,5.091,5.091,0,0,0-.721,1.631,6.042,6.042,0,0,0,1.294,5.01,61.548,61.548,0,0,0,4.389,5.683,12.21,12.21,0,0,0,2.707,1.943c.177.116.511-.014,1.014-.047m10.976.894c-1.5-.259-2.779-.542-4.075-.688-1.253-.145-1.789.3-2.132,1.5-.206.721-.382,1.457-.651,2.155-1.4,3.64-1.3,7.368-.7,11.127.149.925.435,1.147,1.415,1.239,1.03.1,2.062.156,3.1.2a2.524,2.524,0,0,0,.713-.214c0-2.569-.11-5.1.032-7.626.146-2.624.469-5.254,2.3-7.69m-3.427-11.457c-.033-.033-.078-.061-.094-.1-.054-.129-.088-.268-.148-.394-1-2.153-2.127-4.227-4.418-5.269-1.692-.769-3.446-1.052-5.071.173a10.349,10.349,0,0,0-1.3,1.463,2.722,2.722,0,0,0-.627,2.34,29.433,29.433,0,0,0,2.727,8.278,6.26,6.26,0,0,0,2.686,3.015,2.274,2.274,0,0,0,1.186.3,21.706,21.706,0,0,1,7.556.274,1.389,1.389,0,0,0,1.415-.41c1.7-1.688,3.519-3.27,5.115-5.051a17.593,17.593,0,0,0,3.54-5.393c.77-2.013-.128-5.906-3.272-6.578a7.6,7.6,0,0,0-6.488,1.12,3.96,3.96,0,0,0-1.529,4.894c.4,1.144-.01,1.571-1.282,1.339m-.163-3.541a10.2,10.2,0,0,0,.516-1.366,4.171,4.171,0,0,1,2.187-2.816,10.541,10.541,0,0,1,5.079-1.559,6.149,6.149,0,0,1,2.309.539,8.888,8.888,0,0,1,3.493,2.807,4.132,4.132,0,0,1,.754,4.252,20.371,20.371,0,0,1-1.939,3.9,33.968,33.968,0,0,1-6.1,6.823c-.487.432-.919.924-1.473,1.485a17.719,17.719,0,0,1,5.135,3.87,9.863,9.863,0,0,1,2.653,4.908,4.84,4.84,0,0,1-1.558,5.124,15.353,15.353,0,0,1-4.04,2.8,19.111,19.111,0,0,1-5.129.725,25.366,25.366,0,0,1-7.657-.855c-1.829-.417-3.765-.7-5.338-2.044a10.684,10.684,0,0,1-3.222-4.207,1.63,1.63,0,0,0-1.3-1.1,13.064,13.064,0,0,1-5.659-3.021c-.239-.21-.617-.3-.776-.547a1.38,1.38,0,0,1-.2-.968c.033-.14.626-.328.8-.223,1.731,1.032,3.6.245,5.4.445a1.878,1.878,0,0,0,1.7-1.046,6.326,6.326,0,0,1,3.742-2.815,1.806,1.806,0,0,0,.664-.368c-1.69-.152-2.09-1.679-2.957-2.654a32.153,32.153,0,0,1-2.964-3.942c-.837-1.3-1.515-2.7-2.22-4.083a3.913,3.913,0,0,1-.318-1.23c-.333-2.4.509-3.845,2.8-4.682a5.7,5.7,0,0,1,3.3-.511,2.519,2.519,0,0,0,1.41-.427,8.088,8.088,0,0,1,4.845-1.118,8.005,8.005,0,0,1,4.464,2.179c.507.476.949,1.021,1.6,1.726" fill="#fff"/>
      <path id="Path_50" data-name="Path 50" d="M1358.546,235.284c.072-.018.144-.04.217-.058-.049-.209-.1-.418-.148-.627-.084.021-.168.046-.253.072.061.205.123.408.184.613m-1.115-5.68a1.29,1.29,0,0,0,.054-.4.9.9,0,0,0-.18-.261c-.046.031-.092.06-.138.088.072.158.145.318.264.572m2.274-3.152.455-1.222c-.71.541-.71.541-.455,1.222m-.475-2.545c.419-.19,1.112.675,1.5-.209-.546.077-1.021.145-1.5.209m-4.382,10.678a37.983,37.983,0,0,1,.267-9.189,3,3,0,0,0-2.7,2.143c-.367.99-.884,2.119.2,3.053-.351,1.47.493,3.04,2.228,3.993m15.991-7.4c-1.378,2.013-1.721,6.06-.8,8.7a7.856,7.856,0,0,0,2.511-2.191,3.271,3.271,0,0,0,.623-1.578,6.581,6.581,0,0,0-2.334-4.932m-13.259-3.661a19.554,19.554,0,0,1-2.97-5.685,12.847,12.847,0,0,1-1.119-6.256,11.314,11.314,0,0,1-1.34-.329,1.341,1.341,0,0,0-1.7.6,4.241,4.241,0,0,0-.591,1.338,4.961,4.961,0,0,0,1.062,4.113,50.6,50.6,0,0,0,3.6,4.663,10,10,0,0,0,2.221,1.592c.145.1.419-.01.832-.039m9.005.736c-1.229-.212-2.28-.446-3.343-.567-1.028-.117-1.468.245-1.749,1.23-.169.593-.313,1.194-.535,1.767a17.244,17.244,0,0,0-.573,9.129c.122.759.357.944,1.161,1.019.845.078,1.692.129,2.54.164a2.053,2.053,0,0,0,.586-.177c0-2.106-.091-4.186.025-6.257a10.8,10.8,0,0,1,1.888-6.308m-2.812-9.4c-.027-.027-.063-.05-.077-.085-.044-.1-.072-.218-.121-.323-.82-1.766-1.745-3.467-3.625-4.321a3.837,3.837,0,0,0-4.161.14,8.487,8.487,0,0,0-1.063,1.2,2.228,2.228,0,0,0-.514,1.919,24.11,24.11,0,0,0,2.238,6.793,5.121,5.121,0,0,0,2.2,2.471,1.839,1.839,0,0,0,.973.247,17.839,17.839,0,0,1,6.2.228,1.144,1.144,0,0,0,1.161-.338c1.4-1.386,2.887-2.684,4.2-4.145a14.4,14.4,0,0,0,2.905-4.424c.632-1.652-.106-4.845-2.684-5.4a6.233,6.233,0,0,0-5.325.919,3.253,3.253,0,0,0-1.253,4.017c.327.936-.009,1.289-1.053,1.1m-.133-2.9a8.5,8.5,0,0,0,.423-1.121,3.431,3.431,0,0,1,1.794-2.311,8.668,8.668,0,0,1,4.168-1.28,5.094,5.094,0,0,1,1.894.443,7.326,7.326,0,0,1,2.867,2.3,3.392,3.392,0,0,1,.618,3.489,16.728,16.728,0,0,1-1.591,3.2,27.94,27.94,0,0,1-5.009,5.6c-.4.354-.754.756-1.209,1.217a14.5,14.5,0,0,1,4.213,3.177,8.088,8.088,0,0,1,2.177,4.024,3.968,3.968,0,0,1-1.279,4.205,12.515,12.515,0,0,1-3.314,2.295,15.625,15.625,0,0,1-4.209.6,20.762,20.762,0,0,1-6.282-.7,9.463,9.463,0,0,1-4.379-1.677,8.775,8.775,0,0,1-2.644-3.451,1.335,1.335,0,0,0-1.068-.9,10.722,10.722,0,0,1-4.643-2.481c-.2-.172-.506-.245-.637-.447a1.124,1.124,0,0,1-.16-.793c.027-.115.513-.272.659-.185,1.42.847,2.958.2,4.428.365a1.539,1.539,0,0,0,1.393-.859,5.193,5.193,0,0,1,3.07-2.308,1.477,1.477,0,0,0,.546-.3c-1.388-.126-1.715-1.379-2.427-2.178a26.41,26.41,0,0,1-2.432-3.235,38.094,38.094,0,0,1-1.821-3.35,3.2,3.2,0,0,1-.261-1.009,3.135,3.135,0,0,1,2.3-3.842,4.679,4.679,0,0,1,2.709-.418,2.06,2.06,0,0,0,1.157-.351,6.64,6.64,0,0,1,3.975-.917,6.558,6.558,0,0,1,3.663,1.787c.415.393.778.838,1.31,1.417" fill="#fff"/>
    </g>
    <path id="Path_51" data-name="Path 51" d="M1371.274,231.011c-.771-.569-.969-1.173-.589-1.645a.838.838,0,0,1,1.138-.015c.381.441.195,1.046-.549,1.66" fill="#fff"/>
  </g>
</svg>
