<svg xmlns="http://www.w3.org/2000/svg" width="35.661" height="35.661" viewBox="0 0 35.661 35.661">
  <g id="Group_168" data-name="Group 168" transform="translate(-1049.151 -7214.574)">
    <path id="Path_24" data-name="Path 24" d="M1084.812,7232.4a17.831,17.831,0,1,1-17.831-17.831,17.83,17.83,0,0,1,17.831,17.831" fill="#8a84d6"/>
    <path id="Path_25" data-name="Path 25" d="M1057.286,7234.091a1.884,1.884,0,0,0,0,.316c.074.366.156.73.238,1.095a1.14,1.14,0,0,0,.288.512,28.558,28.558,0,0,0,2.225,2.185c1.022.91,2.108,1.744,3.195,2.576a.758.758,0,0,0,.128.059c-.018-.484-.036-.942-.052-1.4,0-.087-.067-.108-.127-.143a18.192,18.192,0,0,1-3.956-3.1c-.579-.6-1.13-1.224-1.694-1.839-.071-.077-.144-.151-.248-.26m6.1,2.272c-.243-.177-.469-.322-.673-.494-.6-.51-1.2-1.019-1.786-1.547-1.253-1.135-2.495-2.282-3.742-3.423-.049-.045-.1-.084-.169-.14a2.634,2.634,0,0,0-.054.292,11.13,11.13,0,0,0,.078,1.922.423.423,0,0,0,.126.259c1.091,1.127,2.175,2.26,3.346,3.305a20.032,20.032,0,0,0,2.171,1.688c.221.149.453.283.724.45a18.665,18.665,0,0,1-.021-2.312m13.662-.359c.176-.65.353-1.3.507-1.992l-1.6.6c-.015.029-.021.036-.021.043l-.009.114a1.368,1.368,0,0,1-.583,1.115c-.409.28-.8.583-1.228.84a17.859,17.859,0,0,1-2.991,1.376,14.1,14.1,0,0,1-2.009.619.983.983,0,0,1-1.119-.363.575.575,0,0,1-.043-.078,13.681,13.681,0,0,1-4.035,1.2,5.347,5.347,0,0,0,.02,1.416,13.308,13.308,0,0,0,1.841-.336c1.7-.4,3.371-.911,5.027-1.469a30.639,30.639,0,0,0,3.946-1.588c.34-.17.662-.379.992-.572a.273.273,0,0,0,.151-.257c0-.336.022-.672.041-1.008a.3.3,0,0,1,.055-.187,2.163,2.163,0,0,1,.3-.2,1.122,1.122,0,0,1,.041.2c0,.268-.012.535-.02.8,0,.089-.01.177-.016.273.055-.007.086-.008.116-.013.287-.059.308-.093.273-.387-.032-.272-.061-.544-.094-.836l.322-.172a4.3,4.3,0,0,1,.136.848m1.364-5.321-.046-.039c-.084.032-.17.061-.252.1q-1.051.48-2.1.963c-2.068.944-4.135,1.894-6.208,2.83a22.606,22.606,0,0,1-3.763,1.289c-.613.154-1.23.3-1.843.453-.19.049-.214.041-.22.257-.021.772-.048,1.544-.069,2.315,0,.16.034.188.2.158.2-.038.389-.079.58-.131a27.865,27.865,0,0,0,2.976-1.054.331.331,0,0,0,.064-.043c-.025-.308-.049-.6-.075-.9a.346.346,0,0,1,.249-.389q.331-.126.659-.262a.862.862,0,0,1,1.126.25.2.2,0,0,0,.225.067c.066-.02.131-.043.2-.066,1.2-.4,2.333-.943,3.489-1.442a.252.252,0,0,0,.175-.283c-.012-.129-.03-.258-.04-.388-.016-.216.006-.28.214-.346a6.76,6.76,0,0,1,.908-.222c.342-.056.381,0,.334.356,0,.007-.009.012-.032.045l-.891.154a2.207,2.207,0,0,0-.013.251c.011.145.035.289.047.433a.194.194,0,0,1-.141.226c-.306.119-.6.252-.9.391a28.416,28.416,0,0,1-2.962,1.217,5.888,5.888,0,0,1-.595.162.456.456,0,0,1-.577-.35.667.667,0,0,0-.051-.128c-.289.076-.568.145-.846.221a.189.189,0,0,0-.148.206,4.639,4.639,0,0,0,.049.568,1.067,1.067,0,0,0,.537.683c.191.128.383.044.575.006a.5.5,0,0,0,.065-.023,39.7,39.7,0,0,0,4.53-1.792,5.635,5.635,0,0,0,1.06-.634,1,1,0,0,0,.4-.79,2.993,2.993,0,0,0,0-.39.24.24,0,0,1,.119-.251c.038-.023.072-.054.11-.082-.043-.393-.086-.778-.131-1.173.165-.069.316-.135.508-.216v1.263l.4-.107c-.015-.473-.031-.924-.044-1.374-.008-.241.08-.326.356-.33a7.555,7.555,0,0,1,.01,1.535c.363-.14.7-.275,1.046-.4a.187.187,0,0,0,.122-.149c.049-.177.1-.352.142-.53.165-.7.326-1.411.488-2.116m-3.015-3.965c.007-.012.013-.024.02-.037q-.414-.429-.827-.857a17.7,17.7,0,0,0-1.683-1.558,2.409,2.409,0,0,0-.745-.441,2.743,2.743,0,0,0-1.405-.027,30.525,30.525,0,0,0-3.291.793c-1.845.59-3.689,1.182-5.529,1.788-.855.281-1.7.587-2.546.9a12.743,12.743,0,0,0-1.935.937,1.227,1.227,0,0,0-.565.666.649.649,0,0,0,.123.7,5.865,5.865,0,0,0,.467.506c.758.688,1.514,1.38,2.289,2.05.926.8,1.867,1.583,2.809,2.365.382.316.786.608,1.177.914a.659.659,0,0,0,.427.132,2.947,2.947,0,0,0,.92-.168c.766-.256,1.54-.5,2.291-.794,2.391-.944,4.774-1.91,7.16-2.869a1.387,1.387,0,0,0,.127-.068c-.421-.192-.869-.238-1.272-.437a.581.581,0,0,1,.586-.157,3.433,3.433,0,0,1,.593.17,1.044,1.044,0,0,0,.978-.057c.2-.11.418-.192.677-.307-.695-.223-1.369-.3-2.017-.514.134-.22.193-.254.4-.214.518.094,1.035.194,1.552.291a1.514,1.514,0,0,0,.515.078,2.105,2.105,0,0,0,.719-.316c-.967-.253-1.917-.386-2.873-.579l.051-.342c.112.019.2.03.277.045l2.874.568c.17.033.187.021.293-.194-.079-.025-.155-.054-.234-.075-.42-.108-.841-.218-1.264-.321-.577-.142-1.156-.278-1.735-.416-.223-.054-.26-.136-.17-.342a.16.16,0,0,1,.216-.108l.111.031q1.169.322,2.337.644c.185.051.371.1.557.147a5.258,5.258,0,0,0-.472-.416,1.457,1.457,0,0,0-.585-.3c-.515-.142-1.028-.29-1.541-.44-.19-.054-.38-.113-.566-.182a.237.237,0,0,1-.135-.13.449.449,0,0,1,.031-.353c.7.182,1.362.465,2.058.663-.165-.207-.346-.391-.511-.589a.967.967,0,0,0-.514-.321c-.421-.109-.841-.218-1.263-.325-.139-.035-.172-.082-.144-.227s.073-.189.216-.167a2.6,2.6,0,0,1,.291.062c.226.063.451.13.676.194m-19.49,2.9c.031-.172.055-.346.095-.515a5.375,5.375,0,0,1,.153-.549,1.793,1.793,0,0,1,.693-.833,5.75,5.75,0,0,1,1.181-.651c1.2-.5,2.425-.92,3.663-1.3,2.257-.7,4.52-1.384,6.784-2.065.7-.211,1.41-.4,2.119-.575a4.056,4.056,0,0,1,1.32-.113,2.357,2.357,0,0,1,1.453.6c.962.875,1.927,1.747,2.879,2.633.884.822,1.753,1.663,2.631,2.493a1.589,1.589,0,0,1,.5.931.369.369,0,0,0,.038.082v.826c-.025.109-.05.219-.073.328a32.5,32.5,0,0,1-1.061,3.692c-.227.671-.5,1.328-.739,1.995a1.605,1.605,0,0,1-.8.875,24.9,24.9,0,0,1-2.485,1.166,65.7,65.7,0,0,1-7.2,2.559,16.067,16.067,0,0,1-2.026.474,4.321,4.321,0,0,1-1.685-.02,2.692,2.692,0,0,1-.856-.426,17.969,17.969,0,0,1-1.776-1.414c-1.177-1.037-2.312-2.119-3.418-3.23a2.8,2.8,0,0,1-.652-1.039,8.627,8.627,0,0,1-.416-1.734c-.1-.7-.177-1.409-.264-2.114-.021-.172-.041-.344-.062-.514Z" fill="#fff"/>
    <path id="Path_26" data-name="Path 26" d="M1070.3,7229.875c.1-.117.194-.208.267-.313a.5.5,0,0,0-.053-.687,1.286,1.286,0,0,0-.33-.242c-.369-.185-.741-.362-1.118-.528a4.668,4.668,0,0,0-1.108-.357.755.755,0,0,0-.694.211,1.942,1.942,0,0,0-.527,1.046c0,.014.008.029.025.082l1.008.381-.163.241c-.3-.116-.569-.23-.847-.334-.194-.072-.225-.063-.3.122-.136.362-.257.732-.389,1.115l.62.445c-.1.323-.168.358-.436.214-.1-.059-.209-.117-.321-.178-.038.061-.07.1-.093.151a8.761,8.761,0,0,0-.574,1.567,3.246,3.246,0,0,0-.095.561c-.013.152.062.21.214.18a1.34,1.34,0,0,0,.347-.11c.287-.143.566-.3.848-.453l.156-.081c-.134-.08-.2-.126-.275-.163s-.169-.07-.251-.111c-.171-.085-.189-.212-.054-.343a.32.32,0,0,1,.358-.082,3.924,3.924,0,0,1,.371.18c.1.057.2.128.3.189a.423.423,0,0,0,.075-.038c.878-.676,1.771-1.336,2.588-2.087.224-.205.223-.264-.007-.469-.028-.025-.059-.047-.089-.071-.1-.078-.2-.154-.3-.227.1-.346.229-.39.476-.166.118.106.23.22.369.355m-.555-4.578c.4-.472.292-.4.841-.282.261.054.52.121.777.191.293.081.3.106.23.4-.009.036-.019.072-.034.125.167.05.328.092.485.144s.319.1.472.174c.23.1.246.151.111.357s-.269.391-.415.576a5.8,5.8,0,0,1-1.136,1.192c-.2.141-.282.135-.479-.081.446-.525.9-1.053,1.362-1.6-.186-.118-.357-.225-.546-.346-.1.1-.194.2-.292.292-.143.138-.289.274-.433.411a.221.221,0,0,1-.335,0c.177-.4.354-.8.545-1.238-.238-.032-.453-.059-.683-.089-.12.258-.237.514-.36.766-.166.344-.336.687-.506,1.027a.2.2,0,0,1-.185.143c-.212,0-.27-.052-.206-.254.121-.386.253-.769.374-1.154a2.414,2.414,0,0,0,.056-.3.615.615,0,0,0-.086-.041c-.358-.064-.358-.064-.493.282-.158.4-.317.81-.476,1.213-.019.05-.034.1-.056.164.286.094.562.174.831.274a5.116,5.116,0,0,1,1.527.82,1.063,1.063,0,0,1,.378.533,1,1,0,0,1-.1.709,4.59,4.59,0,0,1-.894,1.242,12.222,12.222,0,0,1-2.112,1.684c-.633.415-1.278.808-1.925,1.2a2.05,2.05,0,0,1-.564.242,1.317,1.317,0,0,1-.519,0,.4.4,0,0,1-.346-.5,2.068,2.068,0,0,1,.1-.4c.336-.916.663-1.837,1.021-2.744.308-.781.655-1.545.98-2.319a1.014,1.014,0,0,1,.538-.564c.174-.076.339-.174.514-.252a.44.44,0,0,0,.246-.246c.211-.483.432-.962.655-1.438.21-.446.214-.444.694-.371.143.023.287.038.438.057" fill="#fff"/>
    <path id="Path_27" data-name="Path 27" d="M1058.688,7229.162c.3.266.575.507.847.751s.558.5.83.758c.183.175.17.272-.045.41a1.653,1.653,0,0,1-.206.1.172.172,0,0,1-.207-.042,21.306,21.306,0,0,1-1.822-1.806c-.224-.273-.223-.3.075-.483a5.852,5.852,0,0,1,1.63-.709.352.352,0,0,1,.429.362c0,.1-.063.126-.14.151-.318.109-.635.218-.951.331-.141.051-.279.114-.44.179" fill="#fff"/>
    <path id="Path_28" data-name="Path 28" d="M1077.21,7231.651a.975.975,0,0,1,.116-.042c.154-.033.192-.01.221.142a.654.654,0,0,1,.016.159c-.023.349-.054.7-.072,1.049a.393.393,0,0,1-.311.368,7.558,7.558,0,0,1,.03-1.676" fill="#fff"/>
    <path id="Path_29" data-name="Path 29" d="M1067.979,7230.369c.192.071.374.124.542.205.13.064.138.13.079.265-.013.027-.026.054-.042.081-.123.212-.159.216-.357.117-.177-.087-.355-.171-.534-.254a.143.143,0,0,1-.018-.268,2.463,2.463,0,0,1,.33-.146" fill="#fff"/>
  </g>
</svg>
