<svg xmlns="http://www.w3.org/2000/svg" width="1920" height="567.154" viewBox="0 0 1920 567.154">
  <g id="Group_53" data-name="Group 53" transform="translate(-108 -5139.562)">
    <g id="Group_53-2" data-name="Group 53">
      <rect id="Rectangle_45" data-name="Rectangle 45" width="1920" height="567.154" transform="translate(108 5139.562)" fill="#ff0f6c"/>
      <path id="Path_167" data-name="Path 167" d="M1694.98,5678.413a11.549,11.549,0,0,0,1.382-.444,38.314,38.314,0,0,1,10.5-3.251,17.768,17.768,0,0,1,7.817.287c3.852.979,8.435,8.135,4.559,13.107a10.942,10.942,0,0,1-2.721,2.8c-3.723,2.223-7.529,4.291-12.07,4.379-2.16.041-4.314.363-6.474.524a7.179,7.179,0,0,1-4.968-1.452c-2.047-1.495-3.905-3.06-4.911-5.485a25.578,25.578,0,0,0-1.654-2.933c-1.944-.192-3.752-.4-5.565-.526a1.664,1.664,0,0,0-1.046.408c-2.111,1.732-4.6,1.818-7.114,1.582a23.57,23.57,0,0,1-8.557-2.184c-7.536,2.117-14.672,2.4-22.112-.984a19.957,19.957,0,0,0,.955,2.84,10.111,10.111,0,0,0,7.459,5.566,24.851,24.851,0,0,0,12.815-.988c1.914-.691,3.858-1.3,5.769-2a6.518,6.518,0,0,1,5.167.232c1.9.886,3.8,1.8,5.651,2.786a8.918,8.918,0,0,0,5.912.925,13.2,13.2,0,0,1,2.544-.231,1.268,1.268,0,0,1,1,.61,1.191,1.191,0,0,1-.524,1.04,12.031,12.031,0,0,1-2.787.917,10.536,10.536,0,0,1-6.707-.983c-1.645-.822-3.29-1.642-4.925-2.483a5.96,5.96,0,0,0-4.915-.311c-3.474,1.152-6.854,2.642-10.546,3.1a23.4,23.4,0,0,1-10.9-.848,13.168,13.168,0,0,1-7.962-8.219,23.145,23.145,0,0,1-1-4.207,1.6,1.6,0,0,1,.441-1.357c.337-.2.964.063,1.463.133a.369.369,0,0,1,.163.107c2.9,2.526,6.537,3.041,10.107,3.4a36.479,36.479,0,0,0,7.039-.5,26.608,26.608,0,0,0,2.629-.53c-.865-1.069-1.591-1.985-2.336-2.884-3.006-3.628-3.39-7.7-1.975-12.035,1.5-4.594,4.305-8.16,8.823-10a19.463,19.463,0,0,1,10.42-1.315,49.659,49.659,0,0,1,6.507,1.554,16.066,16.066,0,0,1,3.358,1.613c4.258,2.468,7.762,5.676,9.328,10.49a15.249,15.249,0,0,1,.389,4.456A24.712,24.712,0,0,1,1694.98,5678.413Zm-12.54,4.25c1.772-.073,3.424.392,4.56-1.376a1.991,1.991,0,0,1,1.743-.539c.906.222,1.325-.238,1.865-.727,2.474-2.241,3.349-7.435,1.741-10.027-.376-.608-.517-1.364-.9-1.964a11.878,11.878,0,0,0-1.992-2.634,25.5,25.5,0,0,0-13.149-6.265c-6.1-.9-13.428,1.063-16.979,8.281-3.131,6.364-.408,11.906,3.946,14.857a18.934,18.934,0,0,0,7.185,2.506,12.148,12.148,0,0,0,6.2-.429,4.389,4.389,0,0,0,3.164-3.226,8.106,8.106,0,0,0-2.97-8.76c-2.448-1.732-4.222-1.665-6.266.479a2.752,2.752,0,0,0,.313,4.42,13.517,13.517,0,0,1,1.664,1.374,3.914,3.914,0,0,1,.427,1.388,5.961,5.961,0,0,1-5.544-5.443,4.02,4.02,0,0,1,.878-3.315,6.548,6.548,0,0,1,9.074-.98,11.565,11.565,0,0,1,5.012,9.365C1682.433,5680.614,1682.431,5681.582,1682.44,5682.663Zm6.649,2.576a1.8,1.8,0,0,0-.063.51,4.29,4.29,0,0,0,.259.74,12.864,12.864,0,0,0,4.541,5.524,7.591,7.591,0,0,0,5.346,1.369c1.3-.134,2.6-.414,3.906-.418a19.57,19.57,0,0,0,8.844-2.344c2.5-1.26,4.863-2.68,5.945-5.435a5.321,5.321,0,0,0,.38-2.643,6.022,6.022,0,0,0-5.836-5.349,25.991,25.991,0,0,0-17.724,5.094,35.459,35.459,0,0,1-4.459,2.425C1689.837,5684.919,1689.424,5685.085,1689.089,5685.239Z" transform="translate(108 7)" fill="#fff"/>
    </g>
  </g>
</svg>
