<?xml version="1.0" encoding="iso-8859-1"?>
<svg xmlns="http://www.w3.org/2000/svg" width="1919" height="630.891" viewBox="0 0 1919 630.891">
  <g id="Group_53" data-name="Group 53" transform="translate(-6 -3783.949)">
    <path id="Path_99" data-name="Path 99" d="M1918,4520.949c-462,2.626-785.844-1.01-1000-5-103.852-1.935-370.8-7.473-729,0-80.512,1.68-146.647,3.62-190,5v-630c50.381,1.169,125.672,2.749,217,4,319.9,4.381,395.144-1.316,648,0,387.083,2.014,442.241,16.57,747,9,130.48-3.241,237.324-8.814,307-13Z" transform="translate(7 -107)" fill="#eb874f"/>
    <g id="Group_52" data-name="Group 52" transform="translate(7 -107)">
      <path id="Path_136" data-name="Path 136" d="M458.717,3941.291c.575,1.049.526,1.589-.208,2.255a3.221,3.221,0,0,1-3.386.737c-.362-.122-.711-.283-1.153-.46-.381.673-.73,1.3-1.089,1.925a8.01,8.01,0,0,1-2.434,2.677,3.888,3.888,0,0,1-3.743.51c-.446-.164-.9-.316-1.415-.5-.272.5-.487.929-.725,1.339-1.645,2.826-3.044,3.3-6.114,1.979a4.831,4.831,0,0,0-.4,1c-.372,2.3-3.045,2.984-4.889,1.194a14.155,14.155,0,0,1-1.723-2.574l-5.135,2.792a10.859,10.859,0,0,0,.94,1.15,12.01,12.01,0,0,1,2.709,3.779c.888,1.95,1.811,3.889,2.577,5.887,1.181,3.078.442,6.041-.816,8.918a1.556,1.556,0,0,1-1.794.942,3.18,3.18,0,0,1-2.546-1.709,34.837,34.837,0,0,1-3.109-9.4c-.36-1.666-.629-3.351-.965-5.022-.142-.709-.352-1.405-.547-2.167-1.171.129-2.389.686-3.306-.8l2.951-1.36c-.287-1.823-.552-3.5-.814-5.174a17.829,17.829,0,0,1,.66-8.081c.463-1.512,1.442-1.828,2.608-.772a4.252,4.252,0,0,1,1.166,1.786c.482,1.529.832,3.1,1.175,4.673a8.294,8.294,0,0,1-.446,4.752,3.489,3.489,0,0,0,3.3-3c.069-.333.094-.675.157-1.009.083-.44.179-.912.755-.912.54,0,1.1.058,1.315.691q.594,1.723,1.171,3.455a4.028,4.028,0,0,0,1.574,2.5c.873-.2,1.036-.873,1.156-1.555a8.021,8.021,0,0,0-.31-3.609,14.205,14.205,0,0,1-.349-1.566c-.083-.5-.079-1.055.484-1.237a1.119,1.119,0,0,1,1.385.539c.284.507.515,1.044.768,1.569.4.833.743,1.7,1.218,2.49.679,1.127,1.44,1.22,2.345.247a9.106,9.106,0,0,0,1.474-2.146,2.585,2.585,0,0,0-.145-2.6,27.468,27.468,0,0,1-2.03-4.98,7.159,7.159,0,0,1-.151-2.739,3.861,3.861,0,0,1,.7-1.561c.377-.6.925-.609,1.526-.278a4.526,4.526,0,0,1,2.18,3.137,17.828,17.828,0,0,1,.441,5.944,2.046,2.046,0,0,0,1.093,2.306,2.236,2.236,0,0,0,2.574-.426,8.122,8.122,0,0,0,2.6-4.146,2.693,2.693,0,0,0-.392-2.09,10.5,10.5,0,0,1-1.3-5.335,6.846,6.846,0,0,1,.391-2.131c.426-1.178,1.264-1.348,2.071-.374a7.561,7.561,0,0,1,1.251,2.27,13.708,13.708,0,0,1,.382,5.642,2.312,2.312,0,0,0,.191,1.246,1.455,1.455,0,0,0,2.144.52C457.4,3942.08,458.052,3941.673,458.717,3941.291ZM429.691,3973.1c1.063-2.227,1.822-4.314,1.271-6.528a31.124,31.124,0,0,0-3.591-8.55,11.744,11.744,0,0,0-2.759-2.889c.092.763.115,1.182.2,1.59.557,2.81,1.015,5.646,1.726,8.417.576,2.246,1.433,4.423,2.227,6.608A6.422,6.422,0,0,0,429.691,3973.1Zm-5.606-30.631c-1.292,3.172-.824,6.338-.063,9.818C426.34,3948.8,425.2,3945.635,424.085,3942.471Zm19.032-4.246a3.712,3.712,0,0,0,.811,4.184C443.724,3940.916,444.037,3939.5,443.117,3938.225Z" fill="#fff"/>
      <path id="Path_137" data-name="Path 137" d="M470.822,3987.5a20.457,20.457,0,0,1-.8-1.96,5.454,5.454,0,0,1,.848-4.724,1.844,1.844,0,0,1,2.145-.846c.95.2,1.221.877,1.284,1.71.1,1.348.183,2.7.285,4.247a3.241,3.241,0,0,0,1.854-2.165,17.387,17.387,0,0,0,.657-2.99c.217-2.082,1.61-3.256,3.161-4.312.64-.435,1.363-.274,2.088.464.98,1,1.884,2.07,2.907,3.206a3.283,3.283,0,0,0,1.812-2.137c.456-1.336.844-2.7,1.252-4.047.422-1.4.987-1.622,2.21-.833s2.457,1.576,3.671,2.387a1.89,1.89,0,0,0,2.291.2,3.358,3.358,0,0,1,.186,1.2c-.279.974-.664,1.917-1,2.874a4.774,4.774,0,0,1-2.171,2.285,1.446,1.446,0,0,1-1.777.024c-.574-.446-.373-1.094-.146-1.607a9.6,9.6,0,0,1,1.076-1.723c.34-.466.753-.878,1.221-1.413a10.517,10.517,0,0,0-3.689-2.22c-.444,1.239-.9,2.4-1.27,3.583a4.544,4.544,0,0,1-1.691,2.3,6.88,6.88,0,0,0-2.217,2.448,2.626,2.626,0,0,1-3.262,1.218c-.714-.29-.9-.752-.442-1.361a5.665,5.665,0,0,1,1.273-1.187,1.2,1.2,0,0,0,.451-1.636c-.338-.873-.487-1.095-1.8-2.1a2.928,2.928,0,0,0-1.974,2.111,11.527,11.527,0,0,0-.442,1.992c-.484,2.992-1.983,5.02-5.13,5.572-.4.071-.752.43-1.156.567a11.252,11.252,0,0,1-2.613.747,2.449,2.449,0,0,1-2.607-1.71c-.345-.9-.673-1.8-1.009-2.7a1.05,1.05,0,0,0-.988,1.019,21.076,21.076,0,0,0-.161,3.606c.149,1.826.231,1.818-1.554,1.734a.838.838,0,0,0-.271.089c-1.229,3.775-3.877,5.628-7.828,3.9a1.767,1.767,0,0,0-.293.282c-1.023,1.564-2.353,2.036-3.808,1.344a3.414,3.414,0,0,1-1.77-3.935,4.115,4.115,0,0,1,1.854-2.352c.439-.3.883-.592,1.443-.967-.148-.552-.314-1.146-.467-1.744a7.588,7.588,0,0,1-.285-1.28c-.052-.7.327-.934,1.023-.727a1.576,1.576,0,0,1,1.124,1.223c.284,1.083.525,2.18.88,3.24a24.075,24.075,0,0,0,1.256,3.085,1.432,1.432,0,0,0,1.849.705,4.841,4.841,0,0,0,3.45-3.443c.228-.654.41-1.132,1.162-1.253-.022-.311-.024-.548-.056-.782-.318-2.285-.345-2.3.929-4.157a4.494,4.494,0,0,1,1.365-1.28,2.093,2.093,0,0,1,3.016,1.076c.3.769.453,1.592.734,2.369C469.352,3987.963,469.645,3988.05,470.822,3987.5Zm-17.507,4.326c-1.176.7-1.948,1.465-1.789,2.735a1.386,1.386,0,0,0,.8.857c.456.185.849-.135,1-.6A4.4,4.4,0,0,0,453.315,3991.83Zm19.206-8.924-.323-.006c-.645,1.451-.623,1.846.355,2.828Z" fill="#fff"/>
      <path id="Path_138" data-name="Path 138" d="M428.811,4001.136l-1.135.67,1.7,2.779a5.68,5.68,0,0,0,.653-.85c1.066-2.235,2.073-4.5,3.186-6.713a7.689,7.689,0,0,1,1.55-2.062c.984-.937,2.7-.38,3.752.771a12.3,12.3,0,0,1,1.455,2.007,4.237,4.237,0,0,1-1.064,5.523,3.265,3.265,0,0,1-4.072.234c-.569-.356-1.069-.82-1.736-1.341-.341.6-.635,1.192-1,1.739a5.045,5.045,0,0,0-.282,5.93,12.569,12.569,0,0,1,1.309,4.3c.574,3.385-.858,6.1-3.284,8.3a2.515,2.515,0,0,1-4.067-1.3,12.794,12.794,0,0,1-.027-5.215,26.1,26.1,0,0,1,2.209-7.378,2.93,2.93,0,0,0-.286-3.262,14.623,14.623,0,0,1-.906-1.486c-.215.068-.413.067-.474.158-1.022,1.522-2.471,1.481-4.18.757a4.309,4.309,0,0,1-2.386-4.551,2.628,2.628,0,0,1,2.025-2.061,7.33,7.33,0,0,1,6.914,2.5A2.186,2.186,0,0,1,428.811,4001.136Zm.719,8.257c-.426,1.159-.8,2.1-1.118,3.055a18.042,18.042,0,0,0-1.06,6.283,3.626,3.626,0,0,0,.848,2.679C431.95,4018.736,432.293,4013.46,429.53,4009.393Zm7.121-13.294c-1.5.69-1.9,1.466-1.588,2.823a2.08,2.08,0,0,1-.091.942,2.139,2.139,0,0,0,1.141,2.4c.736.349,1.438.02,2-.952a2.873,2.873,0,0,0,.4-2.372A6.006,6.006,0,0,0,436.651,3996.1Zm-11.552,6.329a15.9,15.9,0,0,0-.325-1.955c-.293-.976-.688-1.226-1.546-1.145a1.575,1.575,0,0,0-1.6,1.562,4.584,4.584,0,0,0,.54,1.911,1.328,1.328,0,0,0,1.56.8C424.238,4003.413,424.617,4002.859,425.1,4002.428Z" fill="#fff"/>
      <path id="Path_139" data-name="Path 139" d="M453.061,3966.357c-.922-.43-2.224-.12-2.243-1.712.3-.05.605-.108.909-.149.938-.129,1.15-.359,1.113-1.332-.054-1.458-.17-2.914-.2-4.372a16.407,16.407,0,0,1,.978-5.727c.231-.659.5-1.328,1.368-1.276.793.047,1.1.63,1.4,1.291a12.185,12.185,0,0,1,.806,8.293,2.978,2.978,0,0,0,3.29.286,6.392,6.392,0,0,0,3.266-3.569c.181-.386.238-.879.9-.842a1.993,1.993,0,0,1,.408,2.241,5.7,5.7,0,0,1-3.147,3.455c-.475.209-.944.431-1.377.63a28.28,28.28,0,0,1,1.809,3.728c.634,1.985,1.149,4.049.33,6.132a4.1,4.1,0,0,1-4.151,2.857,3.324,3.324,0,0,1-3.027-1.964,19.028,19.028,0,0,1-1.963-5.627C453.364,3967.9,453.21,3967.094,453.061,3966.357Zm7.886,6.476a10.47,10.47,0,0,0-2.033-8.206,5.584,5.584,0,0,0-1.817-1.172.869.869,0,0,0-.794.027c-.692.727-1.511,1.417-1.256,2.621.121.569.152,1.157.261,1.729a16.664,16.664,0,0,0,2.05,5.885c.782,1.247,1.684,1.365,2.727.344A7.711,7.711,0,0,0,460.947,3972.833Zm-6-11.476a8.152,8.152,0,0,0,.373-5.57A7.649,7.649,0,0,0,454.95,3961.357Z" fill="#fff"/>
      <path id="Path_140" data-name="Path 140" d="M442,3963.579a5.19,5.19,0,0,1,1.98-2.813,1.863,1.863,0,0,1,1.459-.327c1.9.9,3.694,1.953,4.239,4.259a3.045,3.045,0,0,1-1.284,3.559,4.367,4.367,0,0,1-5.061-.063C441.9,3967.139,441.625,3965.662,442,3963.579Zm2.029.583a8.57,8.57,0,0,0-.208.98,2.1,2.1,0,0,0,.941,2.148,2.035,2.035,0,0,0,2.308-.355,1.651,1.651,0,0,0,.7-2.166,6.145,6.145,0,0,0-.838-1.687c-.757-1.019-1.624-.988-2.345.036A8.356,8.356,0,0,0,444.031,3964.162Z" fill="#fff"/>
      <path id="Path_141" data-name="Path 141" d="M441.22,3995.83c.681-2.411,2.415-3.619,4.189-3.146a1.409,1.409,0,0,1,.85.482,22.406,22.406,0,0,1,1.252,2.918c.459,1.359-1.016,3.827-2.452,4.169a3.01,3.01,0,0,1-3.941-2.72A11.726,11.726,0,0,1,441.22,3995.83Zm3.4-1.15a3.135,3.135,0,0,0-1.514,3.254.929.929,0,0,0,1.573.521A2.314,2.314,0,0,0,444.623,3994.68Z" fill="#fff"/>
      <path id="Path_142" data-name="Path 142" d="M501.656,3962.688c.379.394.848.674,1,1.076q1.654,4.278,3.185,8.6a9.857,9.857,0,0,1,.3,1.866.667.667,0,0,1-.592.843.783.783,0,0,1-1.024-.565c-.277-1.032-.467-2.095-.837-3.091-.863-2.32-1.811-4.608-2.728-6.907a3.433,3.433,0,0,1-.3-.659c-.046-.3-.107-.713.049-.9S501.286,3962.777,501.656,3962.688Z" fill="#fff"/>
      <path id="Path_143" data-name="Path 143" d="M511.012,3983.938a1.105,1.105,0,0,1-1.334.587,1.189,1.189,0,0,1-.958-1.4.9.9,0,0,1,1.214-.695C510.694,3982.692,511.2,3983.4,511.012,3983.938Z" fill="#fff"/>
    </g>
  </g>
</svg>
