<svg xmlns="http://www.w3.org/2000/svg" width="38.201" height="49.346" viewBox="0 0 38.201 49.346">
  <path id="Path_68" data-name="Path 68" d="M970.353,12724.526c-13.466,0-20.257,9.653-20.257,17.706,0,4.875,1.845,9.212,5.8,10.828a.976.976,0,0,0,1.42-.71c.131-.5.44-1.752.579-2.273a1.377,1.377,0,0,0-.408-1.579,8.173,8.173,0,0,1-1.87-5.559c0-7.163,5.358-13.576,13.955-13.576,7.61,0,11.792,4.65,11.792,10.862,0,8.172-3.617,15.07-8.985,15.07a4.387,4.387,0,0,1-4.473-5.46c.851-3.591,2.5-7.465,2.5-10.059,0-2.318-1.245-4.254-3.823-4.254-3.031,0-5.466,3.135-5.466,7.336a10.892,10.892,0,0,0,.9,4.484s-3.1,13.144-3.647,15.446c-1.083,4.583-.163,10.2-.085,10.77a.377.377,0,0,0,.674.163c.28-.365,3.89-4.821,5.118-9.275.347-1.263,1.993-7.791,1.993-7.791.985,1.88,3.863,3.534,6.924,3.534,9.112,0,15.293-8.31,15.293-19.427,0-8.408-7.12-16.237-17.944-16.237" transform="translate(-950.096 -12724.526)" fill="#f4b223"/>
</svg>
