<svg xmlns="http://www.w3.org/2000/svg" width="17.422" height="22.506" viewBox="0 0 17.422 22.506">
  <path id="Path_121" data-name="Path 121" d="M1327.419,14.662c-6.142,0-9.239,4.4-9.239,8.074,0,2.225.842,4.2,2.648,4.941a.445.445,0,0,0,.647-.325c.06-.226.2-.8.264-1.038a.624.624,0,0,0-.186-.718,3.734,3.734,0,0,1-.853-2.536,6.123,6.123,0,0,1,6.365-6.192c3.47,0,5.377,2.121,5.377,4.954,0,3.728-1.649,6.872-4.1,6.872a2,2,0,0,1-2.04-2.489c.388-1.639,1.14-3.4,1.14-4.588a1.729,1.729,0,0,0-1.743-1.938c-1.383,0-2.493,1.427-2.493,3.343a4.971,4.971,0,0,0,.413,2.046l-1.663,7.044a14.488,14.488,0,0,0-.039,4.912.172.172,0,0,0,.307.076,13.819,13.819,0,0,0,2.334-4.232c.158-.574.909-3.554.909-3.554a3.7,3.7,0,0,0,3.158,1.614c4.155,0,6.974-3.789,6.974-8.861,0-3.835-3.247-7.4-8.183-7.4" transform="translate(-1318.18 -14.662)" fill="#4a4f54"/>
</svg>
