<svg xmlns="http://www.w3.org/2000/svg" width="1060.055" height="108.516" viewBox="0 0 1060.055 108.516">
  <g id="Group_51" data-name="Group 51" transform="translate(-445.239 -3283.966)">
    <g id="Group_53" data-name="Group 53">
      <path id="Path_108" data-name="Path 108" d="M1466.772,3361.249a12.066,12.066,0,0,0,1.257.385c1.426.277,2.853.547,4.288.77a1.248,1.248,0,0,1,1.163,1.324c.132,1.539.4,3.07.464,4.611.074,1.821-.007,3.65-.031,5.475-.005.415-.049.829-.091,1.483.347-.3.595-.413.7-.608a23.136,23.136,0,0,0,2.885-8.893,3.222,3.222,0,0,1,.047-.56.724.724,0,0,1,1.286-.345,7.745,7.745,0,0,1,.823,1.461q1.149,2.25,2.277,4.509c.4.795.774,1.6,1.176,2.4.183.361.4.7.756,1.3a11.48,11.48,0,0,0-.005-1.229c-.367-2.646-.747-5.291-1.123-7.936-.04-.279-.087-.556-.112-.836-.166-1.892-.1-1.827,1.736-2.235,2.554-.569,5.07-1.314,7.588-2.032a3.508,3.508,0,0,0,1.578-1.072,6.486,6.486,0,0,0-1.415-.345c-3.744-.067-7.472-.654-11.23-.335-1.215.1-1.5-.072-1.891-1.214-.473-1.37-.844-2.774-1.269-4.16a1.727,1.727,0,0,0-.6-.9c-.261.967-.536,1.931-.78,2.9a7.428,7.428,0,0,1-1.284,2.73.96.96,0,0,1-.353-1.255,13.074,13.074,0,0,1,.567-1.439c1.149-2.649,1-5.4.635-8.162a7.165,7.165,0,0,1-.192-1.247c.012-.27.258-.528.4-.792.256.162.655.269.743.5.351.916.628,1.862.893,2.807.695,2.482,1.326,4.982,2.068,7.449.456,1.516.542,1.447,2.095,1.458a89.341,89.341,0,0,1,12.611.962,7.669,7.669,0,0,1,1.1.238c.6.182.7.571.255,1.02a1.876,1.876,0,0,1-.569.4c-1.452.631-2.876,1.355-4.377,1.838-2,.643-4.062,1.119-6.109,1.617a.925.925,0,0,0-.811,1.214c.228,1.388.487,2.772.667,4.166.409,3.163.782,6.331,1.16,9.5a3.8,3.8,0,0,1,.02,1.12.866.866,0,0,1-.454.6,1.026,1.026,0,0,1-.742-.236,1.479,1.479,0,0,1-.354-.6c-.74-1.664-1.541-3.306-2.189-5a40.812,40.812,0,0,0-3.349-6.08c-.535,1.513-.979,2.73-1.4,3.957a28.031,28.031,0,0,1-4.186,7.451,1.2,1.2,0,0,1-.941.339c-.5-.048-.469-.5-.4-.886.247-1.383.518-2.763.752-4.148a29.01,29.01,0,0,0-.4-10.466,1,1,0,0,0-.971-.848c-1.064-.166-2.126-.345-3.19-.514a4.591,4.591,0,0,1-2.886-1.275c-.8-.874-.8-1.14.278-1.59.994-.415,2.01-.777,3-1.208s1.945-.923,2.92-1.379a2.893,2.893,0,0,1,.911-.342.818.818,0,0,1,.677.293.8.8,0,0,1-.15.728,3.059,3.059,0,0,1-.952.571c-1.246.543-2.5,1.057-3.753,1.59-.416.178-.822.382-1.232.573Z" fill="#ffb71e"/>
      <path id="Path_110" data-name="Path 110" d="M1492.946,3349.022a2.955,2.955,0,0,1,.291-.738c.817-1.015,1.634-2.034,2.51-3a1.508,1.508,0,0,1,.987-.364.79.79,0,0,1,.573.478c.066.212-.035.657-.189.728-1.41.65-2.087,1.951-2.927,3.122a1.007,1.007,0,0,1-.79.318C1493.228,3349.553,1493.085,3349.2,1492.946,3349.022Z" fill="#ffb71e"/>
      <path id="Path_111" data-name="Path 111" d="M1505.294,3354.83c-.309.053-.489.143-.564.088-1.19-.863-2.4-.39-3.617-.091-.568.14-1.19.508-1.65-.137-.266-.372.184-.871,1.31-1.123a12.293,12.293,0,0,1,3.027-.25C1504.6,3353.341,1505.139,3353.855,1505.294,3354.83Z" fill="#ffb71e"/>
      <path id="Path_112" data-name="Path 112" d="M1496.884,3381.342c-.653.271-1.217.118-1.428-.462a29.491,29.491,0,0,1-.875-3.2.871.871,0,0,1,.15-.656.922.922,0,0,1,.642-.382.816.816,0,0,1,.538.516C1496.254,3378.5,1496.543,3379.849,1496.884,3381.342Z" fill="#ffb71e"/>
      <path id="Path_113" data-name="Path 113" d="M1465.367,3347.205c-.286.131-.545.358-.726.307a1.559,1.559,0,0,1-.779-.542c-.718-.968-1.416-1.955-2.056-2.975-.124-.2-.022-.8.089-.829a2.146,2.146,0,0,1,1,.07c.1.022.171.208.246.324q.939,1.47,1.871,2.942C1465.133,3346.692,1465.217,3346.9,1465.367,3347.205Z" fill="#ffb71e"/>
      <path id="Path_114" data-name="Path 114" d="M1460.208,3379.77c.922-1.112,1.836-2.272,2.819-3.371a1.238,1.238,0,0,1,1.676-.239,3.539,3.539,0,0,1-.45.882c-.889.947-1.824,1.852-2.73,2.783C1461.118,3380.24,1460.732,3380.508,1460.208,3379.77Z" fill="#ffb71e"/>
      <path id="Path_116" data-name="Path 116" d="M1502.364,3372.382l-1.982-3.481c.756-.771,1.019-.832,1.559-.062a8.739,8.739,0,0,1,1.084,2.2A.964.964,0,0,1,1502.364,3372.382Z" fill="#ffb71e"/>
      <path id="Path_117" data-name="Path 117" d="M1468.211,3388.5a2.572,2.572,0,0,1,.1.8c-.182.853-.415,1.7-.636,2.541-.1.386-.3.758-.752.595a.878.878,0,0,1-.486-.68,16.457,16.457,0,0,1,.5-2.566C1467.09,3388.658,1467.557,3388.444,1468.211,3388.5Z" fill="#ffb71e"/>
      <path id="Path_118" data-name="Path 118" d="M1458.142,3369.21c-.533.045-.854.047-1.165.1-.77.14-1.548.264-2.3.474-.638.179-.625.228-1.195-.436A3.176,3.176,0,0,1,1458.142,3369.21Z" fill="#ffb71e"/>
      <path id="Path_120" data-name="Path 120" d="M1477.776,3338.608c-.464.827-.9,1.676-1.419,2.463a.87.87,0,0,1-.836.151c-.218-.113-.475-.616-.391-.762a7.242,7.242,0,0,1,1.256-1.651,3.453,3.453,0,0,1,1.19-.459Z" fill="#ffb71e"/>
    </g>
    <g id="Group_52" data-name="Group 52">
      <path id="Path_109" data-name="Path 109" d="M1451.522,3321.517c1.309-1.2,2.531-1.992,3.213-3.348.623-1.236,1.327-2.431,2.117-3.866a18.465,18.465,0,0,1,1.211,1.4c1.043,1.5,2.036,3.04,3.085,4.538a16.968,16.968,0,0,0,1.247,1.426l.343-.189c-.308-1.161-.573-2.335-.937-3.479-.383-1.205-.9-2.369-1.283-3.573-.312-.971-.2-1.221.753-1.637.984-.432,2-.785,3.018-1.145a7.784,7.784,0,0,0,2.916-1.444,3.3,3.3,0,0,0-2.474-1.472c-1.584-.133-3.179-.176-4.77-.187-1.188-.008-1.268.061-1.682-1.043-.608-1.622-1.109-3.283-1.652-4.929a3.345,3.345,0,0,0-.693-1.342c-.21.441-.446.873-.627,1.326-.452,1.132-.848,2.288-1.33,3.407-.266.619-.527,1.318-1.485,1.437-.053-.3-.206-.593-.125-.788,1.047-2.5,2.125-5,3.2-7.489a7.357,7.357,0,0,1,.452-.742,8.188,8.188,0,0,1,1.86,3.648c.4,1.347.77,2.7,1.171,4.052a1.341,1.341,0,0,0,1.586,1.032c1.118-.072,2.248.033,3.372.04a6.428,6.428,0,0,1,4.327,1.763c.764.676.864,1.167.056,1.838a14.511,14.511,0,0,1-2.806,1.822,24.981,24.981,0,0,1-2.8.952c-.918.325-1.021.527-.71,1.458.252.756.552,1.5.859,2.233a19.448,19.448,0,0,1,1.208,6.188,1.3,1.3,0,0,1-.4.951c-.428.358-.752-.065-1.073-.336a30.517,30.517,0,0,1-4.76-5.877c-.268-.374-.53-.751-.944-1.339a25.477,25.477,0,0,1-6.466,7.426,8.4,8.4,0,0,1-.35-1.576c.009-1.547.079-3.094.124-4.641q.018-.631.02-1.263a1.287,1.287,0,0,0-1.1-1.4c-.866-.208-1.716-.478-2.57-.735a5.8,5.8,0,0,1-3.141-2.254c-.782-1.1-.637-1.949.6-2.488a24.746,24.746,0,0,1,3.6-1.175c1.313-.344,2.655-.578,3.987-.844a1.75,1.75,0,0,1,.955-.066,1.137,1.137,0,0,1,.615.777,1,1,0,0,1-.629.728c-2.014.412-4.048.726-6.065,1.128a15.9,15.9,0,0,0-1.982.671,3.105,3.105,0,0,0,2.273,1.956c.969.346,1.978.578,2.964.879,1.557.474,1.7.687,1.657,2.281-.034,1.314-.064,2.628-.075,3.942C1451.383,3320.5,1451.453,3320.854,1451.522,3321.517Z" fill="#ffb71e"/>
      <path id="Path_115" data-name="Path 115" d="M1439.551,3329.562a1,1,0,0,1-.3-1.515c.792-1.2,1.7-2.317,2.573-3.456a.711.711,0,0,1,.464-.285,4.257,4.257,0,0,1,.862.175c-.092.274-.113.721-.289.795a5.491,5.491,0,0,0-2.243,2.238A18.02,18.02,0,0,0,1439.551,3329.562Z" fill="#ffb71e"/>
      <path id="Path_119" data-name="Path 119" d="M1444.89,3296.658c.349,1.61.655,3,.937,4.387.013.066-.184.173-.333.306-1.155-.774-.966-2.045-1.2-3.132C1444.156,3297.6,1444.2,3297.59,1444.89,3296.658Z" fill="#ffb71e"/>
      <path id="Path_121" data-name="Path 121" d="M1444.585,3332.258c-.649.257-.9.038-1.067-.351a2.363,2.363,0,0,1,1.017-2.879c.191-.095.485.014.732.029-.043.244,0,.618-.141.711C1444.154,3330.409,1444.229,3331.289,1444.585,3332.258Z" fill="#ffb71e"/>
      <path id="Path_122" data-name="Path 122" d="M1462.185,3333.578c-.431.343-.768.149-1.083-.189a3.536,3.536,0,0,1-.6-3.11C1461.272,3330.544,1461.272,3330.544,1462.185,3333.578Z" fill="#ffb71e"/>
      <path id="Path_123" data-name="Path 123" d="M1441.041,3298.592a2.8,2.8,0,0,1,.394.528c.33.769.653,1.542.931,2.33a2.311,2.311,0,0,1,0,.77c-.243-.059-.622-.042-.707-.191a16.838,16.838,0,0,1-1.157-2.382c-.1-.277.12-.676.194-1.019Z" fill="#ffb71e"/>
      <path id="Path_124" data-name="Path 124" d="M1467.833,3296.523l-3.443,2.394c-.185-.926.114-1.41,1.516-2.247a4.32,4.32,0,0,1,1.429-.432C1467.485,3296.21,1467.68,3296.43,1467.833,3296.523Z" fill="#ffb71e"/>
      <path id="Path_125" data-name="Path 125" d="M1471.152,3301.868a4.455,4.455,0,0,1-3.218,1.716A3.16,3.16,0,0,1,1471.152,3301.868Z" fill="#ffb71e"/>
      <path id="Path_126" data-name="Path 126" d="M1471.094,3330.332a4.785,4.785,0,0,1-1.334.245,2.87,2.87,0,0,1-1.273-.521c-.44-.36-.3-.822.224-1.3Z" fill="#ffb71e"/>
    </g>
    <g id="Group_51-2" data-name="Group 51">
      <path id="Path_127" data-name="Path 127" d="M457.736,3309.247c1.309-1.2,2.531-1.992,3.213-3.348.623-1.236,1.327-2.432,2.117-3.866.518.592.91.965,1.211,1.4,1.042,1.5,2.036,3.041,3.085,4.539a16.722,16.722,0,0,0,1.247,1.426l.343-.189c-.308-1.161-.574-2.336-.937-3.479-.383-1.205-.9-2.369-1.283-3.573-.312-.971-.2-1.221.752-1.637.985-.433,2.005-.785,3.019-1.145a7.787,7.787,0,0,0,2.916-1.445,3.3,3.3,0,0,0-2.474-1.471c-1.584-.133-3.179-.176-4.77-.187-1.188-.008-1.268.06-1.682-1.043-.608-1.622-1.109-3.284-1.652-4.93a3.342,3.342,0,0,0-.693-1.341c-.21.441-.446.872-.627,1.326-.452,1.132-.848,2.287-1.33,3.407-.266.619-.527,1.318-1.485,1.436-.053-.3-.206-.592-.125-.787,1.047-2.505,2.125-5,3.2-7.489a7.441,7.441,0,0,1,.452-.743,8.191,8.191,0,0,1,1.86,3.649c.4,1.347.77,2.7,1.171,4.051a1.341,1.341,0,0,0,1.586,1.033c1.118-.072,2.248.033,3.372.04a6.432,6.432,0,0,1,4.327,1.762c.764.677.864,1.168.056,1.839a14.491,14.491,0,0,1-2.806,1.821,24.593,24.593,0,0,1-2.8.952c-.918.326-1.021.528-.71,1.459.252.756.552,1.5.858,2.232a19.427,19.427,0,0,1,1.209,6.189,1.3,1.3,0,0,1-.4.951c-.428.358-.752-.066-1.073-.336a30.491,30.491,0,0,1-4.76-5.878c-.268-.373-.53-.75-.944-1.338a25.473,25.473,0,0,1-6.466,7.426,8.4,8.4,0,0,1-.35-1.576c.009-1.547.079-3.094.124-4.641q.018-.631.02-1.264a1.287,1.287,0,0,0-1.1-1.4c-.866-.208-1.717-.478-2.57-.735a5.807,5.807,0,0,1-3.141-2.254c-.782-1.1-.637-1.95.6-2.489a24.738,24.738,0,0,1,3.6-1.174c1.313-.344,2.655-.578,3.987-.844a1.752,1.752,0,0,1,.955-.066,1.133,1.133,0,0,1,.615.777,1,1,0,0,1-.629.728c-2.014.412-4.048.726-6.065,1.128a15.8,15.8,0,0,0-1.982.671,3.1,3.1,0,0,0,2.273,1.955c.969.347,1.978.579,2.964.88,1.557.474,1.7.687,1.657,2.281-.035,1.314-.064,2.628-.075,3.942C457.6,3308.23,457.667,3308.584,457.736,3309.247Z" fill="#ffb71e"/>
      <path id="Path_128" data-name="Path 128" d="M445.765,3317.292a1,1,0,0,1-.3-1.515c.792-1.2,1.7-2.317,2.573-3.456a.712.712,0,0,1,.464-.285,4.257,4.257,0,0,1,.862.175c-.092.274-.113.72-.29.8a5.493,5.493,0,0,0-2.242,2.238A18.01,18.01,0,0,0,445.765,3317.292Z" fill="#ffb71e"/>
      <path id="Path_129" data-name="Path 129" d="M451.1,3284.388c.349,1.61.655,3,.936,4.387.014.065-.183.173-.332.306-1.156-.774-.966-2.045-1.2-3.132C450.37,3285.33,450.416,3285.32,451.1,3284.388Z" fill="#ffb71e"/>
      <path id="Path_130" data-name="Path 130" d="M450.8,3319.988c-.649.256-.9.038-1.067-.351a2.363,2.363,0,0,1,1.016-2.879c.192-.095.486.014.732.029-.042.244,0,.618-.14.711C450.368,3318.139,450.443,3319.019,450.8,3319.988Z" fill="#ffb71e"/>
      <path id="Path_131" data-name="Path 131" d="M468.4,3321.308c-.431.343-.768.149-1.083-.19a3.533,3.533,0,0,1-.6-3.109C467.486,3318.274,467.486,3318.274,468.4,3321.308Z" fill="#ffb71e"/>
      <path id="Path_132" data-name="Path 132" d="M447.255,3286.321a2.819,2.819,0,0,1,.394.529c.33.768.653,1.542.931,2.33a2.312,2.312,0,0,1,0,.77c-.243-.06-.622-.042-.707-.192a16.772,16.772,0,0,1-1.157-2.381c-.1-.277.12-.676.194-1.02Z" fill="#ffb71e"/>
      <path id="Path_133" data-name="Path 133" d="M474.047,3284.252l-3.443,2.4c-.185-.927.114-1.411,1.516-2.247a4.327,4.327,0,0,1,1.429-.432C473.7,3283.94,473.894,3284.159,474.047,3284.252Z" fill="#ffb71e"/>
      <path id="Path_134" data-name="Path 134" d="M477.366,3289.6a4.455,4.455,0,0,1-3.218,1.716A3.159,3.159,0,0,1,477.366,3289.6Z" fill="#ffb71e"/>
      <path id="Path_135" data-name="Path 135" d="M477.308,3318.062a4.791,4.791,0,0,1-1.334.245,2.87,2.87,0,0,1-1.274-.522c-.439-.359-.294-.821.225-1.3Z" fill="#ffb71e"/>
    </g>
  </g>
</svg>
