<svg xmlns="http://www.w3.org/2000/svg" width="35.661" height="35.661" viewBox="0 0 35.661 35.661">
  <g id="Group_169" data-name="Group 169" transform="translate(-1090.93 -7214.574)">
    <path id="Path_20" data-name="Path 20" d="M1126.591,7232.4a17.83,17.83,0,1,1-17.831-17.831,17.83,17.83,0,0,1,17.831,17.831" fill="#ffb71b"/>
    <path id="Path_21" data-name="Path 21" d="M1109.1,7222.076v9.429q3.326-3.328,6.676-6.682a10.3,10.3,0,0,0-6.676-2.747m-.676.026a10.327,10.327,0,1,0,7.864,3.261c-.056.052-.114.1-.168.156q-3.521,3.524-7.042,7.044a.855.855,0,0,1-.132.122.329.329,0,0,1-.52-.241,1.994,1.994,0,0,1-.005-.258l0-9.732Zm11.35,10.307a11.012,11.012,0,1,1-11.014-11.011,10.991,10.991,0,0,1,11.014,11.011" fill="#fff"/>
    <path id="Path_22" data-name="Path 22" d="M1100.137,7232.072c.224,0,.447,0,.671,0a.347.347,0,0,1,.372.343.355.355,0,0,1-.364.328c-.447,0-.894.007-1.341,0a.323.323,0,0,1-.351-.331c0-.207.131-.334.368-.339.215-.006.43,0,.645,0Z" fill="#fff"/>
    <path id="Path_23" data-name="Path 23" d="M1117.359,7232.074c.214,0,.429,0,.643,0,.233,0,.382.133.385.324a.349.349,0,0,1-.372.342q-.656.009-1.311,0a.351.351,0,0,1-.373-.339.346.346,0,0,1,.385-.324c.215-.005.429,0,.643,0Z" fill="#fff"/>
  </g>
</svg>
