<svg xmlns="http://www.w3.org/2000/svg" width="21.046" height="25.122" viewBox="0 0 21.046 25.122">
  <g id="Group_162" data-name="Group 162" transform="translate(-1353.143 -12.044)">
    <path id="Path_92" data-name="Path 92" d="M1358.83,19.6l0-1.957-.87-2.783-.871-2.784.707-.02a2.1,2.1,0,0,1,.751.049c.024.039.249.848.5,1.8s.472,1.729.491,1.729.2-.641.411-1.427.423-1.592.481-1.8l.1-.37h.743c.6,0,.735.019.7.1-.021.054-.42,1.32-.888,2.815l-.851,2.718v3.882h-1.409ZM1367,21.522a.988.988,0,0,1-.316-.367c-.124-.248-.135-.5-.154-3.491l-.021-3.224h1.346v2.951c0,2.525.014,2.963.1,3.037.157.13.41.035.7-.26l.255-.263V14.44h1.339v7.117h-1.339V20.84l-.335.3a2.684,2.684,0,0,1-.561.393,1.406,1.406,0,0,1-1.015-.009m-3.13-1.066c.288-.111.32-.352.32-2.416a13.127,13.127,0,0,0-.079-2.148.547.547,0,0,0-.969,0,13.127,13.127,0,0,0-.079,2.148c0,2.3.029,2.436.54,2.455a.819.819,0,0,0,.267-.039m-.878,1.1a1.586,1.586,0,0,1-.71-.483c-.5-.538-.523-.7-.523-3.079,0-2.294.035-2.511.5-3.049a1.97,1.97,0,0,1,2.78.041c.424.514.459.744.459,3.044a8.394,8.394,0,0,1-.127,2.442,1.924,1.924,0,0,1-1.181,1.111,1.611,1.611,0,0,1-1.194-.027" fill="#4a4f54"/>
    <path id="Path_93" data-name="Path 93" d="M1357.779,30.329V26.277h1.551V24.939h-4.44v1.338h1.48v8.106h1.409Zm12.122-.848c0-.876.224-1.173.79-1.049.283.061.406.38.406,1.049v.533h-1.2Zm1.479,4.825a1.787,1.787,0,0,0,1.041-1.774l.036-.617h-1.36v.419c0,.513-.079.735-.316.892a.52.52,0,0,1-.757-.254,2.418,2.418,0,0,1-.123-1.075v-.828h2.537V30.034c0-1.3-.1-1.717-.541-2.2a1.693,1.693,0,0,0-1.432-.592,1.747,1.747,0,0,0-1.235.46c-.6.527-.688.993-.653,3.372a7.984,7.984,0,0,0,.15,2.19,1.816,1.816,0,0,0,.906,1.012,2.32,2.32,0,0,0,1.748.035m-5.937-1.137-.265-.153V28.693l.313-.166c.254-.133.351-.152.511-.1.348.123.385.39.361,2.59l-.022,1.962-.2.17c-.242.208-.361.211-.7.015m1.681,1.148a1.322,1.322,0,0,0,.388-.474c.166-.336.169-.382.192-2.665.025-2.5-.015-2.956-.309-3.464a1.129,1.129,0,0,0-.853-.521,1.751,1.751,0,0,0-1.018.48l-.345.308V24.939h-1.269v9.444h1.269v-.652l.289.261a2.439,2.439,0,0,0,.511.36,1.5,1.5,0,0,0,1.145-.035m-6.443.024a3.161,3.161,0,0,0,.524-.4l.309-.285v.724h1.339V27.336h-1.339v5.373l-.307.309c-.33.33-.465.372-.639.2-.1-.1-.111-.468-.111-3V27.336h-1.338v3.052c0,3.368.027,3.634.406,3.917a1.369,1.369,0,0,0,1.156.036m-1.694,2.785c-3.443-.113-4.375-.358-5.009-1.315a5.61,5.61,0,0,1-.635-1.913,36.029,36.029,0,0,1,.144-8.809,2.757,2.757,0,0,1,2.673-2.4c1.473-.151,5.317-.233,9.054-.194a44.383,44.383,0,0,1,6.622.3c1.344.337,2,1.326,2.224,3.377.043.388.1,1.739.117,3.007.088,5.11-.3,6.736-1.763,7.455a5.665,5.665,0,0,1-2.479.427c-1.7.1-8.631.141-10.948.064" fill="#4a4f54"/>
  </g>
</svg>
