<svg xmlns="http://www.w3.org/2000/svg" width="46.148" height="55.087" viewBox="0 0 46.148 55.087">
  <g id="Group_162" data-name="Group 162" transform="translate(-1026.759 -12718.785)">
    <path id="Path_66" data-name="Path 66" d="M1039.228,12735.357l0-4.289-1.908-6.1-1.91-6.1,1.55-.044a4.612,4.612,0,0,1,1.647.107c.053.085.544,1.861,1.094,3.946s1.034,3.793,1.077,3.793.449-1.408.9-3.128.926-3.494,1.054-3.94l.23-.811h1.629c1.325,0,1.612.04,1.544.214-.045.118-.922,2.9-1.947,6.174l-1.866,5.958v8.513h-3.09Zm17.907,4.209a2.137,2.137,0,0,1-.7-.806c-.269-.543-.295-1.1-.337-7.652l-.046-7.069h2.951v6.469c0,5.539.032,6.5.229,6.662.343.284.9.076,1.528-.571l.56-.577v-11.982h2.935v15.6h-2.935v-1.57l-.734.65a6,6,0,0,1-1.231.863,3.085,3.085,0,0,1-2.225-.021m-6.865-2.336c.633-.243.7-.773.7-5.3a28.759,28.759,0,0,0-.174-4.711,1.2,1.2,0,0,0-2.124,0,28.628,28.628,0,0,0-.174,4.711c0,5.049.064,5.341,1.185,5.383a1.8,1.8,0,0,0,.584-.085m-1.924,2.421a3.484,3.484,0,0,1-1.559-1.062c-1.086-1.176-1.145-1.525-1.145-6.75,0-5.031.077-5.5,1.088-6.687a4.322,4.322,0,0,1,6.095.091c.931,1.129,1.006,1.631,1.006,6.675,0,3.991-.035,4.656-.277,5.354a4.232,4.232,0,0,1-2.591,2.437,3.535,3.535,0,0,1-2.617-.059" fill="#f4b223"/>
    <path id="Path_67" data-name="Path 67" d="M1036.926,12758.881V12750h3.4v-2.936h-9.734V12750h3.245v17.769h3.09Zm26.578-1.858c0-1.924.491-2.577,1.732-2.306.623.136.893.833.893,2.306v1.163H1063.5Zm3.244,10.575c1.493-.677,2.166-1.821,2.283-3.886l.078-1.354h-2.98v.918c0,1.123-.174,1.612-.693,1.952a1.135,1.135,0,0,1-1.662-.555,5.311,5.311,0,0,1-.27-2.354l0-1.815h5.564v-2.27c0-2.855-.224-3.766-1.187-4.835a3.705,3.705,0,0,0-3.139-1.3,3.82,3.82,0,0,0-2.709,1.011c-1.311,1.151-1.509,2.176-1.431,7.394.052,3.389.108,4.215.328,4.8a3.981,3.981,0,0,0,1.986,2.218,5.062,5.062,0,0,0,3.834.078m-13.019-2.492-.579-.338v-9.475l.686-.364c.556-.295.768-.334,1.12-.211.763.269.845.857.792,5.684l-.048,4.3-.433.372c-.532.457-.792.462-1.538.03m3.687,2.52a2.881,2.881,0,0,0,.851-1.042c.363-.736.369-.837.42-5.845.056-5.49-.031-6.481-.677-7.6a2.468,2.468,0,0,0-1.871-1.138,3.832,3.832,0,0,0-2.231,1.048l-.757.68v-6.672h-2.782v20.7h2.782v-1.425l.634.572a5.352,5.352,0,0,0,1.12.785,3.283,3.283,0,0,0,2.511-.072m-14.129.05a6.823,6.823,0,0,0,1.15-.869l.679-.625v1.584h2.935v-15.45h-2.935v11.782l-.676.677c-.723.724-1.017.814-1.4.432-.213-.213-.243-1.025-.243-6.567v-6.323h-2.935v6.692c0,7.383.061,7.968.891,8.588a2.983,2.983,0,0,0,2.534.08m-3.714,6.109c-7.548-.252-9.592-.788-10.983-2.887a12.312,12.312,0,0,1-1.392-4.191c-.7-5.078-.532-15.669.316-19.319.766-3.3,2.571-4.923,5.86-5.262,3.232-.33,11.659-.511,19.854-.425,8.848.093,13.012.283,14.52.66,2.948.736,4.379,2.908,4.877,7.4.094.851.211,3.817.257,6.595.191,11.208-.652,14.772-3.866,16.347-1.214.6-2.007.73-5.436.935-3.725.223-18.925.314-24.007.145" fill="#f4b223"/>
  </g>
</svg>
